<svg width="41" height="40" viewBox="0 0 41 40" fill="none" xmlns="http://www.w3.org/2000/svg">
<g clip-path="url(#clip0_499_1689)">
<rect x="0.5" width="40" height="40" rx="20" fill="url(#paint0_radial_499_1689)" fill-opacity="0.2"/>
<rect x="0.5" width="40" height="40" rx="20" fill="#4CBC0B" fill-opacity="0.1"/>
<g filter="url(#filter0_f_499_1689)">
<rect x="8.5" y="9" width="24" height="23" rx="11.5" fill="#34C21C"/>
</g>
<g filter="url(#filter1_d_499_1689)">
<path d="M24.268 14.4941C23.7599 14.4941 23.3442 14.9098 23.3442 15.4271C23.3442 15.9445 23.7599 16.3601 24.268 16.3601C24.7761 16.3601 25.201 15.9445 25.201 15.4271C25.201 14.9098 24.7853 14.4941 24.268 14.4941Z" fill="white"/>
<path d="M20.1479 15.6855C17.9955 15.6855 16.2496 17.4315 16.2496 19.5838C16.2496 21.7362 17.9955 23.4821 20.1479 23.4821C22.3003 23.4821 24.0462 21.7362 24.0462 19.5838C24.0462 17.4315 22.3003 15.6855 20.1479 15.6855ZM20.1479 22.0872C18.7715 22.0872 17.6537 20.9695 17.6537 19.5931C17.6537 18.2167 18.7715 17.0989 20.1479 17.0989C21.5243 17.0989 22.6421 18.2167 22.6421 19.5931C22.6421 20.9695 21.5243 22.0872 20.1479 22.0872Z" fill="white"/>
<path d="M23.2426 27.5003H16.924C14.3005 27.5003 12.1666 25.3664 12.1666 22.7429V16.4244C12.1666 13.8009 14.3005 11.667 16.924 11.667H23.2426C25.8661 11.667 28 13.8009 28 16.4244V22.7429C28 25.3664 25.8661 27.5003 23.2426 27.5003ZM16.924 13.1543C15.1227 13.1543 13.6539 14.623 13.6539 16.4244V22.7429C13.6539 24.5443 15.1227 26.0131 16.924 26.0131H23.2426C25.0439 26.0131 26.5127 24.5443 26.5127 22.7429V16.4244C26.5127 14.623 25.0439 13.1543 23.2426 13.1543H16.924Z" fill="white"/>
</g>
</g>
<rect x="1" y="0.5" width="39" height="39" rx="19.5" stroke="url(#paint1_linear_499_1689)"/>
<defs>
<filter id="filter0_f_499_1689" x="-11.5" y="-11" width="64" height="63" filterUnits="userSpaceOnUse" color-interpolation-filters="sRGB">
<feFlood flood-opacity="0" result="BackgroundImageFix"/>
<feBlend mode="normal" in="SourceGraphic" in2="BackgroundImageFix" result="shape"/>
<feGaussianBlur stdDeviation="10" result="effect1_foregroundBlur_499_1689"/>
</filter>
<filter id="filter1_d_499_1689" x="-7.83337" y="-4.33301" width="55.8334" height="55.833" filterUnits="userSpaceOnUse" color-interpolation-filters="sRGB">
<feFlood flood-opacity="0" result="BackgroundImageFix"/>
<feColorMatrix in="SourceAlpha" type="matrix" values="0 0 0 0 0 0 0 0 0 0 0 0 0 0 0 0 0 0 127 0" result="hardAlpha"/>
<feOffset dy="4"/>
<feGaussianBlur stdDeviation="10"/>
<feComposite in2="hardAlpha" operator="out"/>
<feColorMatrix type="matrix" values="0 0 0 0 0 0 0 0 0 0 0 0 0 0 0 0 0 0 0.15 0"/>
<feBlend mode="normal" in2="BackgroundImageFix" result="effect1_dropShadow_499_1689"/>
<feBlend mode="normal" in="SourceGraphic" in2="effect1_dropShadow_499_1689" result="shape"/>
</filter>
<radialGradient id="paint0_radial_499_1689" cx="0" cy="0" r="1" gradientUnits="userSpaceOnUse" gradientTransform="translate(19.3745 -0.25) rotate(77.6251) scale(49.288 62.8106)">
<stop stop-color="white" stop-opacity="0.4"/>
<stop offset="1" stop-color="white" stop-opacity="0"/>
</radialGradient>
<linearGradient id="paint1_linear_499_1689" x1="0.5" y1="0" x2="48.7474" y2="21.4433" gradientUnits="userSpaceOnUse">
<stop stop-color="white"/>
<stop offset="0.335851" stop-color="#006FFD"/>
<stop offset="0.62839" stop-color="#006FFD"/>
<stop offset="1" stop-color="white"/>
</linearGradient>
<clipPath id="clip0_499_1689">
<rect x="0.5" width="40" height="40" rx="20" fill="white"/>
</clipPath>
</defs>
</svg>
