<svg width="24" height="24" viewBox="0 0 24 24" fill="none" xmlns="http://www.w3.org/2000/svg">
<path d="M0.386817 7.96476H5.36267V24H0.386817V7.96476ZM2.88353 0C4.48354 0 5.76706 1.28634 5.76706 2.88987C5.76706 4.49339 4.48354 5.77973 2.88353 5.77973C1.28352 5.77973 0 4.47577 0 2.88987C0 1.30396 1.28352 0 2.88353 0Z" fill="white"/>
<path d="M8.49224 7.96291H13.2571V10.1479H13.3274C13.9956 8.8792 15.6131 7.55762 18.0395 7.55762C23.0681 7.55762 24 10.8704 24 15.1876V23.9805H19.0242V16.192C19.0242 14.3241 18.989 11.9453 16.4395 11.9453C13.8901 11.9453 13.4505 13.9717 13.4505 16.0686V23.9981H8.47467V7.96291H8.49224Z" fill="white"/>
</svg>
