<svg width="80" height="80" viewBox="0 0 80 80" fill="none" xmlns="http://www.w3.org/2000/svg">
<g clip-path="url(#clip0_453_957)">
<path d="M0 0V80H80V0H0Z" fill="#0D1A9A"/>
<g clip-path="url(#clip1_453_957)">
<path fill-rule="evenodd" clip-rule="evenodd" d="M57.132 48.7416H66.9305V56.3449H57.132V48.7416ZM54.1363 35.9023H69.9262V43.5687H54.1363V35.9023ZM46.2107 23.0637H62V30.7294H46.2107V23.0637ZM12.6967 19.2617H26.3024V26.8656H12.6967V19.2617ZM17.5647 32.101H31.1697V39.7043H17.5647V32.101ZM12.6967 44.8772H26.3024V52.5429H12.6967V44.8772Z" fill="white" fill-opacity="0.1"/>
<path fill-rule="evenodd" clip-rule="evenodd" d="M41.1394 49.6763H41.4829C45.7308 49.6763 49.2064 53.1472 49.2064 57.3887V63.3877H33.4165V57.3887C33.4165 53.1472 36.8921 49.6763 41.1394 49.6763Z" fill="white" fill-opacity="0.1"/>
<path d="M41.2802 49.6136C44.4856 49.6136 47.0841 47.0187 47.0841 43.8177C47.0841 40.6167 44.4856 38.0217 41.2802 38.0217C38.0748 38.0217 35.4764 40.6167 35.4764 43.8177C35.4764 47.0187 38.0748 49.6136 41.2802 49.6136Z" fill="white" fill-opacity="0.1"/>
<path d="M30.7021 35.1412L45.7835 26.1323L46.6884 27.6438L31.6076 36.6528L30.7021 35.1412ZM54.6146 29.9752L62.5099 35.162L61.5425 36.632L53.6472 31.4445L54.6146 29.9752ZM64.0469 43.7308L62.8831 48.9175L61.1629 48.5379L62.3261 43.3511L64.0469 43.7308ZM18.8488 44.3021L23.7237 39.1147L25.0087 40.3229L20.1338 45.5097L18.8488 44.3021ZM23.7237 32.6786L18.8488 27.4919L20.1338 26.2842L25.0087 31.471L23.7237 32.6786ZM57.1253 47.8442H66.9207C67.4095 47.8442 67.8054 48.2403 67.8054 48.7277V56.372C67.8054 56.8595 67.4095 57.2549 66.9207 57.2549H57.1253C56.6366 57.2549 56.2406 56.8595 56.2406 56.372V48.7277C56.2406 48.2403 56.6366 47.8442 57.1253 47.8442ZM66.0366 49.6112H58.0094V55.4885H66.0366V49.6112ZM54.1309 35.0138H69.9208C70.4096 35.0138 70.8055 35.4092 70.8055 35.8967V43.5409C70.8055 44.0284 70.4096 44.4244 69.9208 44.4244H54.1309C53.6421 44.4244 53.2462 44.0284 53.2462 43.5409V35.8967C53.2462 35.4092 53.6421 35.0138 54.1309 35.0138ZM69.0361 36.7801H55.0156V42.6575H69.0361V36.7801ZM46.2356 22.1827H62.0262C62.5143 22.1827 62.9102 22.5781 62.9102 23.0656V30.7099C62.9102 31.198 62.5143 31.5934 62.0262 31.5934H46.2356C45.7475 31.5934 45.3516 31.198 45.3516 30.7099V23.0656C45.3516 22.5781 45.7475 22.1827 46.2356 22.1827ZM61.1415 23.9491H47.1203V29.8264H61.1415V23.9491ZM12.7027 18.3606H26.2799C26.7687 18.3606 27.1646 18.756 27.1646 19.2441V26.8877C27.1646 27.3758 26.7687 27.7712 26.2799 27.7712H12.7027C12.2139 27.7712 11.818 27.3758 11.818 26.8877V19.2441C11.818 18.756 12.2139 18.3606 12.7027 18.3606ZM25.3952 20.1276H13.5873V26.0042H25.3952V20.1276ZM17.5776 31.1917H31.1548C31.6436 31.1917 32.0395 31.5871 32.0395 32.0752V39.7188C32.0395 40.2069 31.6436 40.6023 31.1548 40.6023H17.5776C17.0888 40.6023 16.6929 40.2069 16.6929 39.7188V32.0752C16.6929 31.5871 17.0888 31.1917 17.5776 31.1917ZM30.2702 32.958H18.4623V38.8353H30.2702V32.958ZM12.7027 44.0227H26.2799C26.7687 44.0227 27.1646 44.4181 27.1646 44.9056V52.5499C27.1646 53.0373 26.7687 53.4334 26.2799 53.4334H12.7027C12.2139 53.4334 11.818 53.0373 11.818 52.5499V44.9056C11.818 44.4181 12.2139 44.0227 12.7027 44.0227ZM25.3952 45.7891H13.5873V51.6664H25.3952V45.7891ZM41.4604 50.5212H41.1498C39.2655 50.5212 37.5516 51.2918 36.3089 52.5328C35.0662 53.7739 34.2945 55.4854 34.2945 57.3671V62.4953H48.3157V57.3671C48.3157 55.4854 47.544 53.7739 46.3013 52.5328C45.0586 51.2918 43.3447 50.5212 41.4604 50.5212ZM44.9045 49.475C45.8978 49.9101 46.7945 50.5275 47.5522 51.2836C49.1151 52.8444 50.0851 54.9979 50.0851 57.3671V63.3787C50.0851 63.8662 49.6885 64.2622 49.2004 64.2622H33.4105C32.9217 64.2622 32.5258 63.8662 32.5258 63.3787V57.3671C32.5258 54.9979 33.4957 52.8444 35.0586 51.2836C35.8157 50.5275 36.7124 49.9101 37.7057 49.475C37.2927 49.212 36.9107 48.9049 36.5659 48.5606C35.3529 47.3492 34.6027 45.6756 34.6027 43.8272C34.6027 41.9795 35.3529 40.3059 36.5659 39.0945C37.779 37.8831 39.4543 37.1339 41.3051 37.1339C43.1559 37.1339 44.8319 37.8831 46.0449 39.0945C47.258 40.3059 48.0082 41.9795 48.0082 43.8272C48.0082 45.6756 47.258 47.3492 46.0449 48.5606C45.7001 48.9049 45.3175 49.212 44.9045 49.475ZM41.3051 48.7542C42.6678 48.7542 43.9011 48.2031 44.794 47.3114C45.6869 46.4197 46.2388 45.1881 46.2388 43.8272C46.2388 42.467 45.6869 41.2348 44.794 40.3431C43.9011 39.4521 42.6678 38.9003 41.3051 38.9003C39.943 38.9003 38.7091 39.4521 37.8162 40.3431C36.924 41.2348 36.3714 42.467 36.3714 43.8272C36.3714 45.1881 36.924 46.4197 37.8162 47.3114C38.7091 48.2031 39.943 48.7542 41.3051 48.7542Z" fill="white"/>
</g>
</g>
<defs>
<clipPath id="clip0_453_957">
<rect width="80" height="80" rx="40" fill="white"/>
</clipPath>
<clipPath id="clip1_453_957">
<rect width="59.0164" height="45.9016" fill="white" transform="translate(11.8033 18.3606)"/>
</clipPath>
</defs>
</svg>
