<svg width="51" height="50" viewBox="0 0 51 50" fill="none" xmlns="http://www.w3.org/2000/svg">
<g clip-path="url(#clip0_433_4286)">
<rect x="0.5" width="50" height="50" rx="25" fill="url(#paint0_radial_433_4286)" fill-opacity="0.2"/>
<rect x="0.5" width="50" height="50" rx="25" fill="#4CBC0B" fill-opacity="0.1"/>
<g filter="url(#filter0_f_433_4286)">
<rect x="11.5" y="13" width="24" height="23" rx="11.5" fill="#34C21C"/>
</g>
<g filter="url(#filter1_d_433_4286)">
<path d="M12.2161 24.0386L12.216 24.0385C11.6854 24.2549 11.2865 24.4668 11.0154 24.6732C10.7424 24.8811 10.6122 25.0733 10.5909 25.2472L10.5059 25.2368L10.5909 25.2472C10.5693 25.4238 10.6143 25.5665 10.7139 25.692C10.8161 25.8208 10.9785 25.9348 11.1963 26.0429C11.5285 26.2079 11.9673 26.3494 12.4711 26.5119C12.6313 26.5635 12.7981 26.6173 12.9701 26.6746L12.943 26.7559L12.9701 26.6746C13.5446 26.8661 14.2177 27.0737 14.847 27.2355C15.4783 27.3978 16.0586 27.5122 16.4506 27.5209C17.1555 27.5365 17.9528 27.2384 18.8451 26.6102L18.8456 26.6098C21.917 24.4839 24.2457 22.8836 25.8315 21.8089C26.6244 21.2716 27.2319 20.8654 27.6538 20.5905C27.8647 20.4532 28.0297 20.3482 28.1486 20.276C28.208 20.24 28.2567 20.2116 28.2941 20.1913C28.3276 20.1732 28.3619 20.1559 28.3876 20.1499C28.4573 20.1337 28.5503 20.1128 28.6444 20.1136C28.74 20.1144 28.8449 20.1374 28.9316 20.2164C29.0183 20.2954 29.053 20.4049 29.0659 20.494C29.0788 20.5834 29.0719 20.6662 29.0624 20.7077C29.0624 20.7077 29.0624 20.7077 29.0624 20.7077L12.2161 24.0386ZM12.2161 24.0386L12.2186 24.0374M12.2161 24.0386L12.2186 24.0374M12.2186 24.0374C18.7932 21.1004 23.1766 19.1644 25.3693 18.2293M12.2186 24.0374L25.3693 18.2293M30.8846 35.8012L30.8765 35.7159C31.4167 35.665 32.0266 35.1412 32.3415 33.4151C33.0887 29.3195 34.5566 20.4498 34.8956 16.7976C34.9176 16.5612 34.9275 16.2686 34.884 15.9962C34.8403 15.7222 34.7446 15.4823 34.5675 15.3349L34.6222 15.2691L34.5675 15.3349C34.446 15.2338 34.2878 15.17 34.1336 15.1322C33.9798 15.0945 33.8363 15.0842 33.7499 15.0858L30.8846 35.8012ZM30.8846 35.8012L30.8765 35.7159C30.2476 35.7753 29.6905 35.5633 29.127 35.2239M30.8846 35.8012L29.127 35.2239M25.3693 18.2293C28.5011 16.8937 30.3904 16.1107 31.6025 15.6597M25.3693 18.2293L31.6025 15.6597M31.6025 15.6597C32.816 15.2082 33.3416 15.0932 33.7499 15.0858L31.6025 15.6597ZM29.127 35.2239C28.8451 35.0541 28.5636 34.8536 28.2716 34.6409M29.127 35.2239L28.2716 34.6409M28.2716 34.6409C28.2229 34.6055 28.1739 34.5697 28.1246 34.5336M28.2716 34.6409L28.1246 34.5336M28.1246 34.5336C27.879 34.3541 27.6253 34.1686 27.3597 33.9901M28.1246 34.5336L27.3597 33.9901M27.3597 33.9901C26.3679 33.3235 25.5919 32.7827 24.8227 32.2457M27.3597 33.9901L24.8227 32.2457M24.8227 32.2457L24.7224 32.1756M24.8227 32.2457L24.7224 32.1756M24.7224 32.1756C23.9868 31.662 23.249 31.1468 22.3269 30.5238M24.7224 32.1756L22.3269 30.5238M22.3269 30.5238C21.7749 30.1508 21.4617 29.827 21.3134 29.5358M22.3269 30.5238L21.3134 29.5358M21.3134 29.5358C21.1681 29.2505 21.1781 28.9907 21.2898 28.7297M21.3134 29.5358L21.2898 28.7297M21.2898 28.7297C21.4038 28.4631 21.624 28.1956 21.9022 27.9053M21.2898 28.7297L21.9022 27.9053M21.9022 27.9053C22.0248 27.7774 22.157 27.6467 22.2947 27.5106M21.9022 27.9053L22.2947 27.5106M22.2947 27.5106C22.3125 27.493 22.3304 27.4753 22.3484 27.4575M22.2947 27.5106L22.3484 27.4575M22.3484 27.4575C22.505 27.3025 22.6674 27.1408 22.8272 26.9707L22.3484 27.4575Z" fill="white" stroke="url(#paint1_linear_433_4286)" stroke-width="0.171268"/>
</g>
</g>
<rect x="1" y="0.5" width="49" height="49" rx="24.5" stroke="url(#paint2_linear_433_4286)"/>
<defs>
<filter id="filter0_f_433_4286" x="-8.5" y="-7" width="64" height="63" filterUnits="userSpaceOnUse" color-interpolation-filters="sRGB">
<feFlood flood-opacity="0" result="BackgroundImageFix"/>
<feBlend mode="normal" in="SourceGraphic" in2="BackgroundImageFix" result="shape"/>
<feGaussianBlur stdDeviation="10" result="effect1_foregroundBlur_433_4286"/>
</filter>
<filter id="filter1_d_433_4286" x="-9.5" y="-1" width="64.5" height="60.8115" filterUnits="userSpaceOnUse" color-interpolation-filters="sRGB">
<feFlood flood-opacity="0" result="BackgroundImageFix"/>
<feColorMatrix in="SourceAlpha" type="matrix" values="0 0 0 0 0 0 0 0 0 0 0 0 0 0 0 0 0 0 127 0" result="hardAlpha"/>
<feOffset dy="4"/>
<feGaussianBlur stdDeviation="10"/>
<feComposite in2="hardAlpha" operator="out"/>
<feColorMatrix type="matrix" values="0 0 0 0 0 0 0 0 0 0 0 0 0 0 0 0 0 0 0.15 0"/>
<feBlend mode="normal" in2="BackgroundImageFix" result="effect1_dropShadow_433_4286"/>
<feBlend mode="normal" in="SourceGraphic" in2="effect1_dropShadow_433_4286" result="shape"/>
</filter>
<radialGradient id="paint0_radial_433_4286" cx="0" cy="0" r="1" gradientUnits="userSpaceOnUse" gradientTransform="translate(24.0931 -0.3125) rotate(77.6251) scale(61.61 78.5133)">
<stop stop-color="white" stop-opacity="0.4"/>
<stop offset="1" stop-color="white" stop-opacity="0"/>
</radialGradient>
<linearGradient id="paint1_linear_433_4286" x1="15.5256" y1="33.9438" x2="26.7837" y2="15.3892" gradientUnits="userSpaceOnUse">
<stop stop-color="white" stop-opacity="0.25"/>
<stop offset="1" stop-color="white" stop-opacity="0"/>
</linearGradient>
<linearGradient id="paint2_linear_433_4286" x1="0.5" y1="0" x2="60.8093" y2="26.8041" gradientUnits="userSpaceOnUse">
<stop stop-color="white"/>
<stop offset="0.335851" stop-color="#006FFD"/>
<stop offset="0.62839" stop-color="#006FFD"/>
<stop offset="1" stop-color="white"/>
</linearGradient>
<clipPath id="clip0_433_4286">
<rect x="0.5" width="50" height="50" rx="25" fill="white"/>
</clipPath>
</defs>
</svg>
