<svg width="50" height="50" viewBox="0 0 50 50" fill="none" xmlns="http://www.w3.org/2000/svg">
<g clip-path="url(#clip0_644_1971)">
<rect width="50" height="50" rx="25" fill="url(#paint0_radial_644_1971)" fill-opacity="0.2"/>
<rect width="50" height="50" rx="25" fill="#4CBC0B" fill-opacity="0.1"/>
<g filter="url(#filter0_f_644_1971)">
<circle cx="26.5" cy="25.5" r="12.5" fill="#34C21C"/>
</g>
<g clip-path="url(#clip1_644_1971)">
<path d="M21.4169 28.1809L21.0199 33.7649C21.5879 33.7649 21.8339 33.5209 22.1289 33.2279L24.7919 30.6829L30.3099 34.7239C31.3219 35.2879 32.0349 34.9909 32.3079 33.7929L35.9299 16.8209L35.9309 16.8199C36.2519 15.3239 35.3899 14.7389 34.4039 15.1059L13.1139 23.2569C11.6609 23.8209 11.6829 24.6309 12.8669 24.9979L18.3099 26.6909L30.9529 18.7799C31.5479 18.3859 32.0889 18.6039 31.6439 18.9979L21.4169 28.1809Z" fill="white"/>
</g>
</g>
<rect x="0.5" y="0.5" width="49" height="49" rx="24.5" stroke="url(#paint1_linear_644_1971)"/>
<defs>
<filter id="filter0_f_644_1971" x="-6" y="-7" width="65" height="65" filterUnits="userSpaceOnUse" color-interpolation-filters="sRGB">
<feFlood flood-opacity="0" result="BackgroundImageFix"/>
<feBlend mode="normal" in="SourceGraphic" in2="BackgroundImageFix" result="shape"/>
<feGaussianBlur stdDeviation="10" result="effect1_foregroundBlur_644_1971"/>
</filter>
<radialGradient id="paint0_radial_644_1971" cx="0" cy="0" r="1" gradientUnits="userSpaceOnUse" gradientTransform="translate(23.5931 -0.3125) rotate(77.6251) scale(61.61 78.5133)">
<stop stop-color="white" stop-opacity="0.4"/>
<stop offset="1" stop-color="white" stop-opacity="0"/>
</radialGradient>
<linearGradient id="paint1_linear_644_1971" x1="0" y1="0" x2="60.3093" y2="26.8041" gradientUnits="userSpaceOnUse">
<stop stop-color="white"/>
<stop offset="0.335851" stop-color="#006FFD"/>
<stop offset="0.62839" stop-color="#006FFD"/>
<stop offset="1" stop-color="white"/>
</linearGradient>
<clipPath id="clip0_644_1971">
<rect width="50" height="50" rx="25" fill="white"/>
</clipPath>
<clipPath id="clip1_644_1971">
<rect width="24" height="24" fill="white" transform="translate(12 13)"/>
</clipPath>
</defs>
</svg>
