<svg width="51" height="50" viewBox="0 0 51 50" fill="none" xmlns="http://www.w3.org/2000/svg">
<g id="icon" filter="url(#filter0_d_631_141)">
<path id="Path-3" d="M13.2161 24.0386L13.216 24.0385C12.6854 24.2549 12.2865 24.4668 12.0154 24.6732C11.7424 24.8811 11.6122 25.0733 11.5909 25.2472L11.5059 25.2368L11.5909 25.2472C11.5693 25.4238 11.6143 25.5665 11.7139 25.692C11.8161 25.8208 11.9785 25.9348 12.1963 26.0429C12.5285 26.2079 12.9673 26.3494 13.4711 26.5119C13.6313 26.5635 13.7981 26.6173 13.9701 26.6746L13.943 26.7559L13.9701 26.6746C14.5446 26.8661 15.2177 27.0737 15.847 27.2355C16.4783 27.3978 17.0586 27.5122 17.4506 27.5209C18.1555 27.5365 18.9528 27.2384 19.8451 26.6102L19.8456 26.6098C22.917 24.4839 25.2457 22.8836 26.8315 21.8089C27.6244 21.2716 28.2319 20.8654 28.6538 20.5905C28.8647 20.4532 29.0297 20.3482 29.1486 20.276C29.208 20.24 29.2567 20.2116 29.2941 20.1913C29.3276 20.1732 29.3619 20.1559 29.3876 20.1499C29.4573 20.1337 29.5503 20.1128 29.6444 20.1136C29.74 20.1144 29.8449 20.1374 29.9316 20.2164C30.0183 20.2954 30.053 20.4049 30.0659 20.494C30.0788 20.5834 30.0719 20.6662 30.0624 20.7077C30.0624 20.7077 30.0624 20.7077 30.0624 20.7077L13.2161 24.0386ZM13.2161 24.0386L13.2186 24.0374M13.2161 24.0386L13.2186 24.0374M13.2186 24.0374C19.7932 21.1004 24.1766 19.1644 26.3693 18.2293M13.2186 24.0374L26.3693 18.2293M31.8846 35.8012L31.8765 35.7159C32.4167 35.665 33.0266 35.1412 33.3415 33.4151C34.0887 29.3195 35.5566 20.4498 35.8956 16.7976C35.9176 16.5612 35.9275 16.2686 35.884 15.9962C35.8403 15.7222 35.7446 15.4823 35.5675 15.3349L35.6222 15.2691L35.5675 15.3349C35.446 15.2338 35.2878 15.17 35.1336 15.1322C34.9798 15.0945 34.8363 15.0842 34.7499 15.0858L31.8846 35.8012ZM31.8846 35.8012L31.8765 35.7159C31.2476 35.7753 30.6905 35.5633 30.127 35.2239M31.8846 35.8012L30.127 35.2239M26.3693 18.2293C29.5011 16.8937 31.3904 16.1107 32.6025 15.6597M26.3693 18.2293L32.6025 15.6597M32.6025 15.6597C33.816 15.2082 34.3416 15.0932 34.7499 15.0858L32.6025 15.6597ZM30.127 35.2239C29.8451 35.0541 29.5636 34.8536 29.2716 34.6409M30.127 35.2239L29.2716 34.6409M29.2716 34.6409C29.2229 34.6055 29.1739 34.5697 29.1246 34.5336M29.2716 34.6409L29.1246 34.5336M29.1246 34.5336C28.879 34.3541 28.6253 34.1686 28.3597 33.9901M29.1246 34.5336L28.3597 33.9901M28.3597 33.9901C27.3679 33.3235 26.5919 32.7827 25.8227 32.2457M28.3597 33.9901L25.8227 32.2457M25.8227 32.2457L25.7224 32.1756M25.8227 32.2457L25.7224 32.1756M25.7224 32.1756C24.9868 31.662 24.249 31.1468 23.3269 30.5238M25.7224 32.1756L23.3269 30.5238M23.3269 30.5238C22.7749 30.1508 22.4617 29.827 22.3134 29.5358M23.3269 30.5238L22.3134 29.5358M22.3134 29.5358C22.1681 29.2505 22.1781 28.9907 22.2898 28.7297M22.3134 29.5358L22.2898 28.7297M22.2898 28.7297C22.4038 28.4631 22.624 28.1956 22.9022 27.9053M22.2898 28.7297L22.9022 27.9053M22.9022 27.9053C23.0248 27.7774 23.157 27.6467 23.2947 27.5106M22.9022 27.9053L23.2947 27.5106M23.2947 27.5106C23.3125 27.493 23.3304 27.4753 23.3484 27.4575M23.2947 27.5106L23.3484 27.4575M23.3484 27.4575C23.505 27.3025 23.6674 27.1408 23.8272 26.9707L23.3484 27.4575Z" fill="white" stroke="url(#paint0_linear_631_141)" stroke-width="0.171268"/>
</g>
<defs>
<filter id="filter0_d_631_141" x="-8.5" y="-1" width="64.5" height="60.8115" filterUnits="userSpaceOnUse" color-interpolation-filters="sRGB">
<feFlood flood-opacity="0" result="BackgroundImageFix"/>
<feColorMatrix in="SourceAlpha" type="matrix" values="0 0 0 0 0 0 0 0 0 0 0 0 0 0 0 0 0 0 127 0" result="hardAlpha"/>
<feOffset dy="4"/>
<feGaussianBlur stdDeviation="10"/>
<feComposite in2="hardAlpha" operator="out"/>
<feColorMatrix type="matrix" values="0 0 0 0 0 0 0 0 0 0 0 0 0 0 0 0 0 0 0.15 0"/>
<feBlend mode="normal" in2="BackgroundImageFix" result="effect1_dropShadow_631_141"/>
<feBlend mode="normal" in="SourceGraphic" in2="effect1_dropShadow_631_141" result="shape"/>
</filter>
<linearGradient id="paint0_linear_631_141" x1="16.5256" y1="33.9438" x2="27.7837" y2="15.3892" gradientUnits="userSpaceOnUse">
<stop stop-color="white" stop-opacity="0.25"/>
<stop offset="1" stop-color="white" stop-opacity="0"/>
</linearGradient>
</defs>
</svg>
