<svg width="50" height="50" viewBox="0 0 50 50" fill="none" xmlns="http://www.w3.org/2000/svg">
<g clip-path="url(#clip0_433_4289)">
<rect width="50" height="50" rx="25" fill="url(#paint0_radial_433_4289)" fill-opacity="0.2"/>
<rect width="50" height="50" rx="25" fill="#4CBC0B" fill-opacity="0.1"/>
<g filter="url(#filter0_f_433_4289)">
<rect x="13" y="14" width="24" height="23" rx="11.5" fill="#34C21C"/>
</g>
<path d="M33.5344 16.53C31.5204 14.512 28.8458 13.2744 25.993 13.0405C23.1402 12.8066 20.297 13.5917 17.9763 15.2543C15.6557 16.9169 14.0102 19.3475 13.3369 22.1076C12.6635 24.8678 13.0065 27.7758 14.304 30.3071L13.0304 36.4417C13.0171 36.5028 13.0168 36.5659 13.0293 36.6271C13.0417 36.6883 13.0668 36.7463 13.1029 36.7974C13.1558 36.8751 13.2314 36.9348 13.3194 36.9688C13.4075 37.0027 13.5038 37.0092 13.5957 36.9873L19.6561 35.5622C22.2005 36.8169 25.111 37.1353 27.8698 36.4608C30.6287 35.7863 33.0568 34.1627 34.7222 31.8788C36.3876 29.5949 37.1823 26.7989 36.9648 23.9884C36.7473 21.1778 35.5317 18.5349 33.5344 16.53ZM31.6448 31.4922C30.2513 32.8707 28.4569 33.7808 26.5144 34.094C24.572 34.4072 22.5794 34.1078 20.8175 33.238L19.9728 32.8234L16.2574 33.6963L16.2684 33.6505L17.0383 29.9405L16.6248 29.1309C15.7245 27.3769 15.407 25.3852 15.7176 23.4411C16.0282 21.4971 16.951 19.7005 18.3538 18.3086C20.1165 16.5604 22.5069 15.5784 24.9993 15.5784C27.4917 15.5784 29.8821 16.5604 31.6448 18.3086C31.6598 18.3257 31.676 18.3417 31.6932 18.3566C33.4341 20.1093 34.4059 22.4737 34.3968 24.9343C34.3877 27.3949 33.3985 29.7521 31.6448 31.4922Z" fill="white"/>
<path d="M31.3148 28.7711C30.8595 29.4826 30.1402 30.3533 29.2361 30.5694C27.6522 30.9491 25.2215 30.5825 22.1968 27.7847L22.1594 27.752C19.4999 25.3056 18.8091 23.2694 18.9763 21.6545C19.0687 20.7379 19.8386 19.9086 20.4876 19.3674C20.5902 19.2805 20.7118 19.2187 20.8428 19.1868C20.9738 19.1549 21.1105 19.1539 21.242 19.1838C21.3734 19.2137 21.496 19.2737 21.6 19.359C21.7039 19.4443 21.7862 19.5526 21.8404 19.6751L22.8193 21.8575C22.8829 21.999 22.9065 22.155 22.8875 22.3088C22.8685 22.4626 22.8077 22.6083 22.7115 22.7304L22.2166 23.3676C22.1104 23.4992 22.0463 23.6593 22.0326 23.8273C22.0188 23.9953 22.0561 24.1636 22.1396 24.3104C22.4168 24.7927 23.0811 25.502 23.818 26.1589C24.6451 26.9009 25.5624 27.5796 26.1432 27.8109C26.2986 27.8739 26.4694 27.8892 26.6337 27.855C26.798 27.8208 26.9482 27.7385 27.0649 27.6188L27.639 27.0449C27.7498 26.9365 27.8876 26.8592 28.0383 26.8209C28.189 26.7825 28.3472 26.7845 28.4969 26.8267L30.8221 27.4814C30.9503 27.5204 31.0679 27.588 31.1658 27.679C31.2637 27.7701 31.3393 27.8821 31.3868 28.0065C31.4344 28.131 31.4526 28.2646 31.4401 28.3971C31.4277 28.5296 31.3848 28.6576 31.3148 28.7711Z" fill="white"/>
</g>
<rect x="0.5" y="0.5" width="49" height="49" rx="24.5" stroke="url(#paint1_linear_433_4289)"/>
<defs>
<filter id="filter0_f_433_4289" x="-7" y="-6" width="64" height="63" filterUnits="userSpaceOnUse" color-interpolation-filters="sRGB">
<feFlood flood-opacity="0" result="BackgroundImageFix"/>
<feBlend mode="normal" in="SourceGraphic" in2="BackgroundImageFix" result="shape"/>
<feGaussianBlur stdDeviation="10" result="effect1_foregroundBlur_433_4289"/>
</filter>
<radialGradient id="paint0_radial_433_4289" cx="0" cy="0" r="1" gradientUnits="userSpaceOnUse" gradientTransform="translate(23.5931 -0.3125) rotate(77.6251) scale(61.61 78.5133)">
<stop stop-color="white" stop-opacity="0.4"/>
<stop offset="1" stop-color="white" stop-opacity="0"/>
</radialGradient>
<linearGradient id="paint1_linear_433_4289" x1="0" y1="0" x2="60.3093" y2="26.8041" gradientUnits="userSpaceOnUse">
<stop stop-color="white"/>
<stop offset="0.335851" stop-color="#006FFD"/>
<stop offset="0.62839" stop-color="#006FFD"/>
<stop offset="1" stop-color="white"/>
</linearGradient>
<clipPath id="clip0_433_4289">
<rect width="50" height="50" rx="25" fill="white"/>
</clipPath>
</defs>
</svg>
