<svg width="24" height="24" viewBox="0 0 24 24" fill="none" xmlns="http://www.w3.org/2000/svg">
<path d="M20.5344 3.53001C18.5204 1.51199 15.8458 0.274407 12.993 0.0404876C10.1402 -0.193431 7.29701 0.591713 4.97634 2.2543C2.65567 3.91689 1.01025 6.34747 0.336877 9.10762C-0.336495 11.8678 0.00650905 14.7758 1.30402 17.3071L0.0303509 23.4417C0.0171352 23.5028 0.0167609 23.5659 0.0292516 23.6271C0.0417423 23.6883 0.0668289 23.7463 0.102943 23.7974C0.155847 23.8751 0.231365 23.9348 0.319412 23.9688C0.407458 24.0027 0.503842 24.0092 0.595692 23.9873L6.65606 22.5622C9.20046 23.8169 12.111 24.1353 14.8698 23.4608C17.6287 22.7863 20.0568 21.1627 21.7222 18.8788C23.3876 16.5949 24.1823 13.7989 23.9648 10.9884C23.7473 8.17779 22.5317 5.53491 20.5344 3.53001ZM18.6448 18.4922C17.2513 19.8707 15.4569 20.7808 13.5144 21.094C11.572 21.4072 9.57941 21.1078 7.81754 20.238L6.97283 19.8234L3.25742 20.6963L3.26842 20.6505L4.03834 16.9405L3.62478 16.1309C2.72454 14.3769 2.40697 12.3852 2.71756 10.4411C3.02815 8.49712 3.95096 6.70049 5.3538 5.30862C7.11649 3.56044 9.50688 2.57836 11.9993 2.57836C14.4917 2.57836 16.8821 3.56044 18.6448 5.30862C18.6598 5.3257 18.676 5.34174 18.6932 5.35663C20.4341 7.10932 21.4059 9.47369 21.3968 11.9343C21.3877 14.3949 20.3985 16.7521 18.6448 18.4922Z" fill="white"/>
<path d="M18.3148 15.7711C17.8595 16.4826 17.1402 17.3533 16.2361 17.5694C14.6522 17.9491 12.2215 17.5825 9.19678 14.7847L9.15938 14.752C6.49986 12.3056 5.80913 10.2694 5.97631 8.6545C6.0687 7.73792 6.83862 6.90863 7.48756 6.36741C7.59015 6.28054 7.71181 6.21869 7.84281 6.18681C7.97381 6.15493 8.1105 6.1539 8.24197 6.1838C8.37344 6.2137 8.49604 6.27371 8.59995 6.35902C8.70386 6.44433 8.78621 6.55258 8.84042 6.67512L9.81931 8.85746C9.88293 8.99896 9.9065 9.15498 9.88751 9.30877C9.86852 9.46255 9.80768 9.60831 9.71153 9.7304L9.21658 10.3676C9.11038 10.4992 9.04629 10.6593 9.03257 10.8273C9.01885 10.9953 9.05612 11.1636 9.13959 11.3104C9.41676 11.7927 10.0811 12.502 10.818 13.1589C11.6451 13.9009 12.5624 14.5796 13.1432 14.8109C13.2986 14.8739 13.4694 14.8892 13.6337 14.855C13.798 14.8208 13.9482 14.7385 14.0649 14.6188L14.639 14.0449C14.7498 13.9365 14.8876 13.8592 15.0383 13.8209C15.189 13.7825 15.3472 13.7845 15.4969 13.8267L17.8221 14.4814C17.9503 14.5204 18.0679 14.588 18.1658 14.679C18.2637 14.7701 18.3393 14.8821 18.3868 15.0065C18.4344 15.131 18.4526 15.2646 18.4401 15.3971C18.4277 15.5296 18.3848 15.6576 18.3148 15.7711Z" fill="white"/>
</svg>
