<svg width="30" height="30" viewBox="0 0 30 30" fill="none" xmlns="http://www.w3.org/2000/svg">
<path d="M15 27C8.38352 27 3.00002 21.6165 3.00002 15C3.00002 8.38352 8.38352 3.00002 15 3.00002C21.6165 3.00002 27 8.38352 27 15C27 21.6165 21.6165 27 15 27ZM15 30C23.2845 30 30 23.2838 30 15C30 6.71627 23.2845 2.28882e-05 15 2.28882e-05C6.71552 2.28882e-05 2.28882e-05 6.71627 2.28882e-05 15C2.28882e-05 23.2838 6.71552 30 15 30Z" fill="white"/>
<path d="M23.25 15L15.75 21L15.75 9.00001L23.25 15Z" fill="white"/>
<path d="M18 16.5H6.75001V13.5L18 13.5V16.5Z" fill="white"/>
</svg>
