<svg width="48" height="48" viewBox="0 0 48 48" fill="none" xmlns="http://www.w3.org/2000/svg">
<path d="M11.25 29.2505C12.0723 29.2516 12.8905 29.1354 13.68 28.9055L13.2075 28.433C12.7861 28.0111 12.5495 27.4392 12.5495 26.843C12.5495 26.2467 12.7861 25.6748 13.2075 25.253L17.445 21.0005C17.6883 20.7597 17.9832 20.5775 18.3075 20.468C17.7981 18.9092 16.8725 17.5192 15.6306 16.4482C14.3888 15.3772 12.8779 14.6658 11.2612 14.391C9.64448 14.1161 7.98341 14.2882 6.45739 14.8887C4.93137 15.4891 3.59841 16.4951 2.6025 17.798C2.37009 18.5948 2.25142 19.4204 2.25 20.2505C2.25 22.6374 3.19821 24.9266 4.88604 26.6144C6.57387 28.3022 8.86305 29.2505 11.25 29.2505Z" fill="#34C21C"/>
<path d="M35.9999 15.75C34.561 15.7501 33.1525 16.164 31.9424 16.9425C32.8086 15.6011 34.0803 14.5711 35.5724 14.0025C34.7538 12.1682 33.5362 10.5396 32.0084 9.23553C30.4805 7.93147 28.6809 6.98481 26.7407 6.46456C24.8005 5.9443 22.7687 5.86357 20.7933 6.22824C18.818 6.59292 16.9489 7.3938 15.3224 8.57252C14.6412 9.49582 14.084 10.5044 13.6649 11.5725C15.5601 12.1004 17.2301 13.2347 18.4193 14.8019C19.6086 16.3691 20.2516 18.2827 20.2499 20.25C20.2499 20.4 20.2499 20.55 20.2499 20.6925C20.3909 20.7863 20.5239 20.8916 20.6474 21.0075L21.7049 22.065L19.0724 24.6975C18.8778 25.0444 18.6598 25.3777 18.4199 25.695C18.4649 25.545 18.4949 25.395 18.5324 25.2375L17.9924 25.7775L21.2249 29.01C21.7137 29.2135 22.2147 29.3863 22.7249 29.5275L25.9424 26.31L26.9999 27.3675C27.3299 27.7003 27.5477 28.1277 27.623 28.5903C27.6983 29.0528 27.6273 29.5273 27.4199 29.9475C29.9027 29.7353 32.2768 28.8339 34.2749 27.345C35.4804 28.1025 36.8766 28.5013 38.3004 28.4946C39.7241 28.488 41.1165 28.0763 42.3149 27.3075C43.044 26.1741 43.4542 24.8651 43.5025 23.5183C43.5507 22.1714 43.2351 20.8365 42.5889 19.6538C41.9426 18.4712 40.9897 17.4845 39.8302 16.7975C38.6708 16.1105 37.3476 15.7487 35.9999 15.75Z" fill="#34C21C"/>
<path d="M34.5 18C34.498 17.7259 34.4729 17.4524 34.425 17.1825L35.925 16.2975L34.425 13.7025L32.925 14.58C32.5023 14.225 32.0198 13.9481 31.5 13.7625V12H28.5V13.7625C27.9801 13.9481 27.4976 14.225 27.075 14.58L25.575 13.7025L24.075 16.2975L25.575 17.1825C25.4751 17.7229 25.4751 18.2771 25.575 18.8175L24.075 19.7025L25.575 22.2975L27.075 21.42C27.4976 21.775 27.9801 22.0519 28.5 22.2375V24H31.5V22.2375C32.0198 22.0519 32.5023 21.775 32.925 21.42L34.425 22.2975L35.925 19.7025L34.425 18.8175C34.4729 18.5476 34.498 18.2741 34.5 18ZM30 19.5C29.7033 19.5 29.4133 19.412 29.1666 19.2472C28.9199 19.0824 28.7277 18.8481 28.6141 18.574C28.5006 18.2999 28.4709 17.9983 28.5288 17.7074C28.5867 17.4164 28.7295 17.1491 28.9393 16.9393C29.1491 16.7296 29.4163 16.5867 29.7073 16.5288C29.9983 16.4709 30.2999 16.5006 30.574 16.6142C30.8481 16.7277 31.0823 16.92 31.2472 17.1666C31.412 17.4133 31.5 17.7033 31.5 18C31.5 18.3978 31.3419 18.7794 31.0606 19.0607C30.7793 19.342 30.3978 19.5 30 19.5Z" fill="white"/>
<path d="M26.0099 28.995C25.4527 29.5528 24.7909 29.9954 24.0625 30.2973C23.3342 30.5993 22.5534 30.7547 21.7649 30.7547C20.9764 30.7547 20.1957 30.5993 19.4673 30.2973C18.7389 29.9954 18.0771 29.5528 17.5199 28.995L13.4999 24.96L13.2149 25.2525C12.7936 25.6743 12.5569 26.2462 12.5569 26.8425C12.5569 27.4387 12.7936 28.0106 13.2149 28.4325L19.5749 34.7925C19.9968 35.2138 20.5687 35.4505 21.1649 35.4505C21.7612 35.4505 22.333 35.2138 22.7549 34.7925L26.9999 30.555C27.3587 30.189 27.5819 29.7114 27.6323 29.2013C27.6828 28.6912 27.5576 28.1792 27.2774 27.75L26.0099 28.995Z" fill="url(#paint0_linear_701_188)"/>
<path d="M14.25 29.4902L12.675 31.0802C12.9539 31.3589 13.1752 31.6897 13.3261 32.0539C13.4771 32.4181 13.5548 32.8085 13.5548 33.2027C13.5548 33.597 13.4771 33.9874 13.3261 34.3516C13.1752 34.7157 12.9539 35.0466 12.675 35.3252L7.37246 40.6277C7.09384 40.9067 6.76297 41.1279 6.39878 41.2789C6.03459 41.4299 5.64421 41.5076 5.24996 41.5076C4.85571 41.5076 4.46533 41.4299 4.10114 41.2789C3.73694 41.1279 3.40608 40.9067 3.12746 40.6277C2.56454 41.1907 2.24829 41.9541 2.24829 42.7502C2.24829 43.5463 2.56454 44.3098 3.12746 44.8727C3.69038 45.4357 4.45387 45.7519 5.24996 45.7519C6.04605 45.7519 6.80954 45.4357 7.37246 44.8727L18.51 33.7502L14.25 29.4902Z" fill="url(#paint1_linear_701_188)"/>
<path d="M36.75 41.25V36.75H39L35.25 32.25L31.5 36.75H33.75V41.25" fill="white"/>
<path d="M18.75 15.75C19.5784 15.75 20.25 15.0784 20.25 14.25C20.25 13.4216 19.5784 12.75 18.75 12.75C17.9216 12.75 17.25 13.4216 17.25 14.25C17.25 15.0784 17.9216 15.75 18.75 15.75Z" fill="#A8DBA8"/>
<path d="M36.5925 15.9225L35.0925 13.3275C34.9936 13.156 34.8308 13.0305 34.6397 12.9785C34.4486 12.9265 34.2447 12.9522 34.0725 13.05L33 13.68C32.7626 13.5186 32.5117 13.3781 32.25 13.26V12C32.25 11.8011 32.171 11.6103 32.0304 11.4697C31.8897 11.329 31.6989 11.25 31.5 11.25H28.5C28.3011 11.25 28.1103 11.329 27.9697 11.4697C27.829 11.6103 27.75 11.8011 27.75 12V13.26C27.4883 13.3781 27.2374 13.5186 27 13.68L25.905 13.05C25.7328 12.9522 25.5289 12.9265 25.3378 12.9785C25.1467 13.0305 24.984 13.156 24.885 13.3275L23.385 15.9225C23.3351 16.0077 23.3025 16.1018 23.2891 16.1996C23.2757 16.2974 23.2816 16.3968 23.3067 16.4923C23.3318 16.5878 23.3755 16.6773 23.4353 16.7559C23.495 16.8344 23.5697 16.9004 23.655 16.95L24.7425 17.58C24.7425 17.7225 24.7425 17.8575 24.7425 18C24.7425 18.1425 24.7425 18.2775 24.7425 18.42L23.655 19.05C23.5697 19.0996 23.495 19.1656 23.4353 19.2441C23.3755 19.3227 23.3318 19.4122 23.3067 19.5077C23.2816 19.6032 23.2757 19.7026 23.2891 19.8004C23.3025 19.8982 23.3351 19.9923 23.385 20.0775L24.885 22.6725C24.984 22.844 25.1467 22.9695 25.3378 23.0215C25.5289 23.0735 25.7328 23.0478 25.905 22.95L27 22.32C27.2374 22.4814 27.4883 22.6219 27.75 22.74V24C27.75 24.1989 27.829 24.3897 27.9697 24.5303C28.1103 24.671 28.3011 24.75 28.5 24.75H31.5C31.6989 24.75 31.8897 24.671 32.0304 24.5303C32.171 24.3897 32.25 24.1989 32.25 24V22.74C32.5117 22.6219 32.7626 22.4814 33 22.32L34.095 22.95C34.2672 23.0478 34.4711 23.0735 34.6622 23.0215C34.8533 22.9695 35.0161 22.844 35.115 22.6725L36.615 20.0775C36.6649 19.9923 36.6975 19.8982 36.711 19.8004C36.7244 19.7026 36.7184 19.6032 36.6933 19.5077C36.6682 19.4122 36.6246 19.3227 36.5648 19.2441C36.505 19.1656 36.4303 19.0996 36.345 19.05L35.25 18.42C35.25 18.2775 35.25 18.1425 35.25 18C35.25 17.8575 35.25 17.7225 35.25 17.58L36.3375 16.95C36.5073 16.8473 36.6295 16.6815 36.6773 16.4889C36.7251 16.2963 36.6946 16.0927 36.5925 15.9225ZM33.6825 17.3175C33.7724 17.7681 33.7724 18.2319 33.6825 18.6825C33.6476 18.8402 33.6645 19.0049 33.7307 19.1522C33.7969 19.2995 33.9089 19.4215 34.05 19.5L34.92 20.0025L34.17 21.3075L33.3 20.7975C33.1654 20.7203 33.0101 20.6868 32.8557 20.7016C32.7012 20.7164 32.5551 20.7787 32.4375 20.88C32.0868 21.177 31.6854 21.4082 31.2525 21.5625C31.1062 21.6137 30.9793 21.7089 30.8893 21.8352C30.7993 21.9614 30.7506 22.1125 30.75 22.2675V23.25H29.25V22.2375C29.2494 22.0825 29.2008 21.9314 29.1108 21.8052C29.0208 21.6789 28.8939 21.5837 28.7475 21.5325C28.3147 21.3782 27.9132 21.147 27.5625 20.85C27.445 20.7487 27.2989 20.6864 27.1444 20.6716C26.9899 20.6568 26.8347 20.6903 26.7 20.7675L25.83 21.2775L25.08 19.9725L25.95 19.5C26.0855 19.4231 26.1936 19.306 26.2595 19.1649C26.3253 19.0238 26.3456 18.8657 26.3175 18.7125C26.2276 18.2619 26.2276 17.7981 26.3175 17.3475C26.3596 17.1855 26.3463 17.014 26.2797 16.8605C26.2131 16.7069 26.0971 16.58 25.95 16.5L25.08 15.9975L25.83 14.6925L26.7 15.2025C26.8347 15.2797 26.9899 15.3132 27.1444 15.2984C27.2989 15.2836 27.445 15.2213 27.5625 15.12C27.9132 14.823 28.3147 14.5918 28.7475 14.4375C28.8939 14.3863 29.0208 14.2911 29.1108 14.1648C29.2008 14.0386 29.2494 13.8875 29.25 13.7325V12.75H30.75V13.7625C30.7506 13.9175 30.7993 14.0686 30.8893 14.1948C30.9793 14.3211 31.1062 14.4163 31.2525 14.4675C31.6854 14.6218 32.0868 14.853 32.4375 15.15C32.5551 15.2513 32.7012 15.3136 32.8557 15.3284C33.0101 15.3432 33.1654 15.3097 33.3 15.2325L34.17 14.7225L34.92 16.0275L34.05 16.5C33.9089 16.5785 33.7969 16.7005 33.7307 16.8478C33.6645 16.9951 33.6476 17.1598 33.6825 17.3175Z" fill="#3B8686"/>
<path d="M30 15.75C29.555 15.75 29.12 15.882 28.75 16.1292C28.38 16.3764 28.0916 16.7278 27.9213 17.139C27.751 17.5501 27.7064 18.0025 27.7932 18.439C27.8801 18.8754 28.0943 19.2763 28.409 19.591C28.7237 19.9057 29.1246 20.12 29.561 20.2068C29.9975 20.2936 30.4499 20.249 30.861 20.0787C31.2722 19.9084 31.6236 19.62 31.8708 19.25C32.118 18.88 32.25 18.445 32.25 18C32.25 17.4033 32.0129 16.831 31.591 16.409C31.169 15.9871 30.5967 15.75 30 15.75ZM30 18.75C29.8517 18.75 29.7067 18.706 29.5833 18.6236C29.46 18.5412 29.3639 18.4241 29.3071 18.287C29.2503 18.15 29.2355 17.9992 29.2644 17.8537C29.2934 17.7082 29.3648 17.5746 29.4697 17.4697C29.5746 17.3648 29.7082 17.2933 29.8537 17.2644C29.9992 17.2355 30.15 17.2503 30.287 17.3071C30.4241 17.3639 30.5412 17.46 30.6236 17.5833C30.706 17.7067 30.75 17.8517 30.75 18C30.75 18.1989 30.671 18.3897 30.5303 18.5303C30.3897 18.671 30.1989 18.75 30 18.75Z" fill="#3B8686"/>
<path d="M18.75 12C18.305 12 17.87 12.132 17.5 12.3792C17.13 12.6264 16.8416 12.9778 16.6713 13.389C16.501 13.8001 16.4564 14.2525 16.5432 14.689C16.6301 15.1254 16.8443 15.5263 17.159 15.841C17.4737 16.1557 17.8746 16.37 18.311 16.4568C18.7475 16.5436 19.1999 16.499 19.611 16.3287C20.0222 16.1584 20.3736 15.87 20.6208 15.5C20.868 15.13 21 14.695 21 14.25C21 13.6533 20.7629 13.081 20.341 12.659C19.919 12.2371 19.3467 12 18.75 12ZM18.75 15C18.6017 15 18.4567 14.956 18.3333 14.8736C18.21 14.7912 18.1139 14.6741 18.0571 14.537C18.0003 14.4 17.9855 14.2492 18.0144 14.1037C18.0434 13.9582 18.1148 13.8246 18.2197 13.7197C18.3246 13.6148 18.4582 13.5433 18.6037 13.5144C18.7492 13.4855 18.9 13.5003 19.037 13.5571C19.1741 13.6139 19.2912 13.71 19.3736 13.8333C19.456 13.9567 19.5 14.1017 19.5 14.25C19.5 14.4489 19.421 14.6397 19.2803 14.7803C19.1397 14.921 18.9489 15 18.75 15Z" fill="#3B8686"/>
<path d="M8.42995 39.5697C8.28943 39.43 8.09934 39.3516 7.9012 39.3516C7.70306 39.3516 7.51298 39.43 7.37245 39.5697L4.71745 42.2172C4.64716 42.2869 4.59136 42.3698 4.55329 42.4612C4.51521 42.5526 4.49561 42.6506 4.49561 42.7497C4.49561 42.8487 4.51521 42.9467 4.55329 43.0381C4.59136 43.1295 4.64716 43.2124 4.71745 43.2822C4.78718 43.3525 4.87013 43.4082 4.96152 43.4463C5.05292 43.4844 5.15095 43.504 5.24995 43.504C5.34896 43.504 5.44699 43.4844 5.53839 43.4463C5.62978 43.4082 5.71273 43.3525 5.78245 43.2822L8.42995 40.6272C8.56964 40.4866 8.64805 40.2965 8.64805 40.0984C8.64805 39.9003 8.56964 39.7102 8.42995 39.5697Z" fill="#34C21C"/>
<path d="M35.8275 31.7705C35.7571 31.6856 35.6689 31.6172 35.5691 31.5703C35.4692 31.5234 35.3603 31.499 35.25 31.499C35.1397 31.499 35.0308 31.5234 34.9309 31.5703C34.8311 31.6172 34.7429 31.6856 34.6725 31.7705L30.9225 36.2705C30.8312 36.3801 30.7731 36.5134 30.7549 36.6549C30.7367 36.7964 30.7593 36.9401 30.8199 37.0692C30.8805 37.1984 30.9767 37.3075 31.0972 37.3839C31.2176 37.4603 31.3574 37.5007 31.5 37.5005H33V39.7505C33 39.9494 33.079 40.1402 33.2197 40.2808C33.3603 40.4215 33.5511 40.5005 33.75 40.5005C33.9489 40.5005 34.1397 40.4215 34.2803 40.2808C34.421 40.1402 34.5 39.9494 34.5 39.7505V36.7505C34.5 36.5516 34.421 36.3608 34.2803 36.2202C34.1397 36.0795 33.9489 36.0005 33.75 36.0005H33.105L35.25 33.4205L37.395 36.0005H36.75C36.5511 36.0005 36.3603 36.0795 36.2197 36.2202C36.079 36.3608 36 36.5516 36 36.7505V41.2505C36 41.4494 36.079 41.6402 36.2197 41.7808C36.3603 41.9215 36.5511 42.0005 36.75 42.0005C36.9489 42.0005 37.1397 41.9215 37.2803 41.7808C37.421 41.6402 37.5 41.4494 37.5 41.2505V37.5005H39C39.1426 37.5007 39.2824 37.4603 39.4028 37.3839C39.5233 37.3075 39.6195 37.1984 39.6801 37.0692C39.7407 36.9401 39.7633 36.7964 39.7451 36.6549C39.7269 36.5134 39.6688 36.3801 39.5775 36.2705L35.8275 31.7705Z" fill="#34C21C"/>
<path d="M40.05 12.9526C39.249 9.89814 37.4623 7.19349 34.9671 5.25833C32.4718 3.32317 29.4076 2.26571 26.25 2.25007C23.4931 2.24122 20.7935 3.03692 18.4822 4.53963C16.1708 6.04235 14.3481 8.18678 13.2375 10.7101C12.5843 10.5698 11.918 10.4994 11.25 10.5001C8.66411 10.5001 6.18416 11.5273 4.35568 13.3558C2.52721 15.1843 1.49998 17.6642 1.49998 20.2501C1.49998 22.8359 2.52721 25.3159 4.35568 27.1444C6.18416 28.9728 8.66411 30.0001 11.25 30.0001C11.7806 29.9973 12.3099 29.9496 12.8325 29.8576L2.59498 40.0951C1.89083 40.7992 1.49524 41.7543 1.49524 42.7501C1.49524 43.7459 1.89083 44.7009 2.59498 45.4051C3.29913 46.1092 4.25416 46.5048 5.24998 46.5048C6.24579 46.5048 7.20083 46.1092 7.90498 45.4051L18.51 34.7926L19.035 35.3251C19.3136 35.604 19.6445 35.8253 20.0087 35.9762C20.3728 36.1272 20.7632 36.2049 21.1575 36.2049C21.5517 36.2049 21.9421 36.1272 22.3063 35.9762C22.6705 35.8253 23.0014 35.604 23.28 35.3251L27.525 31.0801C27.6591 30.9474 27.7797 30.8017 27.885 30.6451C30.1897 30.3797 32.3941 29.5531 34.305 28.2376C35.5134 28.9028 36.8706 29.2511 38.25 29.2501C40.2783 29.246 42.2341 28.4948 43.7437 27.1401C45.2533 25.7853 46.2109 23.9219 46.4335 21.9058C46.6562 19.8897 46.1283 17.8622 44.9508 16.2106C43.7733 14.5591 42.0286 13.3992 40.05 12.9526ZM6.83998 44.3401C6.41345 44.7375 5.84931 44.9539 5.26641 44.9436C4.68351 44.9333 4.12735 44.6972 3.71511 44.2849C3.30287 43.8727 3.06674 43.3165 3.05645 42.7336C3.04617 42.1507 3.26254 41.5866 3.65998 41.1601L14.25 30.5551L17.445 33.7501L6.83998 44.3401ZM22.2225 34.2676C22.0832 34.407 21.9177 34.5177 21.7356 34.5932C21.5535 34.6686 21.3583 34.7075 21.1612 34.7075C20.9641 34.7075 20.7689 34.6686 20.5868 34.5932C20.4047 34.5177 20.2393 34.407 20.1 34.2676L19.0425 33.2026L14.805 28.9651L13.7325 27.9001C13.593 27.7608 13.4824 27.5953 13.4069 27.4132C13.3314 27.2311 13.2925 27.0359 13.2925 26.8388C13.2925 26.6417 13.3314 26.4465 13.4069 26.2644C13.4824 26.0823 13.593 25.9169 13.7325 25.7776L18 21.5401C18.1393 21.4006 18.3047 21.29 18.4868 21.2145C18.6689 21.139 18.8641 21.1001 19.0612 21.1001C19.2583 21.1001 19.4535 21.139 19.6356 21.2145C19.8177 21.29 19.9832 21.4006 20.1225 21.5401L20.655 22.0651L17.4675 25.2526C17.3278 25.3931 17.2494 25.5832 17.2494 25.7813C17.2494 25.9795 17.3278 26.1696 17.4675 26.3101L21.7125 30.5551C21.853 30.6948 22.0431 30.7732 22.2412 30.7732C22.4394 30.7732 22.6295 30.6948 22.77 30.5551L25.9575 27.3676L26.4825 27.9001C26.6219 28.0394 26.7326 28.2048 26.8081 28.3869C26.8836 28.569 26.9224 28.7642 26.9224 28.9613C26.9224 29.1584 26.8836 29.3536 26.8081 29.5357C26.7326 29.7178 26.6219 29.8833 26.4825 30.0226L22.2225 34.2676ZM38.25 27.7501C36.9803 27.7494 35.737 27.3879 34.665 26.7076C34.5402 26.6221 34.3925 26.5764 34.2412 26.5764C34.09 26.5764 33.9423 26.6221 33.8175 26.7076C32.2159 27.8932 30.3587 28.6869 28.395 29.0251C28.395 29.0251 28.395 28.9576 28.395 28.9276C28.3953 28.5335 28.3179 28.1432 28.1674 27.779C28.0168 27.4148 27.796 27.0839 27.5175 26.8051L26.4525 25.7401C26.3128 25.6015 26.1242 25.5234 25.9275 25.5226C25.8288 25.522 25.7309 25.5409 25.6395 25.5782C25.5482 25.6156 25.4651 25.6706 25.395 25.7401L22.215 28.9276L19.0275 25.7401L22.215 22.5601C22.2845 22.49 22.3395 22.4069 22.3768 22.3155C22.4141 22.2241 22.433 22.1263 22.4325 22.0276C22.4316 21.8308 22.3535 21.6423 22.215 21.5026L21.1575 20.4751C20.5868 19.93 19.8279 19.6258 19.0387 19.6258C18.2495 19.6258 17.4907 19.93 16.92 20.4751L12.675 24.7501C12.1954 25.2302 11.8928 25.8587 11.8165 26.533C11.7402 27.2072 11.8948 27.8875 12.255 28.4626C11.9209 28.494 11.5854 28.5065 11.25 28.5001C9.06194 28.5001 6.96352 27.6309 5.41635 26.0837C3.86917 24.5365 2.99998 22.4381 2.99998 20.2501C2.99998 18.062 3.86917 15.9636 5.41635 14.4164C6.96352 12.8693 9.06194 12.0001 11.25 12.0001C12.011 11.9995 12.7684 12.1056 13.5 12.3151C13.6801 12.3671 13.8732 12.3497 14.0412 12.2664C14.2091 12.1831 14.3398 12.0399 14.4075 11.8651C15.3295 9.47372 16.9549 7.41808 19.0691 5.96933C21.1833 4.52058 23.687 3.7468 26.25 3.75007C29.1519 3.76429 31.9632 4.76224 34.2245 6.58087C36.4859 8.39949 38.0636 10.9313 38.7 13.7626C38.7327 13.9094 38.8089 14.043 38.9186 14.146C39.0283 14.249 39.1664 14.3166 39.315 14.3401C40.9844 14.6153 42.4896 15.5075 43.5324 16.84C44.5753 18.1724 45.0796 19.8479 44.9457 21.5345C44.8117 23.2212 44.0492 24.7961 42.8092 25.9472C41.5691 27.0983 39.9419 27.7418 38.25 27.7501Z" fill="#303268"/>
<defs>
<linearGradient id="paint0_linear_701_188" x1="12.5569" y1="24.96" x2="28.0281" y2="34.8484" gradientUnits="userSpaceOnUse">
<stop stop-color="white"/>
<stop offset="0.335851" stop-color="#006FFD"/>
<stop offset="0.62839" stop-color="#006FFD"/>
<stop offset="1" stop-color="white"/>
</linearGradient>
<linearGradient id="paint1_linear_701_188" x1="2.24829" y1="29.4902" x2="21.8629" y2="38.2078" gradientUnits="userSpaceOnUse">
<stop stop-color="white"/>
<stop offset="0.335851" stop-color="#006FFD"/>
<stop offset="0.62839" stop-color="#006FFD"/>
<stop offset="1" stop-color="white"/>
</linearGradient>
</defs>
</svg>
