<svg width="490" height="490" viewBox="0 0 490 490" fill="none" xmlns="http://www.w3.org/2000/svg">
<g clip-path="url(#clip0_433_4436)">
<g clip-path="url(#clip1_433_4436)">
<path d="M60.8712 392.352L395.438 407.453C401.23 407.714 406.703 404.674 409.524 399.63L411.249 396.544L377.216 179.152C375.91 170.815 369.278 164.351 360.75 163.092L72.2115 120.525L68.0974 121.508C59.0883 123.662 52.5514 131.637 52.3831 140.686L47.9599 378.582C47.8225 385.98 53.4794 392.019 60.8696 392.352L60.8712 392.352Z" fill="url(#paint0_linear_433_4436)"/>
<path opacity="0.61" d="M397.703 408.547C403.029 408.02 407.911 404.898 410.548 400.18L408.499 399.079C405.915 403.701 400.812 406.535 395.505 406.295L60.9587 391.211C54.1822 390.905 48.9751 385.348 49.1013 378.565L53.509 140.66C53.6351 133.876 57.5373 127.623 63.6931 124.338L62.6857 122.403C55.7791 126.088 51.4006 133.103 51.2588 140.713L46.82 378.6C46.6713 386.588 52.8023 393.134 60.7823 393.495L395.37 408.61C396.148 408.645 396.928 408.624 397.703 408.547Z" fill="url(#paint1_linear_433_4436)"/>
<path d="M66.9312 386.061L401.995 401.099C408.56 401.393 413.863 395.747 413.071 389.307L411.634 377.71L386.606 175.488L385.519 166.727C384.959 162.209 381.365 158.686 376.738 158.111L73.681 120.603C67.5726 119.84 61.9826 124.637 61.8709 130.733L61.6339 144.028L57.7718 358.06L57.4506 375.955C57.3475 381.387 61.5047 385.814 66.9312 386.061Z" fill="url(#paint2_linear_433_4436)"/>
<path opacity="0.71" d="M57.7719 358.059L411.634 377.71L386.862 178.344L61.634 144.028L57.7719 358.059Z" fill="url(#paint3_radial_433_4436)"/>
<path opacity="0.61" d="M403.642 402.209C406.507 401.925 409.172 400.612 411.144 398.512C413.528 395.976 414.653 392.564 414.234 389.154L386.665 166.568C386.046 161.569 382.034 157.633 376.91 156.997L73.8669 119.504C70.6342 119.103 67.3334 120.11 64.812 122.272C62.2877 124.436 60.8052 127.53 60.7459 130.759L60.5083 144.055L56.3101 375.971C56.1954 381.992 60.8205 386.927 66.8429 387.201C72.8654 387.475 401.928 402.256 401.928 402.256C402.504 402.281 403.077 402.265 403.642 402.209ZM71.3759 121.685C72.0798 121.608 72.7902 121.613 73.493 121.7L376.568 159.227C380.668 159.737 383.878 162.886 384.373 166.887L385.46 175.647L411.908 389.461C412.243 392.19 411.342 394.919 409.435 396.948C408.494 397.95 407.348 398.736 406.076 399.253C404.803 399.77 403.434 400.005 402.062 399.943L67.0197 384.92C62.2015 384.702 58.5004 380.756 58.5917 375.939L62.9961 130.705C63.0426 128.121 64.2282 125.646 66.2488 123.915C67.695 122.672 69.4817 121.895 71.3759 121.685Z" fill="url(#paint4_linear_433_4436)"/>
<path d="M231.536 152.737C231.702 154.818 232.9 156.391 234.211 156.251C235.522 156.11 236.45 154.309 236.282 152.228C236.115 150.148 234.917 148.576 233.607 148.716C232.296 148.857 231.37 150.657 231.536 152.737ZM166.896 435.095L177.12 434.053L175.053 394.784L165.591 395.717L166.896 435.095Z" fill="url(#paint5_linear_433_4436)"/>
<path opacity="0.61" d="M166.737 395.679L164.443 395.754L165.748 435.133L168.043 435.057L166.737 395.679Z" fill="url(#paint6_linear_433_4436)"/>
<path d="M177.027 434.062L307.173 437.985L305.424 400.16L174.827 394.775L177.027 434.062Z" fill="url(#paint7_linear_433_4436)"/>
<path opacity="0.61" d="M306.572 400.108L304.278 400.214L306.028 438.04L308.322 437.934L306.572 400.108Z" fill="url(#paint8_linear_433_4436)"/>
<path opacity="0.61" d="M175.974 394.711L173.682 394.839L175.881 434.126L178.174 433.998L175.974 394.711Z" fill="url(#paint9_linear_433_4436)"/>
<path d="M56.7442 457.686L302.839 465.933L373.104 450.305L136.208 439.484L56.7442 457.686Z" fill="url(#paint10_linear_433_4436)"/>
<path d="M56.7442 457.686L136.814 442.059L373.104 450.305L371.553 435.101L134.984 426.09L56.8857 442.233L56.7442 457.686Z" fill="url(#paint11_linear_433_4436)"/>
<path opacity="0.61" d="M372.122 450.424L374.085 450.186L372.433 433.985L371.566 433.951L134.861 424.829L134.73 424.857L55.6485 441.166L55.8376 456.845L58.3299 456.91L58.1221 443.297L135.107 427.35L370.672 436.217L372.122 450.424Z" fill="url(#paint12_linear_433_4436)"/>
</g>
<g clip-path="url(#clip2_433_4436)">
<path d="M119.849 191.795C120.319 191.818 169.523 190.815 169.523 190.815L173.095 175.802L119.259 187.85L119.849 191.795Z" fill="#321450"/>
<path d="M409.706 305.029C408.12 290.272 424.526 267.192 437.779 261.028C437.965 261.071 443.805 255.541 444.593 256.045L444.607 256.053C444.767 256.155 444.919 256.267 445.063 256.394L445.047 256.38L445.048 256.38L445.044 256.378C433.17 246.024 429.729 243.289 418.764 234.928L418.759 234.924C416.548 233.269 414.322 231.633 412.081 230.019L412.157 230.073C394.671 217.518 376.756 206.55 356.496 196.314C354.722 195.426 352.943 194.547 351.16 193.676L351.221 193.706C350.745 193.478 350.325 193.407 350.022 193.351L350.025 193.353C349.395 193.265 349.052 193.302 348.839 193.305L348.84 193.306C348.252 193.334 347.648 193.472 347.585 193.483L347.586 193.483C347.127 193.587 346.676 193.717 346.232 193.872L346.233 193.872C345.625 194.087 345.158 194.302 344.742 194.49L344.744 194.491C344.164 194.764 343.599 195.071 343.042 195.393L343.043 195.393C342.341 195.809 341.656 196.253 340.988 196.722C340.029 197.4 339.108 198.124 338.201 198.886C335.284 201.318 331.778 205.044 329.114 208.421L329.112 208.418C328.141 209.639 327.2 210.884 326.292 212.151L326.29 212.15C325.608 213.103 324.945 214.069 324.301 215.048L324.3 215.047C323.735 215.907 323.183 216.774 322.645 217.651C322.148 218.466 321.662 219.288 321.19 220.118L321.19 220.118C320.738 220.914 320.298 221.717 319.871 222.527L319.871 222.526C319.451 223.326 319.044 224.132 318.65 224.945C317.925 226.452 317.524 227.392 317.5 227.446L317.499 227.446C316.807 229.038 316.417 230.083 316.393 230.144L316.392 230.144C315.699 231.968 315.416 232.942 315.308 233.267L315.308 233.266C314.561 235.692 313.917 238.456 313.881 240.991C313.788 242.942 314.333 245.629 315.694 246.703C315.695 246.704 315.697 246.705 315.698 246.706C327.603 257.093 331.011 259.788 341.979 268.156L341.983 268.16C362.963 283.87 385.032 297.443 409.468 309.354C408.169 308.723 410.044 307.089 409.707 305.03L409.706 305.029Z" fill="#D1F9FF"/>
<path opacity="0.6" d="M409.115 310.072C385.024 298.329 362.907 284.828 341.501 268.799C332.969 262.289 329.119 259.295 322.438 253.594L323.48 252.379C330.13 258.053 333.968 261.039 342.465 267.521C363.788 283.488 385.82 296.937 409.819 308.635L409.115 310.072Z" fill="url(#paint13_linear_433_4436)"/>
<path d="M150.995 210.652L170.182 174.636L322.556 213.611L323.945 349.335L297.313 368.953C293.724 371.597 289.312 372.889 284.858 372.6L167.382 364.969C163.05 364.687 159.586 361.269 159.258 356.952L148.918 220.546C148.658 217.118 149.378 213.688 150.995 210.652Z" fill="#0EA8CC"/>
<path opacity="0.6" d="M167.33 365.766C162.628 365.461 158.814 361.697 158.459 357.012L148.218 221.931L149.817 221.811L160.058 356.892C160.353 360.787 163.524 363.917 167.433 364.171L167.33 365.766L167.33 365.766Z" fill="url(#paint14_linear_433_4436)"/>
<path opacity="0.6" d="M285.106 373.414C285.006 373.409 284.906 373.403 284.806 373.396L167.33 365.766L167.434 364.17L284.91 371.801C289.174 372.075 293.398 370.838 296.837 368.309L323.469 348.691L324.422 349.977L297.789 369.595C294.13 372.288 289.649 373.637 285.106 373.414Z" fill="url(#paint15_linear_433_4436)"/>
<path d="M142.049 226.282C154.797 226.915 165.643 217.123 166.274 204.411C166.905 191.699 157.082 180.88 144.334 180.247C131.586 179.615 120.74 189.407 120.109 202.119C119.478 214.831 129.3 225.649 142.049 226.282Z" fill="#005679"/>
<path d="M181.261 168.785C172.073 167.922 168.775 167.916 160.012 170.456C151.248 172.996 115.35 187.5 115.35 187.5L117.874 190.444L160.973 182.718L170.468 184.435L181.262 168.785L181.261 168.785Z" fill="#D1F9FF"/>
<path opacity="0.6" d="M115.652 188.241L115.049 186.759C116.516 186.166 151.085 172.21 159.787 169.688C168.533 167.152 171.885 167.102 181.336 167.989L181.186 169.581C171.828 168.702 168.772 168.748 160.235 171.223C151.611 173.723 116.01 188.096 115.651 188.241L115.652 188.241Z" fill="url(#paint16_linear_433_4436)"/>
<path d="M48.4475 253.834C62.1841 255.996 82.1833 276.07 86.8263 289.272C86.7721 289.426 91.4132 295.923 90.8866 296.498L90.8773 296.508C90.7711 296.626 90.6555 296.733 90.5275 296.829L90.5416 296.819L90.5441 296.817C101.029 288.822 103.822 286.441 112.398 278.769C114.1 277.214 115.784 275.64 117.451 274.047L117.395 274.102C130.352 261.679 141.878 248.493 152.914 233.059C153.873 231.705 154.824 230.345 155.767 228.98L155.735 229.026C155.983 228.661 156.081 228.307 156.156 228.052L156.155 228.055C156.285 227.519 156.278 227.207 156.292 227.017L156.291 227.019C156.311 226.492 156.231 225.925 156.226 225.866L156.226 225.867C156.166 225.433 156.082 225.002 155.974 224.577L155.974 224.578C155.824 223.988 155.662 223.524 155.521 223.11L155.52 223.112C155.309 222.529 155.076 221.955 154.822 221.39L154.822 221.391C154.491 220.667 154.136 219.954 153.757 219.254C153.201 218.238 152.608 217.242 151.981 216.268C149.967 213.103 146.806 209.104 143.901 205.933L143.903 205.932C142.853 204.779 141.779 203.647 140.682 202.538L140.683 202.537C139.857 201.705 139.018 200.885 138.166 200.08L138.167 200.079C137.419 199.372 136.661 198.675 135.895 197.987C135.183 197.351 134.463 196.723 133.735 196.105C133.036 195.513 132.33 194.931 131.616 194.358L131.616 194.358C130.913 193.794 130.201 193.239 129.482 192.695C128.148 191.69 127.312 191.108 127.265 191.074L127.265 191.074C125.851 190.077 124.917 189.48 124.863 189.444L124.864 189.444C123.235 188.39 122.359 187.905 122.068 187.731L122.069 187.73C119.89 186.485 117.391 185.248 115.055 184.604C113.263 184.051 110.742 183.883 109.644 184.828C109.643 184.828 109.642 184.829 109.641 184.83C99.1226 192.843 96.3695 195.205 87.7873 202.878C87.7861 202.879 87.7849 202.88 87.7839 202.882C71.6418 217.63 57.3855 233.858 44.476 252.578C45.1607 251.583 46.5202 253.634 48.4463 253.834L48.4475 253.834Z" fill="#D1F9FF"/>
<path opacity="0.6" d="M45.1378 253.031L43.8167 252.125C56.5549 233.653 70.7598 217.352 87.2433 202.292C95.9741 194.486 98.8224 192.068 109.128 184.215L109.174 184.179C110.735 182.904 113.746 183.363 115.293 183.841C116.555 184.188 117.994 184.746 119.548 185.494L118.852 186.934C117.385 186.228 116.036 185.704 114.843 185.375C112.969 184.797 110.891 184.824 110.175 185.428L110.064 185.515C99.8348 193.309 96.9948 195.721 88.3236 203.474C71.9335 218.449 57.8061 234.66 45.1374 253.032L45.1378 253.031Z" fill="url(#paint17_linear_433_4436)"/>
<path opacity="0.6" d="M90.9139 297.527L90.601 296.926L90.4778 296.762L89.9415 296.289L90.0401 296.178L90.1027 296.145C90.1655 296.093 90.225 296.036 90.2823 295.972L90.3229 295.93L90.3504 295.958C100.473 288.235 103.329 285.807 111.842 278.191L111.858 278.177C113.555 276.627 115.234 275.058 116.896 273.471C130.044 260.858 141.613 247.486 152.261 232.596L153.566 233.524C142.846 248.517 131.195 261.979 117.952 274.677L117.951 274.678L117.95 274.679C116.304 276.25 114.641 277.803 112.961 279.338L112.944 279.354C104.29 287.096 101.45 289.507 91.0533 297.435L90.9127 297.527L90.9139 297.527Z" fill="url(#paint18_linear_433_4436)"/>
<path d="M90.8424 296.541C94.3667 292.895 86.9079 280.024 74.1828 267.792C61.4576 255.56 48.2849 248.599 44.7606 252.245C41.2364 255.89 48.6951 268.762 61.4203 280.994C74.1454 293.226 87.3181 300.187 90.8424 296.541Z" fill="#D1F9FF"/>
<path d="M318.796 101.462L322.568 101.687L318.837 116.841L315.064 116.616L318.796 101.462Z" fill="#9AD9EF"/>
<path d="M312.358 89.3027L315.044 89.4629L322.568 101.687L318.796 101.463L312.358 89.3027Z" fill="#D1F9FF"/>
<path d="M318.796 101.463L315.064 116.616L311.654 105.42L312.358 89.3027L318.796 101.463Z" fill="url(#paint19_linear_433_4436)"/>
<path d="M328.003 84.3556L332.587 84.7941L325.764 103.817L321.179 103.379L328.003 84.3556Z" fill="#9AD9EF"/>
<path d="M318.935 51.127L321.579 51.3798L332.587 84.7932L328.003 84.3547L318.935 51.127Z" fill="#D1F9FF"/>
<path d="M328.003 84.355L321.179 103.378L315.521 62.6018L318.936 51.1272L328.003 84.355Z" fill="url(#paint20_linear_433_4436)"/>
<path d="M330.22 80.6981C334.825 75.3076 339.124 80.5615 339.819 92.4317C340.514 104.302 337.342 118.296 332.736 123.686C328.131 129.076 323.834 123.824 323.139 111.954C322.444 100.083 325.614 86.0886 330.22 80.6981Z" fill="#9AD9EF"/>
<path d="M339.905 96.8198C339.955 93.4642 339.773 90.0871 339.132 86.7889C338.837 85.3196 338.451 83.8717 337.872 82.4923C337.481 81.5784 337.005 80.692 336.355 79.9378C335.817 79.3268 335.134 78.8003 334.323 78.6363C334.242 78.6167 334.159 78.6066 334.077 78.5965L324.04 77.492C326.842 77.952 328.018 81.5857 328.701 83.9672C330.138 89.7197 330.077 95.7548 329.503 101.624C328.831 107.573 327.6 113.564 324.986 118.985C323.782 121.296 321.767 124.853 318.843 124.683L328.88 125.788C331.014 126.117 333.283 123.324 334.398 121.271C338.258 114.142 339.698 104.862 339.906 96.8194L339.905 96.8198Z" fill="#D1F9FF"/>
<path d="M320.183 79.5936C324.789 74.2031 329.087 79.457 329.782 91.3273C330.477 103.198 327.306 117.191 322.7 122.581C318.094 127.972 313.797 122.719 313.102 110.849C312.407 98.9789 315.578 84.9841 320.183 79.5936Z" fill="url(#paint21_linear_433_4436)"/>
<path d="M320.796 90.0466C323.162 87.2775 325.37 89.9763 325.726 96.0738C326.083 102.171 324.454 109.36 322.088 112.129C319.722 114.898 317.515 112.199 317.158 106.102C316.801 100.004 318.43 92.8154 320.796 90.0466Z" fill="#D1F9FF"/>
<path d="M318.649 157.797L301.812 171.246C298.058 174.244 293.373 176.093 288.205 176.406C272.894 177.334 257.532 177.007 242.274 175.428C226.976 173.849 211.69 171.016 196.416 166.93C185.607 164.037 177.046 154.835 174.815 143.746C170.049 120.047 170.272 96.8602 175.484 74.1913C176.761 68.6404 179.759 63.9632 183.88 60.6713L200.717 47.223C196.596 50.5149 193.599 55.1925 192.322 60.743C187.109 83.4118 188.977 106.158 193.744 129.857C195.975 140.945 202.644 148.134 213.453 151.027C228.727 155.113 244.238 158.805 259.536 160.384C274.834 161.964 289.719 163.885 305.042 162.958C310.21 162.644 314.895 160.795 318.649 157.797Z" fill="#0EA8CC"/>
<path opacity="0.6" d="M191.336 165.922C182.434 161.751 175.964 153.519 174.03 143.903C169.262 120.202 169.489 96.6871 174.704 74.0124C176.001 68.3732 179.001 63.5441 183.379 60.0472L199.039 47.539L200.042 48.7869L184.382 61.2952C180.288 64.5649 177.482 69.0858 176.266 74.3701C171.103 96.8225 170.88 120.111 175.602 143.589C177.437 152.71 183.574 160.518 192.017 164.475L191.336 165.922L191.336 165.922Z" fill="url(#paint22_linear_433_4436)"/>
<path opacity="0.6" d="M270.46 177.715C261.019 177.689 251.584 177.192 242.192 176.224C226.924 174.647 211.453 171.781 196.209 167.703C194.535 167.253 192.905 166.658 191.336 165.922L192.017 164.475C193.5 165.171 195.041 165.734 196.623 166.159C211.786 170.215 227.172 173.066 242.356 174.634C257.571 176.202 272.888 176.528 288.156 175.609C293.049 175.312 297.598 173.588 301.31 170.623L318.147 157.174L319.15 158.422L302.313 171.871C298.34 175.043 293.479 176.888 288.254 177.205C282.329 177.563 276.395 177.733 270.46 177.716L270.46 177.715Z" fill="url(#paint23_linear_433_4436)"/>
<path opacity="0.6" d="M329.218 126.614C329.064 126.614 328.91 126.602 328.757 126.578L318.755 125.478L318.889 123.886C321.442 124.035 323.43 120.238 324.274 118.617C326.499 114.002 327.911 108.567 328.706 101.534C329.389 94.5581 329.14 89.0338 327.922 84.1606C327.15 81.465 326.062 78.6348 323.91 78.2815L324.128 76.6979L334.165 77.8025C334.287 77.8173 334.401 77.833 334.512 77.8601C335.372 78.0337 336.205 78.5577 336.958 79.411C337.592 80.1473 338.115 81.0245 338.61 82.1792C339.153 83.4731 339.568 84.8868 339.919 86.6331C340.507 89.6625 340.765 92.9974 340.708 96.8328L340.707 96.8416C340.528 103.77 339.41 113.699 335.104 121.652C333.822 124.012 331.559 126.621 329.219 126.615L329.218 126.614ZM322.192 124.248L328.967 124.994C330.488 125.227 332.49 123.106 333.693 120.891C336.934 114.904 338.856 106.349 339.104 96.804C339.159 93.0817 338.911 89.855 338.345 86.9408C338.017 85.3065 337.632 83.9895 337.133 82.801C336.707 81.8065 336.266 81.0607 335.747 80.4591C335.237 79.8811 334.703 79.5288 334.163 79.42C334.084 79.4012 334.032 79.3966 333.981 79.3905L327.218 78.6462C328.469 80.2494 329.096 82.4388 329.471 83.7481C330.741 88.83 331.003 94.5265 330.301 101.702C329.484 108.93 328.025 114.529 325.708 119.332C325.019 120.654 323.866 122.866 322.192 124.248L322.192 124.248Z" fill="url(#paint24_linear_433_4436)"/>
<path d="M227.892 185.256L229.434 175.229C230.294 169.634 235.007 165.458 240.677 165.197C251.768 164.687 262.39 165.583 272.317 168.57C277.391 170.096 280.816 174.821 280.724 180.105L280.484 193.764L227.892 185.256L227.892 185.256Z" fill="#005679"/>
<path d="M260.256 43.0398C275.554 44.6193 290.84 47.4527 306.115 51.5402C316.923 54.4299 325.484 63.632 327.715 74.7209C332.481 98.4198 332.258 121.607 327.046 144.276C324.606 154.883 315.885 162.3 305.042 162.958C289.731 163.886 274.369 163.559 259.111 161.98C243.813 160.401 228.528 157.568 213.253 153.482C202.445 150.589 193.884 141.387 191.652 130.298C186.886 106.599 187.109 83.4121 192.322 60.7433C194.762 50.1368 203.483 42.7187 214.325 42.0643C229.636 41.1352 244.998 41.4615 260.256 43.0398Z" fill="#D1F9FF"/>
<path opacity="0.6" d="M328.501 74.5634C326.193 63.0929 317.487 53.7528 306.322 50.7677L305.907 52.3119C316.488 55.1411 324.74 63.9985 326.929 74.8772C331.651 98.3541 331.427 121.643 326.264 144.096C323.887 154.429 315.537 161.52 304.993 162.159C304.713 162.176 304.434 162.19 304.154 162.206C304.122 162.739 304.092 163.275 304.061 163.81C304.404 163.79 304.748 163.776 305.09 163.755C316.362 163.072 325.287 155.495 327.827 144.454C333.041 121.778 333.268 98.2635 328.501 74.5634Z" fill="url(#paint25_linear_433_4436)"/>
<path opacity="0.6" d="M202.591 149.083C196.514 144.444 192.35 137.828 190.867 130.455C186.099 106.754 186.326 83.2395 191.541 60.564C194.081 49.5215 203.006 41.9462 214.277 41.2659C229.631 40.34 245.037 40.6672 260.339 42.2443C275.608 43.8207 291.079 46.6882 306.322 50.7677L305.907 52.3119C290.745 48.2544 275.358 45.4019 260.174 43.8345C244.959 42.2664 229.641 41.941 214.374 42.8615C203.83 43.4982 195.481 50.587 193.103 60.9217C187.94 83.3749 187.716 106.664 192.439 130.141C193.846 137.133 197.797 143.41 203.565 147.813L202.591 149.082L202.591 149.083Z" fill="url(#paint26_linear_433_4436)"/>
<path d="M260.144 54.6427C272.458 55.9139 284.761 58.1947 297.056 61.4848C305.756 63.8108 312.647 71.2175 314.442 80.143C318.279 99.2182 318.099 117.882 313.903 136.128C311.939 144.665 304.92 150.636 296.193 151.165C283.859 151.912 271.536 151.649 259.223 150.378C246.91 149.107 234.606 146.827 222.312 143.538C213.612 141.209 206.721 133.803 204.925 124.878C201.089 105.802 201.268 87.1384 205.464 68.8925C207.428 60.3554 214.448 54.3848 223.175 53.858C235.499 53.1101 247.864 53.3727 260.145 54.6432L260.144 54.6427Z" fill="#321450"/>
<path d="M260.152 53.885C272.66 55.1762 285.158 57.4931 297.647 60.8352C306.485 63.1981 313.484 70.7219 315.309 79.7884C319.206 99.1657 319.023 118.124 314.761 136.659C312.766 145.331 305.636 151.396 296.771 151.934C284.242 152.692 271.724 152.426 259.216 151.134C246.708 149.843 234.209 147.527 221.72 144.186C212.883 141.821 205.883 134.297 204.059 125.23C200.162 105.853 200.344 86.8943 204.606 68.3596C206.601 59.6871 213.732 53.622 222.597 53.0868C235.116 52.3271 247.676 52.5943 260.152 53.885Z" fill="#34C21C"/>
<path d="M166.389 45.0918L169.033 45.3443L180.041 78.7576L175.457 78.3195L166.389 45.0918Z" fill="#D1F9FF"/>
<path d="M175.457 78.3198L168.633 97.3429L162.975 56.5666L166.389 45.092L175.457 78.3198Z" fill="url(#paint27_linear_433_4436)"/>
<path opacity="0.6" d="M163.793 56.6287L166.356 48.0145L173.732 75.0445C174.187 74.6983 174.649 74.3609 175.117 74.0323L166.422 42.1701L162.157 56.5051L165.787 82.6676C166.242 82.1255 166.708 81.5928 167.184 81.0685L163.792 56.6291L163.793 56.6287Z" fill="url(#paint28_linear_433_4436)"/>
<path opacity="0.6" d="M282.262 153.15C274.537 153.129 266.818 152.722 259.133 151.93C246.642 150.64 233.985 148.295 221.513 144.958C212.33 142.5 205.171 134.819 203.273 125.387C199.371 105.988 199.557 86.7411 203.825 68.181C205.917 59.0875 213.266 52.8495 222.549 52.2895C235.062 51.5308 247.742 51.8001 260.234 53.0897C272.726 54.3794 285.384 56.7258 297.855 60.063C307.037 62.5179 314.197 70.1989 316.095 79.6312C319.996 99.0307 319.81 118.278 315.542 136.838C313.451 145.93 306.102 152.169 296.819 152.732C291.972 153.025 287.117 153.164 282.261 153.15L282.262 153.15ZM237.118 53.4689C232.291 53.4548 227.464 53.5938 222.646 53.8855C214.091 54.402 207.317 60.1539 205.388 68.5391C201.171 86.8768 200.988 105.898 204.845 125.074C206.624 133.914 213.33 141.113 221.928 143.414C234.318 146.729 246.891 149.059 259.298 150.34C271.704 151.621 284.295 151.889 296.722 151.136C305.277 150.618 312.052 144.864 313.98 136.48C318.197 118.142 318.38 99.1213 314.523 79.9458C312.744 71.1048 306.038 63.9066 297.44 61.6076C285.051 58.2921 272.477 55.9614 260.07 54.6804C252.444 53.8944 244.784 53.4901 237.118 53.4689L237.118 53.4689Z" fill="url(#paint29_linear_433_4436)"/>
<path d="M166.25 95.4268L170.022 95.6517L166.29 110.806L162.518 110.581L166.25 95.4268Z" fill="#9AD9EF"/>
<path d="M159.811 83.2676L162.498 83.4278L170.022 95.6522L166.25 95.4274L159.811 83.2676Z" fill="#D1F9FF"/>
<path d="M166.25 95.4274L162.518 110.581L159.108 99.3841L159.811 83.2676L166.25 95.4274Z" fill="url(#paint30_linear_433_4436)"/>
<path opacity="0.6" d="M162.6 113.601L158.301 99.4854L158.308 99.3488L159.139 80.2852L167.101 95.3227L162.6 113.601L162.6 113.601ZM159.915 99.2825L162.436 107.561L165.399 95.5312L160.484 86.2488L159.916 99.2822L159.915 99.2825Z" fill="url(#paint31_linear_433_4436)"/>
<path d="M175.457 78.3195L180.041 78.7576L173.217 97.7807L168.633 97.3426L175.457 78.3195Z" fill="#9AD9EF"/>
<path d="M177.674 74.663C182.28 69.2725 186.578 74.5263 187.273 86.3966C187.968 98.2669 184.797 112.26 180.191 117.651C175.585 123.041 171.288 117.789 170.593 105.918C169.898 94.0482 173.068 80.0535 177.674 74.663Z" fill="#9AD9EF"/>
<path d="M187.359 90.7846C187.409 87.4291 187.227 84.052 186.587 80.7538C186.292 79.2844 185.906 77.8366 185.326 76.4572C184.935 75.5433 184.459 74.6569 183.81 73.9026C183.271 73.2916 182.589 72.7651 181.777 72.6012C181.696 72.5815 181.613 72.5714 181.531 72.5613L171.495 71.4568C174.297 71.9169 175.472 75.5506 176.155 77.932C177.592 83.6845 177.531 89.7197 176.957 95.5888C176.285 101.538 175.054 107.529 172.441 112.95C171.236 115.261 169.222 118.818 166.297 118.648L176.334 119.752C178.468 120.082 180.738 117.289 181.852 115.236C185.712 108.107 187.152 98.8271 187.36 90.7842L187.359 90.7846Z" fill="#D1F9FF"/>
<path d="M167.637 73.5585C172.243 68.168 176.541 73.4218 177.236 85.2921C177.931 97.1624 174.76 111.156 170.154 116.546C165.548 121.937 161.251 116.684 160.556 104.814C159.861 92.9437 163.031 78.9486 167.637 73.5581L167.637 73.5585Z" fill="url(#paint32_linear_433_4436)"/>
<path opacity="0.6" d="M166.592 119.465C166.207 119.463 165.825 119.4 165.461 119.277C162.356 118.238 160.223 112.849 159.756 104.86C159.051 92.8308 162.313 78.5561 167.027 73.0397C169.217 70.4763 171.12 70.4223 172.33 70.8273C175.435 71.8667 177.569 77.2568 178.036 85.2459C178.74 97.2739 175.478 111.548 170.764 117.065C169.169 118.932 167.726 119.468 166.592 119.465ZM171.208 72.2424C170.078 72.2391 169 73.1957 168.247 74.0767C163.764 79.3237 160.673 93.0914 161.356 104.768C161.861 113.388 164.157 117.155 165.97 117.762C167.312 118.211 168.655 117.068 169.544 116.028C174.027 110.78 177.119 97.0129 176.435 85.3385C175.931 76.7181 173.634 72.9503 171.82 72.3432C171.623 72.277 171.416 72.2429 171.208 72.2424Z" fill="url(#paint33_linear_433_4436)"/>
<path d="M168.249 84.0115C170.615 81.2423 172.823 83.9412 173.18 90.0387C173.537 96.1361 171.908 103.324 169.542 106.094C167.176 108.863 164.969 106.164 164.612 100.067C164.255 93.9693 165.884 86.7802 168.249 84.0115ZM182.953 168.893L330.368 187.791C336.382 188.561 340.772 193.843 340.416 199.878L332.114 340.716C331.813 345.824 327.4 349.71 322.28 349.378L186.419 340.553C181.785 340.252 178.092 336.573 177.786 331.952L167.911 182.991C167.356 174.617 174.605 167.822 182.953 168.892L182.953 168.893Z" fill="#D1F9FF"/>
<path opacity="0.6" d="M176.986 332.005L167.112 183.044C166.831 178.813 168.447 174.721 171.545 171.818C174.642 168.915 178.836 167.559 183.055 168.1L330.47 186.998L330.266 188.584L182.851 169.686C181.01 169.448 179.14 169.62 177.375 170.19C175.609 170.76 173.993 171.714 172.643 172.983C171.289 174.249 170.234 175.798 169.554 177.52C168.874 179.242 168.586 181.093 168.711 182.939L178.586 331.9L176.986 332.005L176.986 332.005Z" fill="url(#paint34_linear_433_4436)"/>
<path opacity="0.6" d="M322.386 350.185C322.333 350.182 322.28 350.18 322.228 350.176L186.366 341.351C181.35 341.025 177.318 337.007 176.986 332.005L178.586 331.9C178.865 336.105 182.254 339.481 186.47 339.755L322.331 348.58C323.443 348.655 324.559 348.509 325.613 348.149C326.668 347.79 327.64 347.225 328.473 346.488C329.311 345.755 329.993 344.862 330.481 343.863C330.969 342.864 331.252 341.778 331.314 340.668L339.616 199.83C339.946 194.238 335.839 189.297 330.266 188.583L330.47 186.997C336.876 187.818 341.596 193.497 341.217 199.925L332.915 340.763C332.756 343.447 331.556 345.906 329.536 347.686C327.554 349.431 325.021 350.315 322.386 350.184L322.386 350.185Z" fill="url(#paint35_linear_433_4436)"/>
<path d="M334.059 206.51L176.959 188.212L180.918 271.305L330.113 285.995L334.059 206.51Z" fill="#321450"/>
<path d="M54.9554 304.039C67.7037 304.672 78.5497 294.88 79.1808 282.168C79.8119 269.455 69.989 258.637 57.2407 258.004C44.4925 257.371 33.6464 267.164 33.0153 279.876C32.3842 292.588 42.2072 303.406 54.9554 304.039Z" fill="#005679"/>
<path d="M325.713 282.819L184.873 267.314L181.454 192.099L329.962 209.837L325.713 282.819Z" fill="#34C21C"/>
<path opacity="0.6" d="M326.277 283.485L184.296 267.854L184.273 267.341L180.821 191.42L330.595 209.309L326.277 283.485ZM185.451 266.775L325.149 282.154L329.329 210.366L182.086 192.779L185.451 266.775L185.451 266.775Z" fill="#34C21C"/>
<path d="M445.496 326.705C458.244 327.338 469.09 317.546 469.721 304.834C470.352 292.121 460.529 281.303 447.781 280.67C435.033 280.037 424.187 289.83 423.556 302.542C422.925 315.254 432.748 326.072 445.496 326.705Z" fill="#005679"/>
<path d="M158.514 317.676C149.902 305.908 151.864 277.683 159.637 265.532C159.81 265.472 161.84 257.717 162.733 257.736L162.749 257.737C162.924 257.74 163.098 257.756 163.27 257.786L163.271 257.786L163.267 257.786C148.432 255.126 144.265 254.582 131.161 253.148L131.156 253.148C128.564 252.891 125.9 252.645 123.268 252.435L123.357 252.442C102.847 250.821 82.7719 250.778 61.1446 252.578C59.2547 252.743 57.3656 252.917 55.4775 253.101L55.5416 253.095C55.0397 253.148 54.6614 253.307 54.3863 253.416L54.3895 253.416C53.8316 253.669 53.5699 253.878 53.3969 253.992L53.3981 253.992C52.9315 254.322 52.5071 254.753 52.4608 254.796L52.4616 254.796C52.1378 255.123 51.8331 255.469 51.549 255.831L51.5498 255.832C51.1594 256.33 50.8846 256.757 50.6375 257.134L50.6395 257.134C50.3025 257.673 49.9879 258.224 49.6965 258.789L49.6973 258.789C49.3303 259.51 48.9901 260.245 48.6773 260.992C48.2316 262.074 47.83 263.173 47.4727 264.287C46.2954 267.879 45.2782 272.881 44.775 277.149C44.7739 277.148 44.7728 277.148 44.7718 277.148C44.5866 278.694 44.4294 280.245 44.3185 281.799L44.3165 281.799C44.2323 282.967 44.1694 284.136 44.128 285.306L44.126 285.306C44.0914 286.334 44.0697 287.361 44.0656 288.389L44.0648 288.389C44.0632 289.343 44.0729 290.297 44.099 291.25C44.1254 292.165 44.1623 293.079 44.2157 293.991L44.2149 293.991C44.2682 294.892 44.3351 295.792 44.4161 296.69C44.5715 298.353 44.7091 299.365 44.7159 299.422L44.7151 299.422C44.9392 301.141 45.1389 302.236 45.1494 302.299L45.1486 302.299C45.4864 304.217 45.7385 305.195 45.8118 305.529L45.8106 305.529C46.4038 307.986 47.2465 310.68 48.4746 312.862C49.3656 314.575 51.1429 316.585 52.788 316.793L52.7924 316.794C67.6683 319.467 71.7883 319.994 84.8983 321.431L84.9039 321.432C109.833 323.929 134.315 323.835 160.184 321.293C158.81 321.429 159.809 319.26 158.514 317.678L158.514 317.676Z" fill="#D1F9FF"/>
<path opacity="0.6" d="M104.308 323.595C97.8481 323.274 91.3731 322.788 84.8486 322.135L84.8238 322.132C71.4942 320.671 67.2571 320.11 52.6744 317.489L52.5883 317.476C50.6669 317.166 48.7509 315.025 47.7675 313.135C46.7046 311.247 45.7814 308.711 45.0359 305.62L44.7852 304.582L44.8004 304.583C44.6844 304.049 44.5344 303.313 44.3638 302.343L45.9427 302.067C46.2198 303.64 46.4397 304.578 46.545 305.029L46.6086 305.307C47.3172 308.228 48.1812 310.606 49.1777 312.376C50.0215 313.998 51.6336 315.746 52.8927 315.906L53.0104 315.926C67.4974 318.529 71.7281 319.089 84.9798 320.542L84.9866 320.542C110.321 323.08 134.984 323.1 160.387 320.604L160.545 322.195C141.584 324.058 123.029 324.525 104.307 323.596L104.308 323.595Z" fill="url(#paint36_linear_433_4436)"/>
<path d="M159.181 321.364C165.433 321.639 171.128 307.59 171.902 289.985C172.676 272.379 168.236 257.884 161.984 257.609C155.732 257.334 150.037 271.383 149.263 288.989C148.489 306.594 152.93 321.089 159.181 321.364Z" fill="#D1F9FF"/>
<path opacity="0.6" d="M159.13 322.169C157.896 322.108 156.341 321.554 154.752 319.753C149.022 313.258 146.736 294.464 149.657 277.858C151.988 264.6 156.921 256.337 162.237 256.816L162.095 258.408C162.052 258.405 162.009 258.402 161.966 258.4C157.721 258.189 153.324 266.257 151.236 278.134C148.389 294.324 150.507 312.52 155.956 318.697C157.223 320.134 158.542 320.752 159.884 320.534L160.143 322.112C159.839 322.161 159.499 322.187 159.13 322.169Z" fill="url(#paint37_linear_433_4436)"/>
<path opacity="0.6" d="M160.143 322.113L159.884 320.535C163.258 319.985 167.672 313.682 169.93 300.839C172.777 284.65 170.659 266.453 165.21 260.276C164.201 259.132 163.153 258.504 162.095 258.409L162.238 256.817C163.719 256.949 165.124 257.758 166.414 259.22C172.144 265.715 174.43 284.509 171.509 301.116C169.372 313.273 165.017 321.319 160.143 322.113Z" fill="url(#paint38_linear_433_4436)"/>
<path d="M159.727 308.941C163.543 309.109 167.018 300.535 167.491 289.791C167.963 279.046 165.253 270.2 161.438 270.032C157.623 269.865 154.147 278.439 153.674 289.183C153.202 299.927 155.912 308.773 159.727 308.941Z" fill="#005679"/>
<path d="M390.958 199.851C389.175 214.584 367.98 233.39 353.675 236.422C353.503 236.338 346.565 240.416 345.91 239.748L345.899 239.736C345.765 239.601 345.642 239.456 345.531 239.302L345.543 239.319C345.547 239.325 345.545 239.321 345.546 239.322C354.78 252.074 357.516 255.51 366.314 266.118L366.318 266.122C368.098 268.231 369.899 270.324 371.718 272.4L371.656 272.329C385.861 288.485 400.843 303.191 418.275 317.711C419.803 318.974 421.338 320.229 422.879 321.478L422.826 321.435C423.238 321.765 423.632 321.927 423.914 322.05L423.912 322.048C424.506 322.274 424.848 322.315 425.057 322.36L425.056 322.359C425.635 322.464 426.255 322.465 426.319 322.468L426.318 322.468C426.788 322.469 427.258 322.444 427.725 322.392L427.724 322.392C428.365 322.32 428.868 322.215 429.316 322.125C429.315 322.125 429.315 322.124 429.315 322.124C429.942 321.984 430.563 321.819 431.176 321.627L431.176 321.626C431.953 321.378 432.721 321.1 433.478 320.792C434.565 320.347 435.626 319.848 436.682 319.309C440.073 317.594 444.33 314.75 447.689 312.059L447.69 312.061C448.912 311.09 450.109 310.088 451.281 309.057L451.282 309.059C452.161 308.283 453.025 307.491 453.874 306.682L453.875 306.684C454.619 305.973 455.353 305.251 456.074 304.517L456.075 304.517C456.743 303.835 457.401 303.143 458.049 302.441C458.669 301.767 459.279 301.083 459.878 300.39L459.878 300.391C460.467 299.706 461.046 299.012 461.613 298.309C462.659 297.002 463.263 296.177 463.298 296.13L463.299 296.131C464.333 294.735 464.948 293.804 464.985 293.75L464.986 293.751C466.074 292.129 466.569 291.243 466.747 290.951L466.748 290.952C468.023 288.756 469.274 286.208 469.881 283.746C470.413 281.866 470.488 279.126 469.403 277.774L469.401 277.77C460.145 264.979 457.432 261.589 448.632 250.975L448.629 250.97C431.731 230.956 413.289 212.78 392.167 195.692C393.289 196.599 391.094 197.77 390.957 199.852L390.958 199.851Z" fill="#D1F9FF"/>
<path opacity="0.6" d="M468.801 278.298L468.755 278.235L468.752 278.237C459.698 265.724 456.931 262.237 448.016 251.483C430.841 231.141 412.407 213.094 391.663 196.312L392.673 195.07C413.497 211.917 432.001 230.033 449.243 250.454C458.187 261.243 460.965 264.744 470.03 277.271L470.129 277.384L470.179 277.567L469.404 277.773L468.801 278.298Z" fill="url(#paint39_linear_433_4436)"/>
<path opacity="0.6" d="M417.762 318.325C400.842 304.232 385.563 289.359 371.054 272.857L371.051 272.854C369.386 270.956 367.644 268.931 365.73 266.667L365.696 266.628C356.832 255.94 354.065 252.453 344.896 239.791L344.885 239.775L344.88 239.769L344.874 239.759L345.598 239.249L346.03 238.684L346.136 238.765L346.201 238.862C346.282 238.972 346.37 239.075 346.47 239.176L346.445 239.2C355.378 251.53 358.167 255.041 366.913 265.586L366.931 265.608C368.708 267.713 370.505 269.802 372.321 271.874C386.757 288.285 401.958 303.079 418.789 317.099L417.762 318.325L417.762 318.325Z" fill="url(#paint40_linear_433_4436)"/>
<path d="M376.745 225.891C389.634 213.837 396.706 200.476 392.541 196.048C388.376 191.619 374.551 197.8 361.662 209.854C348.773 221.907 341.701 235.268 345.866 239.696C350.031 244.125 363.856 237.944 376.745 225.891Z" fill="#D1F9FF"/>
<path opacity="0.6" d="M349.399 241.93C347.422 241.831 345.891 241.141 344.923 239.827L346.215 238.881C346.892 239.799 348.017 240.28 349.495 240.354C353.563 240.556 360.307 237.668 367.743 232.295C381.088 222.653 392.377 208.217 392.911 200.114C393.027 198.354 392.608 197.075 391.666 196.314L392.675 195.072C393.617 195.834 394.7 197.344 394.511 200.219C393.95 208.735 382.365 223.704 368.684 233.589C360.851 239.25 353.946 242.155 349.399 241.929L349.399 241.93Z" fill="url(#paint41_linear_433_4436)"/>
<path opacity="0.6" d="M344.923 239.828C344.127 238.746 343.782 237.3 343.899 235.528C344.459 227.013 356.044 212.043 369.725 202.158C380.055 194.694 388.849 191.979 392.675 195.073L391.666 196.314C389.054 194.202 381.548 195.591 370.666 203.453C357.322 213.095 346.032 227.531 345.499 235.634C345.407 237.019 345.649 238.112 346.216 238.882L344.923 239.828Z" fill="url(#paint42_linear_433_4436)"/>
<path d="M374.482 223.477C381.818 216.6 385.533 208.657 382.779 205.735C380.024 202.813 371.844 206.02 364.507 212.897C357.171 219.774 353.456 227.717 356.21 230.639C358.965 233.561 367.145 230.354 374.482 223.477Z" fill="#005679"/>
<path d="M216.754 319.714C216.134 319.684 215.52 319.573 214.927 319.385L199.114 314.375C195.316 313.171 193.215 309.126 194.421 305.339C195.626 301.552 199.68 299.457 203.481 300.661L218.288 305.353L230.806 305.569C234.79 305.639 237.965 308.914 237.897 312.887C237.829 316.86 234.544 320.025 230.56 319.956L216.987 319.722C216.91 319.721 216.832 319.718 216.754 319.714ZM192.701 279.461C190.868 279.373 189.138 278.588 187.866 277.269C185.1 274.408 185.182 269.853 188.05 267.096L205.861 249.971C208.73 247.213 213.297 247.297 216.063 250.158C218.829 253.018 218.747 257.573 215.879 260.331L198.068 277.455C197.359 278.139 196.517 278.669 195.594 279.014C194.67 279.359 193.686 279.512 192.701 279.461Z" fill="#005679"/>
<path d="M220.223 313.244C219.601 313.213 218.985 313.102 218.391 312.913C201.393 307.513 200.987 307.355 200.719 307.251C197.005 305.808 195.167 301.637 196.613 297.935C198.035 294.293 202.105 292.46 205.773 293.776C206.752 294.106 215.552 296.91 221.64 298.844L238.602 298.556C242.598 298.488 245.872 301.653 245.941 305.626C246.01 309.599 242.836 312.875 238.852 312.943L220.705 313.252C220.544 313.255 220.383 313.252 220.223 313.244L220.223 313.244ZM205.796 293.784C205.849 293.803 205.901 293.823 205.953 293.843C205.923 293.831 205.871 293.811 205.796 293.784ZM290.511 228.591C288.127 228.473 285.853 227.179 284.587 224.955C282.619 221.499 283.833 217.108 287.299 215.147L301.693 206.799C301.886 206.69 302.084 206.589 302.287 206.498L324.026 196.72C327.658 195.086 331.931 196.698 333.57 200.321C335.209 203.943 333.594 208.204 329.962 209.837L308.528 219.479L294.423 227.662C293.234 228.337 291.877 228.659 290.511 228.591Z" fill="#005679"/>
<path d="M316.264 230.621C314.908 230.553 313.598 230.105 312.486 229.328C311.373 228.551 310.503 227.477 309.975 226.229C309.448 224.982 309.284 223.611 309.502 222.274C309.721 220.938 310.314 219.69 311.212 218.675L322.36 206.074C324.996 203.095 329.555 202.811 332.544 205.44C335.367 207.924 335.778 212.12 333.592 215.088L334.049 215.058C338.02 214.791 341.465 217.79 341.733 221.754C342 225.719 338.995 229.148 335.019 229.414L317.109 230.613C316.826 230.632 316.544 230.634 316.265 230.621L316.264 230.621Z" fill="#005679"/>
<path d="M329.545 236.501C328.279 236.437 327.052 236.043 325.987 235.356C324.923 234.67 324.058 233.716 323.481 232.59C322.903 231.465 322.633 230.207 322.698 228.945C322.763 227.682 323.16 226.459 323.849 225.399L333.65 210.33C335.817 206.996 340.287 206.048 343.629 208.21C346.973 210.373 347.925 214.828 345.757 218.162L344.041 220.801C347.032 221.396 349.43 223.854 349.797 227.038C350.253 230.986 347.413 234.553 343.454 235.006L330.728 236.462C330.332 236.507 329.936 236.52 329.546 236.5L329.545 236.501ZM241.822 303.712C241.592 303.7 241.361 303.678 241.129 303.644L222.767 300.969C222.349 300.908 221.938 300.811 221.538 300.679L200.951 293.868C197.169 292.617 195.119 288.545 196.373 284.774C197.627 281.003 201.71 278.959 205.491 280.211L225.476 286.822L243.211 289.405C247.154 289.98 249.884 293.633 249.309 297.564C248.768 301.265 245.492 303.893 241.822 303.711L241.822 303.712ZM189.859 308.496L159.694 305.626C158.58 305.52 157.536 305.038 156.734 304.26C155.932 303.483 155.42 302.456 155.282 301.349C154.253 293.12 154.492 283.899 157.244 276.879C158.048 274.828 160.101 273.544 162.3 273.753L192.897 276.664L189.859 308.496L189.859 308.496Z" fill="#005679"/>
<path d="M359.099 228.378L336.834 206.971L351.411 191.896C355.651 187.51 362.655 187.384 367.053 191.613L381.36 205.368C383.085 207.026 383.333 209.683 381.966 211.644C377.514 218.032 372.041 223.784 365.364 228.786C363.467 230.208 360.808 230.021 359.099 228.378Z" fill="#005679"/>
<path d="M172.64 275.22C173.282 262.288 192.079 263.222 195.403 260.026C205.861 249.97 216.131 260.088 210.7 265.309C205.269 270.531 206.224 280.453 214.364 283.146C222.505 285.839 207.526 316.567 201.956 315.275C196.387 313.982 185.145 309.51 183.335 308.01C181.525 306.511 184.315 301.445 183.226 294.381C181.207 281.283 172.38 280.447 172.639 275.22L172.64 275.22Z" fill="#D1F9FF"/>
<path opacity="0.6" d="M173.44 275.26L171.839 275.181C172.317 265.556 182.297 263.12 188.901 261.509C191.522 260.869 193.999 260.265 194.846 259.45C195.854 258.482 196.903 257.654 197.965 256.991L198.817 258.347C197.849 258.951 196.887 259.71 195.959 260.602C194.801 261.716 192.366 262.31 189.283 263.062C182.774 264.65 173.859 266.826 173.44 275.26L173.44 275.26Z" fill="url(#paint43_linear_433_4436)"/>
<path d="M319.446 198.78C325.726 195.706 340.864 187.114 347.169 185.779C353.475 184.444 359.252 188.28 359.917 191.758C360.582 195.237 362.359 220.589 355.417 225.465C348.474 230.34 341.252 230.295 334.071 227.328C326.889 224.362 310.592 203.114 319.446 198.78Z" fill="#D1F9FF"/>
<path opacity="0.6" d="M342.482 230.145C341.164 230.079 339.826 229.892 338.47 229.583L338.826 228.025C344.698 229.361 349.973 228.31 354.955 224.811C355.318 224.557 355.668 224.223 355.995 223.819L357.243 224.824C356.821 225.343 356.363 225.779 355.879 226.119C351.728 229.033 347.236 230.38 342.482 230.144L342.482 230.145Z" fill="url(#paint44_linear_433_4436)"/>
<path opacity="0.6" d="M319.799 199.498L319.092 198.063C320.65 197.3 322.738 196.205 325.157 194.937C332.334 191.175 342.163 186.022 347.003 184.997C350.489 184.258 354.162 184.944 357.077 186.877C359.059 188.19 360.381 189.915 360.705 191.609L359.13 191.908C358.89 190.653 357.791 189.27 356.19 188.208C353.631 186.512 350.404 185.912 347.336 186.561C342.714 187.54 332.997 192.634 325.903 196.353C323.474 197.626 321.377 198.725 319.799 199.498Z" fill="url(#paint45_linear_433_4436)"/>
<g opacity="0.9">
<path d="M247.781 90.2688C247.901 95.8371 244.245 99.9909 239.642 99.5563C235.069 99.1248 231.277 94.3207 231.146 88.8163C231.014 83.3038 234.602 79.1254 239.186 79.4935C243.8 79.8638 247.661 84.6925 247.781 90.2688ZM293.953 94.301C294.042 100.046 290.115 104.32 285.211 103.857C280.339 103.397 276.332 98.4306 276.23 92.7532C276.129 87.0674 279.981 82.7673 284.865 83.1594C289.781 83.5539 293.864 88.5469 293.953 94.301ZM249.288 108.042C249.553 115.998 255.403 123.021 262.504 123.8C269.675 124.587 275.431 118.721 275.383 110.644L249.288 108.043L249.288 108.042Z" fill="#3386FF"/>
</g>
<g opacity="0.9">
<path d="M245.38 88.6633C245.501 94.2316 241.845 98.3854 237.242 97.9508C232.668 97.5193 228.876 92.7152 228.745 87.2108C228.613 81.6984 232.201 77.52 236.785 77.888C241.399 78.2583 245.26 83.087 245.38 88.6633ZM291.552 92.6951C291.642 98.4403 287.714 102.714 282.81 102.251C277.938 101.792 273.931 96.8247 273.829 91.1473C273.728 85.4615 277.581 81.1614 282.464 81.5535C287.381 81.9481 291.463 86.9411 291.552 92.6951ZM246.887 106.436C247.152 114.392 253.002 121.415 260.103 122.194C267.274 122.981 273.03 117.115 272.982 109.038L246.887 106.437L246.887 106.436Z" fill="#7AFCB5"/>
</g>
<g opacity="0.9">
<path d="M247.787 87.8713C247.908 93.4396 244.252 97.5934 239.649 97.1588C235.075 96.7273 231.283 91.9232 231.152 86.4188C231.021 80.9064 234.608 76.728 239.192 77.096C243.806 77.4663 247.667 82.295 247.787 87.8713ZM293.959 91.9031C294.048 97.6483 290.121 101.922 285.216 101.459C280.345 101 276.337 96.0327 276.236 90.3553C276.135 84.6695 279.987 80.3694 284.871 80.7615C289.787 81.156 293.87 86.149 293.959 91.9031ZM249.295 105.644C249.559 113.6 255.409 120.623 262.51 121.402C269.681 122.189 275.437 116.323 275.39 108.246L249.294 105.645L249.295 105.644Z" fill="#FF719D"/>
</g>
<path d="M246.984 88.6682C247.104 94.2365 243.448 98.3903 238.845 97.9557C234.272 97.5242 230.479 92.7201 230.348 87.2157C230.217 81.7033 233.805 77.5248 238.389 77.8929C243.002 78.2632 246.863 83.0919 246.984 88.6682ZM293.155 92.7C293.245 98.4452 289.317 102.719 284.413 102.256C279.541 101.796 275.534 96.8296 275.432 91.1522C275.331 85.4664 279.184 81.1663 284.067 81.5584C288.984 81.9529 293.066 86.9459 293.155 92.7ZM248.491 106.441C248.756 114.397 254.606 121.42 261.706 122.199C268.877 122.986 274.634 117.12 274.586 109.043L248.491 106.441Z" fill="white"/>
<path d="M118.898 186.073C120.1 186.193 121.162 186.639 122.196 187.197C123.213 187.783 124.176 188.448 124.865 189.444C122.567 188.986 120.436 187.851 118.898 186.073Z" fill="#0EA8CC"/>
<path d="M49.7011 258.695C50.4624 256.981 51.3673 255.286 52.7773 253.998C53.1388 253.677 53.5566 253.386 54.0214 253.231C55.3913 252.871 56.824 252.769 58.222 252.554C84.2664 249.508 110.865 249.246 136.764 253.678C133.031 253.317 129.316 252.856 125.574 252.62C110.691 251.414 95.6186 251.293 80.7026 251.805C74.1966 252.03 67.578 252.391 61.0836 252.9C58.8721 253.081 56.6565 253.249 54.4543 253.516C53.9058 253.619 53.4089 253.886 52.9808 254.24C51.5647 255.424 50.5572 257.069 49.7011 258.695Z" fill="#05D8E8"/>
<path d="M183.335 308.011C188.104 309.55 193.232 311.843 197.87 313.789C199.473 314.441 201.055 315.165 202.748 315.551C197.641 315.748 187.681 310.885 183.335 308.011ZM206.945 273.868C208.668 278.001 210.972 282.23 215.455 283.79C210.364 283.967 206.917 278.503 206.945 273.868Z" fill="#0EA8CC"/>
<path d="M214.295 298.282C216.888 298.862 219.835 299.673 222.393 300.415C224.323 300.593 227.431 301.039 229.672 301.344C232.043 301.695 234.65 302.101 236.998 302.515C238.622 302.804 240.244 303.107 241.861 303.439L241.79 303.439C242.391 303.405 242.995 303.346 243.599 303.289C244.197 303.212 244.811 303.178 245.382 302.968C244.855 303.284 244.242 303.43 243.654 303.592C243.053 303.75 242.448 303.87 241.836 303.986C240.174 303.843 238.514 303.676 236.857 303.486C234.492 303.218 231.871 302.865 229.5 302.528C227.102 302.163 224.467 301.77 222.095 301.328C219.59 300.419 216.734 299.342 214.296 298.282L214.295 298.282ZM208.413 309.738C211.745 310.452 216.366 311.658 218.965 312.507C223.697 312.39 228.432 312.381 233.162 312.586C234.74 312.652 236.318 312.742 237.897 312.887C236.322 313.063 234.745 313.183 233.169 313.279C228.411 313.577 223.643 313.658 218.877 313.631C215.349 312.441 211.843 311.199 208.413 309.738ZM318.813 210.082C317.135 213.224 314.724 215.958 311.804 218.006C313.477 214.861 315.897 212.134 318.813 210.082ZM326.566 221.221C325.913 223.244 324.744 225.039 323.735 226.861C323.256 227.96 323.117 229.227 322.715 230.419C322.395 229.097 322.257 227.759 322.681 226.424C323.588 224.407 324.911 222.68 326.566 221.221Z" fill="#321450"/>
<path d="M349.828 228.344C351.451 226.892 353.397 226.2 355.417 225.465C354.547 227.442 351.896 228.501 349.828 228.344Z" fill="#0EA8CC"/>
<path opacity="0.6" d="M214.113 283.905C210.318 282.65 207.647 279.759 206.784 275.974C205.86 271.922 207.147 267.615 210.143 264.734C210.678 264.221 211.047 263.642 211.241 263.015L212.773 263.488C212.498 264.376 211.988 265.182 211.257 265.885C208.662 268.38 207.547 272.11 208.347 275.62C209.083 278.846 211.368 281.313 214.617 282.387L214.113 283.905Z" fill="url(#paint46_linear_433_4436)"/>
<path opacity="0.6" d="M202.188 316.11C202.047 316.103 201.91 316.084 201.775 316.053C196.332 314.79 184.819 310.278 182.823 308.625L183.847 307.395C185.54 308.797 196.575 313.205 202.138 314.496C202.267 314.526 202.42 314.52 202.594 314.478L202.969 316.033C202.713 316.096 202.451 316.122 202.188 316.11L202.188 316.11Z" fill="url(#paint47_linear_433_4436)"/>
<path opacity="0.6" d="M163.13 258.481C148.452 255.848 144.242 255.291 131.086 253.851L131.082 253.851C128.46 253.589 125.835 253.351 123.209 253.139C102.379 251.497 82.095 251.544 61.2173 253.282L60.3857 253.354L60.2437 251.761L61.1042 251.686C82.0931 249.941 102.481 249.897 123.426 251.553C125.816 251.744 128.444 251.982 131.241 252.26C144.46 253.707 148.683 254.266 163.414 256.907L163.131 258.481L163.13 258.481Z" fill="url(#paint48_linear_433_4436)"/>
</g>
<g clip-path="url(#clip3_433_4436)">
<path opacity="0.68" d="M357.662 138.116L434.586 152.48C437.37 153 439.707 150.355 438.871 147.629L429.832 118.162C429.635 117.52 429.273 116.942 428.782 116.488C428.29 116.033 427.688 115.718 427.037 115.575L369.825 102.996C367.16 102.41 364.78 104.781 365.332 107.471L369.201 126.313C369.837 129.411 368.048 132.491 365.056 133.45L357.522 135.865C356.378 136.232 356.481 137.896 357.662 138.116Z" fill="#34C21C"/>
<g opacity="0.9">
<path d="M435.613 154.187C436.86 154.187 438.047 153.657 438.899 152.693C439.936 151.519 440.28 149.922 439.82 148.42L430.781 118.953C430.549 118.201 430.124 117.523 429.548 116.99C428.971 116.457 428.266 116.088 427.501 115.919L370.289 103.34C368.821 103.017 367.308 103.46 366.24 104.524C365.715 105.044 365.328 105.69 365.115 106.4C364.902 107.11 364.87 107.863 365.02 108.589L368.889 127.432C369.166 128.768 368.941 130.161 368.256 131.339C367.572 132.518 366.477 133.398 365.184 133.81L357.65 136.224C356.847 136.482 356.343 137.224 356.395 138.071C356.448 138.918 357.04 139.592 357.869 139.746L434.793 154.11C435.063 154.161 435.338 154.186 435.613 154.187ZM369.342 104.549C369.565 104.549 369.789 104.573 370.012 104.622L427.224 117.202C427.762 117.32 428.26 117.581 428.666 117.957C429.072 118.333 429.372 118.81 429.535 119.341L438.574 148.808C438.735 149.324 438.76 149.873 438.646 150.401C438.532 150.929 438.284 151.418 437.925 151.821C437.194 152.648 436.111 153.023 435.03 152.82L358.106 138.456C357.748 138.389 357.702 138.082 357.696 137.989C357.69 137.897 357.699 137.586 358.046 137.475L365.579 135.061C367.179 134.552 368.535 133.462 369.382 132.003C370.23 130.544 370.509 128.82 370.165 127.166L366.296 108.324C366.19 107.811 366.213 107.281 366.364 106.78C366.514 106.279 366.786 105.825 367.156 105.457C367.737 104.876 368.523 104.55 369.342 104.55L369.342 104.549Z" fill="white"/>
<path d="M425.669 123.492L376.503 113.325L376.306 114.29L425.472 124.457L425.669 123.492ZM427.946 132.168L378.154 122.761L377.973 123.729L427.766 133.136L427.946 132.168ZM430.006 141.946L379.872 132.541L379.693 133.509L429.827 142.914L430.006 141.946Z" fill="white"/>
</g>
<g opacity="0.9">
<path d="M435.939 153.53C437.186 153.53 438.373 153 439.225 152.036C440.262 150.862 440.606 149.265 440.146 147.764L431.107 118.297C430.875 117.544 430.449 116.867 429.873 116.334C429.297 115.801 428.591 115.431 427.827 115.263L370.615 102.683C369.147 102.361 367.634 102.803 366.566 103.867C365.498 104.931 365.042 106.451 365.346 107.933L369.215 126.775C369.492 128.112 369.267 129.504 368.582 130.683C367.898 131.862 366.803 132.742 365.51 133.153L357.976 135.567C357.173 135.825 356.669 136.567 356.721 137.415C356.774 138.262 357.366 138.935 358.195 139.09L435.119 153.454C435.389 153.504 435.664 153.53 435.939 153.53ZM369.668 103.893C369.89 103.893 370.115 103.917 370.338 103.966L427.549 116.545C428.088 116.664 428.586 116.925 428.992 117.301C429.398 117.676 429.698 118.154 429.861 118.685L438.9 148.152C439.061 148.668 439.085 149.216 438.972 149.745C438.858 150.273 438.61 150.762 438.251 151.164C437.896 151.569 437.443 151.874 436.935 152.05C436.427 152.225 435.883 152.264 435.356 152.163L358.432 137.799C358.074 137.733 358.028 137.425 358.022 137.333C358.016 137.241 358.024 136.93 358.371 136.819L365.905 134.405C367.505 133.895 368.861 132.806 369.708 131.347C370.555 129.888 370.835 128.164 370.491 126.509L366.622 107.667C366.516 107.155 366.539 106.624 366.69 106.124C366.84 105.623 367.112 105.168 367.482 104.801C368.063 104.22 368.849 103.893 369.668 103.893L369.668 103.893Z" fill="white"/>
<path d="M425.995 122.836L376.829 112.669L376.632 113.634L425.798 123.801L425.995 122.836ZM428.272 131.512L378.479 122.104L378.299 123.072L428.092 132.48L428.272 131.512ZM430.418 141.04L380.196 131.884L380.022 132.852L430.244 142.009L430.418 141.04Z" fill="white"/>
</g>
<g opacity="0.9">
<path d="M434.961 152.546C436.208 152.546 437.396 152.016 438.247 151.052C439.284 149.878 439.629 148.281 439.168 146.779L430.129 117.312C429.897 116.56 429.472 115.883 428.896 115.35C428.32 114.817 427.614 114.447 426.85 114.278L369.638 101.699C368.17 101.377 366.656 101.819 365.588 102.883C364.52 103.947 364.064 105.467 364.368 106.949L368.237 125.791C368.515 127.127 368.289 128.52 367.605 129.699C366.92 130.877 365.825 131.758 364.532 132.169L356.999 134.583C356.196 134.841 355.691 135.583 355.744 136.431C355.796 137.278 356.388 137.951 357.217 138.106L434.141 152.47C434.412 152.52 434.686 152.545 434.961 152.546ZM368.691 102.908C368.913 102.908 369.137 102.932 369.36 102.982L426.572 115.561C427.111 115.68 427.608 115.94 428.015 116.316C428.421 116.692 428.721 117.17 428.884 117.7L437.923 147.167C438.083 147.683 438.108 148.232 437.994 148.76C437.88 149.288 437.632 149.777 437.274 150.18C436.919 150.585 436.465 150.89 435.958 151.066C435.45 151.241 434.906 151.28 434.379 151.179L357.455 136.815C357.096 136.748 357.05 136.441 357.044 136.348C357.038 136.256 357.047 135.945 357.394 135.835L364.928 133.42C366.528 132.911 367.883 131.821 368.73 130.362C369.578 128.903 369.857 127.179 369.514 125.525L365.645 106.683C365.539 106.171 365.562 105.64 365.712 105.139C365.862 104.638 366.135 104.184 366.505 103.817C367.086 103.235 367.871 102.909 368.69 102.909L368.691 102.908Z" fill="white"/>
<path d="M425.017 121.852L375.851 111.685L375.654 112.649L424.821 122.817L425.017 121.852ZM427.295 130.528L377.502 121.12L377.322 122.088L427.114 131.495L427.295 130.528ZM428.975 140.191L379.22 130.899L379.042 131.866L428.796 141.159L428.975 140.191Z" fill="white"/>
</g>
<path d="M435.287 153.202C436.534 153.202 437.721 152.673 438.573 151.708C439.61 150.535 439.954 148.938 439.494 147.436L430.455 117.969C430.223 117.216 429.798 116.539 429.222 116.006C428.646 115.473 427.94 115.104 427.176 114.935L369.963 102.356C368.496 102.032 366.982 102.475 365.914 103.539C364.846 104.603 364.39 106.123 364.694 107.605L368.563 126.447C368.841 127.784 368.615 129.177 367.93 130.355C367.246 131.534 366.151 132.414 364.858 132.826L357.325 135.24C356.521 135.497 356.017 136.24 356.069 137.087C356.122 137.934 356.714 138.608 357.543 138.762L434.467 153.126C434.737 153.177 435.012 153.202 435.287 153.202ZM369.017 103.565C369.239 103.565 369.463 103.589 369.686 103.638L426.898 116.217C427.436 116.336 427.934 116.597 428.34 116.973C428.747 117.349 429.046 117.826 429.21 118.357L438.249 147.824C438.409 148.34 438.434 148.889 438.32 149.417C438.206 149.945 437.958 150.434 437.6 150.836C437.245 151.242 436.791 151.547 436.283 151.722C435.776 151.897 435.232 151.936 434.704 151.835L357.78 137.471C357.422 137.405 357.376 137.098 357.37 137.005C357.364 136.913 357.373 136.602 357.72 136.491L365.254 134.077C366.854 133.568 368.209 132.478 369.056 131.019C369.904 129.56 370.183 127.836 369.84 126.181L365.971 107.339C365.865 106.827 365.888 106.297 366.038 105.796C366.188 105.295 366.461 104.84 366.831 104.473C367.412 103.892 368.197 103.565 369.016 103.565L369.017 103.565Z" fill="#D1F9FF"/>
<path d="M425.343 122.508L376.177 112.341L375.98 113.306L425.146 123.473L425.343 122.508ZM427.621 131.184L377.828 121.776L377.648 122.744L427.44 132.151L427.621 131.184ZM429.655 141.04L379.547 131.556L379.366 132.524L429.474 142.008L429.655 141.04Z" fill="#D1F9FF"/>
</g>
<g clip-path="url(#clip4_433_4436)">
<path opacity="0.68" d="M26.688 74.741L140.884 96.2464C142.914 96.6286 144.108 94.0387 142.503 92.7356L135.341 86.9214C133.358 85.312 131.759 83.2785 130.66 80.9698C129.562 78.661 128.992 76.1353 128.992 73.5772V51.8172C128.992 49.8768 128.332 47.9946 127.12 46.4816C125.908 44.9687 124.218 43.9156 122.329 43.4966L32.4193 23.5603C27.3428 22.4346 22.4572 26.1035 22.1061 31.305L19.7777 65.7907C19.487 70.0988 22.4555 73.9442 26.6875 74.7415L26.688 74.741Z" fill="#34C21C"/>
<g opacity="0.9">
<path d="M140.377 98.9782C141.487 98.9782 142.49 98.3471 142.974 97.2965C143.538 96.0729 143.215 94.6818 142.171 93.8338L135.008 88.0196C131.185 84.9162 128.992 80.3068 128.992 75.3739V53.6139C128.992 49.1603 125.963 45.3782 121.627 44.416L31.7168 24.4797C29.0418 23.8863 26.2503 24.4909 24.0577 26.1376C21.865 27.7843 20.5015 30.3006 20.3165 33.041L17.9882 67.5263C17.6666 72.2862 20.9508 76.5395 25.6263 77.4203L139.823 98.9261C140.005 98.9606 140.191 98.9781 140.377 98.9782ZM29.6864 26.0541C30.2342 26.0541 30.7851 26.1134 31.3298 26.2342L121.239 46.1705C124.749 46.9485 127.2 50.0097 127.2 53.6134V75.3734C127.2 80.8512 129.635 85.9696 133.881 89.4161L141.043 95.2303C141.531 95.6264 141.52 96.1677 141.348 96.5423C141.175 96.9174 140.771 97.279 140.154 97.16L25.9573 75.6546C22.1732 74.9422 19.5156 71.4997 19.7759 67.6476L22.1042 33.1623C22.1777 32.0673 22.4862 31.0012 23.0088 30.0369C23.5313 29.0726 24.2555 28.2329 25.1318 27.5754C26.4459 26.5876 28.044 26.0541 29.6864 26.0541Z" fill="white"/>
<path d="M116.267 57.1883L35.2268 39.7529L34.9455 41.0708L115.985 58.5057L116.267 57.1883ZM115.939 67.8127L34.5164 51.3584L34.2512 52.6798L115.673 69.1342L115.939 67.8127ZM115.607 78.5274L33.8002 63.0608L33.5516 64.3845L115.358 79.8511L115.607 78.5274Z" fill="white"/>
</g>
<g opacity="0.9">
<path d="M142.169 98.0794C143.279 98.0794 144.282 97.4483 144.766 96.3977C145.33 95.1741 145.007 93.783 143.962 92.935L136.8 87.1208C132.976 84.0174 130.784 79.4079 130.784 74.4751V52.715C130.784 48.2614 127.755 44.4794 123.418 43.5172L33.5086 23.5809C30.8335 22.9884 28.042 23.5921 25.8494 25.2388C23.6568 26.8855 22.2933 29.4018 22.1083 32.1422L19.7799 66.6275C19.4583 71.3874 22.7426 75.6407 27.4181 76.5215L141.614 98.0273C141.797 98.0618 141.983 98.0792 142.169 98.0794ZM31.4781 25.1552C32.0259 25.1552 32.5769 25.2145 33.1216 25.3354L123.031 45.2717C126.54 46.0497 128.992 49.1108 128.992 52.7146V74.4746C128.992 79.9523 131.426 85.0707 135.672 88.5173L142.835 94.3314C143.323 94.7276 143.312 95.2689 143.139 95.6435C142.967 96.0186 142.563 96.3797 141.945 96.2611L27.7491 74.7558C23.965 74.0434 21.3074 70.6009 21.5676 66.7487L23.896 32.2635C23.9694 31.1685 24.2779 30.1023 24.8005 29.138C25.3231 28.1738 26.0473 27.3341 26.9236 26.6766C28.2377 25.6888 29.8358 25.1553 31.4781 25.1552Z" fill="white"/>
<path d="M118.058 56.2884L37.019 38.8535L36.7373 40.171L117.777 57.6063L118.058 56.2884ZM117.731 66.9133L36.3091 50.4585L36.0434 51.78L117.465 68.2343L117.731 66.9133ZM117.399 77.6275L35.5924 62.1609L35.3433 63.4851L117.15 78.9513L117.399 77.6275Z" fill="white"/>
</g>
<g opacity="0.9">
<path d="M140.377 96.2829C141.487 96.2829 142.49 95.6518 142.974 94.6012C143.538 93.3776 143.215 91.9865 142.171 91.1384L135.008 85.3243C131.185 82.2209 128.992 77.6114 128.992 72.6785V50.9185C128.992 46.4649 125.963 42.6828 121.627 41.7207L31.7168 21.7843C30.3964 21.491 29.0284 21.4873 27.7065 21.7734C26.3845 22.0596 25.1398 22.6288 24.0577 23.4423C22.9749 24.2547 22.08 25.2922 21.4343 26.4837C20.7886 27.6753 20.4073 28.9927 20.3165 30.3457L17.9882 64.8309C17.6666 69.5909 20.9508 73.8442 25.6263 74.725L139.823 96.2308C140.005 96.2653 140.191 96.2827 140.377 96.2829ZM29.6864 23.3587C30.2342 23.3587 30.7851 23.418 31.3298 23.5388L121.239 43.4752C124.749 44.2532 127.2 47.3143 127.2 50.9181V72.6781C127.2 78.1558 129.635 83.2742 133.881 86.7208L141.043 92.5349C141.531 92.9311 141.52 93.4724 141.348 93.847C141.175 94.2216 140.771 94.5827 140.154 94.4646L25.9573 72.9593C22.1732 72.2469 19.5156 68.8044 19.7759 64.9522L22.1042 30.467C22.1777 29.372 22.4862 28.3058 23.0088 27.3415C23.5313 26.3772 24.2555 25.5376 25.1318 24.8801C26.4459 23.8923 28.044 23.3588 29.6864 23.3587Z" fill="white"/>
<path d="M116.267 54.4925L35.2273 37.0576L34.9455 38.3751L115.985 55.8099L116.267 54.4925ZM115.939 65.1174L34.5173 48.663L34.2517 49.9845L115.673 66.4388L115.939 65.1174ZM115.607 75.8316L33.8006 60.3655L33.5516 61.6892L115.359 77.1558L115.607 75.8316Z" fill="white"/>
</g>
<path d="M141.273 97.1814C142.383 97.1814 143.386 96.5503 143.87 95.4996C144.434 94.2761 144.111 92.885 143.066 92.0369L135.904 86.2227C132.08 83.1194 129.888 78.5099 129.888 73.577V51.817C129.888 47.3634 126.859 43.5813 122.522 42.6192L32.6127 22.6828C29.9377 22.0894 27.1462 22.694 24.9535 24.3407C22.7609 25.9874 21.3974 28.5037 21.2124 31.2442L18.8841 65.7294C18.5624 70.4894 21.8467 74.7426 26.5222 75.6235L140.718 97.1292C140.901 97.1638 141.087 97.1812 141.273 97.1814ZM30.5822 24.2572C31.1301 24.2572 31.681 24.3165 32.2257 24.4373L122.135 44.3737C125.645 45.1516 128.096 48.2128 128.096 51.8165V73.5766C128.096 79.0543 130.531 84.1727 134.777 87.6192L141.939 93.4334C142.427 93.8296 142.416 94.3708 142.244 94.7455C142.071 95.1205 141.667 95.4812 141.049 95.3631L26.8532 73.8577C23.0691 73.1453 20.4115 69.7028 20.6718 65.8507L23.0001 31.3654C23.0735 30.2704 23.3821 29.2043 23.9046 28.24C24.4272 27.2757 25.1514 26.4361 26.0277 25.7786C27.3418 24.7907 28.9399 24.2572 30.5822 24.2572Z" fill="white"/>
<path d="M117.163 55.3909L36.1231 37.9561L35.8414 39.2735L116.881 56.7084L117.163 55.3909ZM116.835 66.0158L35.4123 49.5615L35.1467 50.883L116.569 67.3373L116.835 66.0158ZM116.503 76.7301L34.6965 61.2639L34.4474 62.5877L116.255 78.0538L116.503 76.7301Z" fill="white"/>
</g>
<g clip-path="url(#clip5_433_4436)">
<path d="M249.185 228.274L243.643 227.712L244.012 219.087C244.044 218.337 244.349 217.709 244.928 217.203L250.995 211.981C251.445 211.588 252.101 211.434 252.963 211.522L268.758 213.124C269.558 213.205 270.194 213.521 270.665 214.07L276.231 220.566C276.762 221.185 277.011 221.869 276.979 222.619L276.735 228.338C276.703 229.088 276.365 229.744 275.723 230.307L259.564 243.732L259.196 252.357L253.654 251.795L254.075 241.951C254.11 241.139 254.416 240.48 254.994 239.973L271.337 226.567L271.481 223.192L267.413 218.542L253.834 217.165L249.502 220.868L249.185 228.274ZM253.169 263.138L258.711 263.7L258.466 269.418L252.925 268.856L253.169 263.138Z" fill="#3386FF"/>
<path d="M247.41 227.056L241.868 226.494L242.236 217.87C242.269 217.12 242.574 216.491 243.152 215.985L249.22 210.763C249.669 210.37 250.325 210.217 251.187 210.304L266.982 211.906C267.783 211.987 268.418 212.303 268.889 212.852L274.456 219.348C274.987 219.967 275.236 220.651 275.203 221.401L274.959 227.12C274.927 227.87 274.59 228.526 273.948 229.089L257.789 242.514L257.421 251.139L251.879 250.577L252.3 240.734C252.334 239.921 252.641 239.262 253.219 238.755L269.561 225.349L269.706 221.974L265.638 217.324L252.059 215.947L247.726 219.65L247.41 227.056ZM251.393 261.92L256.935 262.482L256.691 268.201L251.149 267.639L251.393 261.92Z" fill="#7AFCB5"/>
<path d="M249.379 226.831L243.837 226.269L244.205 217.644C244.238 216.894 244.543 216.266 245.121 215.76L251.189 210.538C251.638 210.144 252.294 209.991 253.156 210.078L268.951 211.68C269.751 211.762 270.387 212.077 270.858 212.627L276.425 219.123C276.955 219.742 277.205 220.426 277.172 221.176L276.928 226.895C276.896 227.645 276.559 228.301 275.917 228.863L259.758 242.289L259.389 250.913L253.848 250.351L254.268 240.508C254.303 239.696 254.61 239.036 255.187 238.53L271.53 225.123L271.675 221.748L267.607 217.099L254.028 215.722L249.695 219.425L249.379 226.831ZM253.362 261.695L258.904 262.257L258.66 267.975L253.118 267.413L253.362 261.695Z" fill="#FF719D"/>
<path d="M248.362 227.184L242.82 226.622L243.189 217.998C243.221 217.248 243.526 216.619 244.104 216.113L250.172 210.891C250.621 210.498 251.277 210.344 252.139 210.432L267.934 212.034C268.735 212.115 269.37 212.431 269.842 212.98L275.408 219.476C275.939 220.095 276.188 220.779 276.156 221.529L275.912 227.248C275.879 227.998 275.542 228.654 274.9 229.217L258.741 242.642L258.373 251.267L252.831 250.705L253.252 240.862C253.287 240.049 253.593 239.39 254.171 238.883L270.514 225.477L270.658 222.102L266.59 217.452L253.011 216.075L248.679 219.778L248.362 227.184ZM252.346 262.048L257.887 262.61L257.643 268.328L252.101 267.766L252.346 262.048Z" fill="white"/>
</g>
</g>
<defs>
<linearGradient id="paint0_linear_433_4436" x1="379.909" y1="89.1543" x2="-11.7704" y2="338.512" gradientUnits="userSpaceOnUse">
<stop stop-color="white"/>
<stop offset="0.335851" stop-color="#006FFD"/>
<stop offset="0.62839" stop-color="#006FFD"/>
<stop offset="1" stop-color="white"/>
</linearGradient>
<linearGradient id="paint1_linear_433_4436" x1="378.94" y1="90.1592" x2="-12.9273" y2="339.509" gradientUnits="userSpaceOnUse">
<stop stop-color="white"/>
<stop offset="0.335851" stop-color="#006FFD"/>
<stop offset="0.62839" stop-color="#006FFD"/>
<stop offset="1" stop-color="white"/>
</linearGradient>
<linearGradient id="paint2_linear_433_4436" x1="382.441" y1="88.8594" x2="-1.80242" y2="333.002" gradientUnits="userSpaceOnUse">
<stop stop-color="white"/>
<stop offset="0.335851" stop-color="#006FFD"/>
<stop offset="0.62839" stop-color="#006FFD"/>
<stop offset="1" stop-color="white"/>
</linearGradient>
<radialGradient id="paint3_radial_433_4436" cx="0" cy="0" r="1" gradientUnits="userSpaceOnUse" gradientTransform="translate(246.164 238.181) rotate(174.179) scale(187.238 187.599)">
<stop offset="0.092" stop-color="#05D8E8"/>
<stop offset="0.856" stop-color="#005679"/>
</radialGradient>
<linearGradient id="paint4_linear_433_4436" x1="390.48" y1="152.375" x2="33.6775" y2="404.484" gradientUnits="userSpaceOnUse">
<stop stop-color="#05D8E8" stop-opacity="0"/>
<stop offset="0.053" stop-color="#05D8E8"/>
<stop offset="0.44" stop-color="#05D8E8" stop-opacity="0.4"/>
<stop offset="0.859" stop-color="#05D8E8"/>
<stop offset="1" stop-color="#05D8E8" stop-opacity="0"/>
</linearGradient>
<linearGradient id="paint5_linear_433_4436" x1="235.901" y1="148.482" x2="101.003" y2="183.864" gradientUnits="userSpaceOnUse">
<stop stop-color="white"/>
<stop offset="0.335851" stop-color="#006FFD"/>
<stop offset="0.62839" stop-color="#006FFD"/>
<stop offset="1" stop-color="white"/>
</linearGradient>
<linearGradient id="paint6_linear_433_4436" x1="166.737" y1="395.679" x2="163.428" y2="395.874" gradientUnits="userSpaceOnUse">
<stop stop-color="white"/>
<stop offset="0.335851" stop-color="#006FFD"/>
<stop offset="0.62839" stop-color="#006FFD"/>
<stop offset="1" stop-color="white"/>
</linearGradient>
<linearGradient id="paint7_linear_433_4436" x1="303.537" y1="381.652" x2="221.995" y2="485.142" gradientUnits="userSpaceOnUse">
<stop stop-color="white"/>
<stop offset="0.335851" stop-color="#006FFD"/>
<stop offset="0.62839" stop-color="#006FFD"/>
<stop offset="1" stop-color="white"/>
</linearGradient>
<linearGradient id="paint8_linear_433_4436" x1="306.058" y1="400.738" x2="306.52" y2="436.884" gradientUnits="userSpaceOnUse">
<stop stop-color="#05D8E8" stop-opacity="0"/>
<stop offset="0.143" stop-color="#05D8E8"/>
<stop offset="0.564" stop-color="#05D8E8" stop-opacity="0.6"/>
<stop offset="0.859" stop-color="#05D8E8"/>
<stop offset="1" stop-color="#05D8E8" stop-opacity="0"/>
</linearGradient>
<linearGradient id="paint9_linear_433_4436" x1="175.032" y1="390.811" x2="176.711" y2="435.43" gradientUnits="userSpaceOnUse">
<stop offset="0.01" stop-color="#05D8E8" stop-opacity="0"/>
<stop offset="0.279" stop-color="#05D8E8"/>
<stop offset="0.519" stop-color="#05D8E8" stop-opacity="0.6"/>
<stop offset="0.859" stop-color="#05D8E8"/>
<stop offset="1" stop-color="#05D8E8" stop-opacity="0"/>
</linearGradient>
<linearGradient id="paint10_linear_433_4436" x1="369.575" y1="415.691" x2="343.258" y2="547.3" gradientUnits="userSpaceOnUse">
<stop stop-color="white"/>
<stop offset="0.335851" stop-color="#006FFD"/>
<stop offset="0.62839" stop-color="#006FFD"/>
<stop offset="1" stop-color="white"/>
</linearGradient>
<linearGradient id="paint11_linear_433_4436" x1="368.211" y1="402.312" x2="334.444" y2="546.672" gradientUnits="userSpaceOnUse">
<stop stop-color="white"/>
<stop offset="0.335851" stop-color="#006FFD"/>
<stop offset="0.62839" stop-color="#006FFD"/>
<stop offset="1" stop-color="white"/>
</linearGradient>
<linearGradient id="paint12_linear_433_4436" x1="373.17" y1="441.582" x2="52.7446" y2="440.884" gradientUnits="userSpaceOnUse">
<stop stop-color="#05D8E8" stop-opacity="0"/>
<stop offset="0.143" stop-color="#05D8E8"/>
<stop offset="0.564" stop-color="#05D8E8" stop-opacity="0.4"/>
<stop offset="0.859" stop-color="#05D8E8"/>
<stop offset="1" stop-color="#05D8E8" stop-opacity="0"/>
</linearGradient>
<linearGradient id="paint13_linear_433_4436" x1="328.511" y1="258.499" x2="411.534" y2="312.944" gradientUnits="userSpaceOnUse">
<stop offset="0.01" stop-color="#FF296D" stop-opacity="0"/>
<stop offset="0.152" stop-color="#FF296D"/>
<stop offset="0.423" stop-color="#FF296D" stop-opacity="0.4"/>
<stop offset="0.835" stop-color="#FF296D"/>
<stop offset="1" stop-color="#FF296D" stop-opacity="0"/>
</linearGradient>
<linearGradient id="paint14_linear_433_4436" x1="163.307" y1="364.458" x2="149.879" y2="219.704" gradientUnits="userSpaceOnUse">
<stop offset="0.01" stop-color="#FF296D" stop-opacity="0"/>
<stop offset="0.152" stop-color="#FF296D"/>
<stop offset="0.423" stop-color="#FF296D" stop-opacity="0.4"/>
<stop offset="0.835" stop-color="#FF296D"/>
<stop offset="1" stop-color="#FF296D" stop-opacity="0"/>
</linearGradient>
<linearGradient id="paint15_linear_433_4436" x1="172.748" y1="369.778" x2="324.628" y2="359.68" gradientUnits="userSpaceOnUse">
<stop stop-color="#05D8E8" stop-opacity="0"/>
<stop offset="0.143" stop-color="#05D8E8"/>
<stop offset="0.51" stop-color="#05D8E8" stop-opacity="0.4"/>
<stop offset="0.859" stop-color="#05D8E8"/>
<stop offset="1" stop-color="#05D8E8" stop-opacity="0"/>
</linearGradient>
<linearGradient id="paint16_linear_433_4436" x1="118.718" y1="187.438" x2="175.879" y2="167.615" gradientUnits="userSpaceOnUse">
<stop offset="0.01" stop-color="#FF296D" stop-opacity="0"/>
<stop offset="0.152" stop-color="#FF296D"/>
<stop offset="0.423" stop-color="#FF296D" stop-opacity="0.4"/>
<stop offset="0.835" stop-color="#FF296D"/>
<stop offset="1" stop-color="#FF296D" stop-opacity="0"/>
</linearGradient>
<linearGradient id="paint17_linear_433_4436" x1="113.919" y1="184.113" x2="46.165" y2="249.522" gradientUnits="userSpaceOnUse">
<stop offset="0.01" stop-color="#FF296D" stop-opacity="0"/>
<stop offset="0.152" stop-color="#FF296D"/>
<stop offset="0.423" stop-color="#FF296D" stop-opacity="0.4"/>
<stop offset="0.835" stop-color="#FF296D"/>
<stop offset="1" stop-color="#FF296D" stop-opacity="0"/>
</linearGradient>
<linearGradient id="paint18_linear_433_4436" x1="91.5657" y1="263.571" x2="151.927" y2="266.567" gradientUnits="userSpaceOnUse">
<stop stop-color="#05D8E8" stop-opacity="0"/>
<stop offset="0.143" stop-color="#05D8E8"/>
<stop offset="0.51" stop-color="#05D8E8" stop-opacity="0.4"/>
<stop offset="0.859" stop-color="#05D8E8"/>
<stop offset="1" stop-color="#05D8E8" stop-opacity="0"/>
</linearGradient>
<linearGradient id="paint19_linear_433_4436" x1="309.649" y1="85.9909" x2="319.113" y2="116.143" gradientUnits="userSpaceOnUse">
<stop offset="0.075" stop-color="#FA87FF" stop-opacity="0.3"/>
<stop offset="0.846" stop-color="#05D8E8"/>
</linearGradient>
<linearGradient id="paint20_linear_433_4436" x1="313.791" y1="52.776" x2="324.609" y2="94.2062" gradientUnits="userSpaceOnUse">
<stop stop-color="#FA87FF" stop-opacity="0.3"/>
<stop offset="0.846" stop-color="#05D8E8"/>
</linearGradient>
<linearGradient id="paint21_linear_433_4436" x1="321.505" y1="76.0608" x2="321.386" y2="118.447" gradientUnits="userSpaceOnUse">
<stop stop-color="#FA87FF" stop-opacity="0.3"/>
<stop offset="0.846" stop-color="#05D8E8"/>
</linearGradient>
<linearGradient id="paint22_linear_433_4436" x1="183.803" y1="162.804" x2="185.767" y2="55.6189" gradientUnits="userSpaceOnUse">
<stop offset="0.01" stop-color="#FF296D" stop-opacity="0"/>
<stop offset="0.152" stop-color="#FF296D"/>
<stop offset="0.423" stop-color="#FF296D" stop-opacity="0.4"/>
<stop offset="0.835" stop-color="#FF296D"/>
<stop offset="1" stop-color="#FF296D" stop-opacity="0"/>
</linearGradient>
<linearGradient id="paint23_linear_433_4436" x1="312.919" y1="167.022" x2="195.798" y2="170.08" gradientUnits="userSpaceOnUse">
<stop stop-color="#05D8E8" stop-opacity="0"/>
<stop offset="0.143" stop-color="#05D8E8"/>
<stop offset="0.51" stop-color="#05D8E8" stop-opacity="0.4"/>
<stop offset="0.859" stop-color="#05D8E8"/>
<stop offset="1" stop-color="#05D8E8" stop-opacity="0"/>
</linearGradient>
<linearGradient id="paint24_linear_433_4436" x1="333.741" y1="77.9829" x2="327.149" y2="129.686" gradientUnits="userSpaceOnUse">
<stop stop-color="#05D8E8" stop-opacity="0"/>
<stop offset="0.143" stop-color="#05D8E8"/>
<stop offset="0.51" stop-color="#05D8E8" stop-opacity="0.4"/>
<stop offset="0.859" stop-color="#05D8E8"/>
<stop offset="1" stop-color="#05D8E8" stop-opacity="0"/>
</linearGradient>
<linearGradient id="paint25_linear_433_4436" x1="314.176" y1="167.711" x2="320.428" y2="55.22" gradientUnits="userSpaceOnUse">
<stop offset="0.057" stop-color="#05D8E8" stop-opacity="0"/>
<stop offset="0.13" stop-color="#05D8E8"/>
<stop offset="0.51" stop-color="#05D8E8" stop-opacity="0.4"/>
<stop offset="0.859" stop-color="#05D8E8"/>
<stop offset="1" stop-color="#05D8E8" stop-opacity="0"/>
</linearGradient>
<linearGradient id="paint26_linear_433_4436" x1="176.177" y1="122.269" x2="275.904" y2="27.1713" gradientUnits="userSpaceOnUse">
<stop offset="0.01" stop-color="#FF296D" stop-opacity="0"/>
<stop offset="0.152" stop-color="#FF296D"/>
<stop offset="0.423" stop-color="#FF296D" stop-opacity="0.4"/>
<stop offset="0.835" stop-color="#FF296D"/>
<stop offset="1" stop-color="#FF296D" stop-opacity="0"/>
</linearGradient>
<linearGradient id="paint27_linear_433_4436" x1="161.244" y1="46.7418" x2="172.062" y2="88.1721" gradientUnits="userSpaceOnUse">
<stop stop-color="#FA87FF" stop-opacity="0.3"/>
<stop offset="0.846" stop-color="#05D8E8"/>
</linearGradient>
<linearGradient id="paint28_linear_433_4436" x1="171.14" y1="81.5104" x2="162.386" y2="40.9793" gradientUnits="userSpaceOnUse">
<stop offset="0.162" stop-color="#FA87FF" stop-opacity="0"/>
<stop offset="0.272" stop-color="#FA87FF"/>
<stop offset="0.48" stop-color="#FA87FF" stop-opacity="0.4"/>
<stop offset="0.65" stop-color="#05D8E8"/>
<stop offset="0.952" stop-color="#05D8E8" stop-opacity="0"/>
</linearGradient>
<linearGradient id="paint29_linear_433_4436" x1="312.679" y1="149.304" x2="207.978" y2="56.3352" gradientUnits="userSpaceOnUse">
<stop stop-color="#FA87FF" stop-opacity="0"/>
<stop offset="0.143" stop-color="#FA87FF"/>
<stop offset="0.48" stop-color="#FA87FF" stop-opacity="0.4"/>
<stop offset="0.771" stop-color="#05D8E8"/>
<stop offset="0.983" stop-color="#05D8E8" stop-opacity="0"/>
</linearGradient>
<linearGradient id="paint30_linear_433_4436" x1="157.103" y1="79.9557" x2="166.567" y2="110.108" gradientUnits="userSpaceOnUse">
<stop offset="0.075" stop-color="#FA87FF" stop-opacity="0.3"/>
<stop offset="0.846" stop-color="#05D8E8"/>
</linearGradient>
<linearGradient id="paint31_linear_433_4436" x1="165.055" y1="105.028" x2="155.969" y2="79.7508" gradientUnits="userSpaceOnUse">
<stop stop-color="#FA87FF" stop-opacity="0"/>
<stop offset="0.143" stop-color="#FA87FF"/>
<stop offset="0.48" stop-color="#FA87FF" stop-opacity="0.4"/>
<stop offset="0.771" stop-color="#05D8E8"/>
<stop offset="0.983" stop-color="#05D8E8" stop-opacity="0"/>
</linearGradient>
<linearGradient id="paint32_linear_433_4436" x1="168.959" y1="70.0271" x2="168.841" y2="112.413" gradientUnits="userSpaceOnUse">
<stop stop-color="#FA87FF" stop-opacity="0.3"/>
<stop offset="0.846" stop-color="#05D8E8"/>
</linearGradient>
<linearGradient id="paint33_linear_433_4436" x1="171.982" y1="118.737" x2="165.264" y2="66.784" gradientUnits="userSpaceOnUse">
<stop stop-color="#FA87FF" stop-opacity="0"/>
<stop offset="0.143" stop-color="#FA87FF"/>
<stop offset="0.48" stop-color="#FA87FF" stop-opacity="0.4"/>
<stop offset="0.771" stop-color="#05D8E8"/>
<stop offset="0.983" stop-color="#05D8E8" stop-opacity="0"/>
</linearGradient>
<linearGradient id="paint34_linear_433_4436" x1="282.352" y1="149.065" x2="142.36" y2="288.441" gradientUnits="userSpaceOnUse">
<stop offset="0.01" stop-color="#FF296D" stop-opacity="0"/>
<stop offset="0.152" stop-color="#FF296D"/>
<stop offset="0.423" stop-color="#FF296D" stop-opacity="0.4"/>
<stop offset="0.835" stop-color="#FF296D"/>
<stop offset="1" stop-color="#FF296D" stop-opacity="0"/>
</linearGradient>
<linearGradient id="paint35_linear_433_4436" x1="211.193" y1="374.608" x2="370.919" y2="229.578" gradientUnits="userSpaceOnUse">
<stop stop-color="#05D8E8" stop-opacity="0"/>
<stop offset="0.143" stop-color="#05D8E8"/>
<stop offset="0.51" stop-color="#05D8E8" stop-opacity="0.4"/>
<stop offset="0.859" stop-color="#05D8E8"/>
<stop offset="1" stop-color="#05D8E8" stop-opacity="0"/>
</linearGradient>
<linearGradient id="paint36_linear_433_4436" x1="45.552" y1="309.856" x2="153.613" y2="322.15" gradientUnits="userSpaceOnUse">
<stop stop-color="#05D8E8" stop-opacity="0"/>
<stop offset="0.143" stop-color="#05D8E8"/>
<stop offset="0.51" stop-color="#05D8E8" stop-opacity="0.4"/>
<stop offset="0.859" stop-color="#05D8E8"/>
<stop offset="1" stop-color="#05D8E8" stop-opacity="0"/>
</linearGradient>
<linearGradient id="paint37_linear_433_4436" x1="157.103" y1="258.933" x2="153.517" y2="318.576" gradientUnits="userSpaceOnUse">
<stop offset="0.01" stop-color="#FF296D" stop-opacity="0"/>
<stop offset="0.152" stop-color="#FF296D"/>
<stop offset="0.423" stop-color="#FF296D" stop-opacity="0.4"/>
<stop offset="0.835" stop-color="#FF296D"/>
<stop offset="1" stop-color="#FF296D" stop-opacity="0"/>
</linearGradient>
<linearGradient id="paint38_linear_433_4436" x1="164.009" y1="319.115" x2="168.529" y2="259.519" gradientUnits="userSpaceOnUse">
<stop stop-color="#05D8E8" stop-opacity="0"/>
<stop offset="0.143" stop-color="#05D8E8"/>
<stop offset="0.51" stop-color="#05D8E8" stop-opacity="0.4"/>
<stop offset="0.859" stop-color="#05D8E8"/>
<stop offset="1" stop-color="#05D8E8" stop-opacity="0"/>
</linearGradient>
<linearGradient id="paint39_linear_433_4436" x1="395.72" y1="196.224" x2="468.805" y2="276.073" gradientUnits="userSpaceOnUse">
<stop stop-color="#05D8E8" stop-opacity="0"/>
<stop offset="0.143" stop-color="#05D8E8"/>
<stop offset="0.51" stop-color="#05D8E8" stop-opacity="0.4"/>
<stop offset="0.859" stop-color="#05D8E8"/>
<stop offset="1" stop-color="#05D8E8" stop-opacity="0"/>
</linearGradient>
<linearGradient id="paint40_linear_433_4436" x1="345.914" y1="241.208" x2="415.393" y2="317.944" gradientUnits="userSpaceOnUse">
<stop offset="0.01" stop-color="#FF296D" stop-opacity="0"/>
<stop offset="0.152" stop-color="#FF296D"/>
<stop offset="0.423" stop-color="#FF296D" stop-opacity="0.4"/>
<stop offset="0.835" stop-color="#FF296D"/>
<stop offset="1" stop-color="#FF296D" stop-opacity="0"/>
</linearGradient>
<linearGradient id="paint41_linear_433_4436" x1="395.535" y1="200.114" x2="350.147" y2="243.919" gradientUnits="userSpaceOnUse">
<stop stop-color="#05D8E8" stop-opacity="0"/>
<stop offset="0.143" stop-color="#05D8E8"/>
<stop offset="0.51" stop-color="#05D8E8" stop-opacity="0.4"/>
<stop offset="0.859" stop-color="#05D8E8"/>
<stop offset="1" stop-color="#05D8E8" stop-opacity="0"/>
</linearGradient>
<linearGradient id="paint42_linear_433_4436" x1="344.734" y1="193.531" x2="369.209" y2="217.995" gradientUnits="userSpaceOnUse">
<stop offset="0.01" stop-color="#FF296D" stop-opacity="0"/>
<stop offset="0.152" stop-color="#FF296D"/>
<stop offset="0.423" stop-color="#FF296D" stop-opacity="0.4"/>
<stop offset="0.762" stop-color="#FF296D"/>
<stop offset="0.956" stop-color="#FF296D" stop-opacity="0"/>
</linearGradient>
<linearGradient id="paint43_linear_433_4436" x1="173.161" y1="271.807" x2="197.392" y2="257.654" gradientUnits="userSpaceOnUse">
<stop offset="0.01" stop-color="#FF296D" stop-opacity="0"/>
<stop offset="0.367" stop-color="#FF296D"/>
<stop offset="0.725" stop-color="#FF296D" stop-opacity="0.4"/>
<stop offset="1" stop-color="#FF296D" stop-opacity="0"/>
</linearGradient>
<linearGradient id="paint44_linear_433_4436" x1="340.448" y1="229.627" x2="354.653" y2="225.925" gradientUnits="userSpaceOnUse">
<stop stop-color="#05D8E8" stop-opacity="0"/>
<stop offset="0.143" stop-color="#05D8E8"/>
<stop offset="0.51" stop-color="#05D8E8" stop-opacity="0.4"/>
<stop offset="0.859" stop-color="#05D8E8"/>
<stop offset="1" stop-color="#05D8E8" stop-opacity="0"/>
</linearGradient>
<linearGradient id="paint45_linear_433_4436" x1="320.604" y1="198.662" x2="356.316" y2="187.425" gradientUnits="userSpaceOnUse">
<stop offset="0.01" stop-color="#FF296D" stop-opacity="0"/>
<stop offset="0.152" stop-color="#FF296D"/>
<stop offset="0.423" stop-color="#FF296D" stop-opacity="0.4"/>
<stop offset="0.835" stop-color="#FF296D"/>
<stop offset="1" stop-color="#FF296D" stop-opacity="0"/>
</linearGradient>
<linearGradient id="paint46_linear_433_4436" x1="208.98" y1="264.162" x2="211.586" y2="282.982" gradientUnits="userSpaceOnUse">
<stop stop-color="#05D8E8" stop-opacity="0"/>
<stop offset="0.143" stop-color="#05D8E8"/>
<stop offset="0.51" stop-color="#05D8E8" stop-opacity="0.4"/>
<stop offset="1" stop-color="#05D8E8" stop-opacity="0"/>
</linearGradient>
<linearGradient id="paint47_linear_433_4436" x1="183.909" y1="308.448" x2="201.049" y2="315.175" gradientUnits="userSpaceOnUse">
<stop stop-color="#05D8E8" stop-opacity="0"/>
<stop offset="0.278" stop-color="#05D8E8"/>
<stop offset="0.859" stop-color="#05D8E8"/>
<stop offset="1" stop-color="#05D8E8" stop-opacity="0"/>
</linearGradient>
<linearGradient id="paint48_linear_433_4436" x1="62.853" y1="251.659" x2="159.087" y2="255.492" gradientUnits="userSpaceOnUse">
<stop offset="0.01" stop-color="#FF296D" stop-opacity="0"/>
<stop offset="0.152" stop-color="#FF296D"/>
<stop offset="0.423" stop-color="#FF296D" stop-opacity="0.4"/>
<stop offset="0.835" stop-color="#FF296D"/>
<stop offset="1" stop-color="#FF296D" stop-opacity="0"/>
</linearGradient>
<clipPath id="clip0_433_4436">
<rect width="490" height="490" fill="white"/>
</clipPath>
<clipPath id="clip1_433_4436">
<rect width="364.56" height="368.153" fill="white" transform="matrix(-0.994843 0.101429 0.101429 0.994843 383.496 87.6475)"/>
</clipPath>
<clipPath id="clip2_433_4436">
<rect width="437.407" height="329.933" fill="white" transform="translate(45.3617 31.1729) rotate(2.842)"/>
</clipPath>
<clipPath id="clip3_433_4436">
<rect width="84.6067" height="52.5933" fill="white" transform="matrix(-1 0 0 1 440.347 101.594)"/>
</clipPath>
<clipPath id="clip4_433_4436">
<rect width="127.073" height="77.42" fill="white" transform="matrix(-1 0 0 1 145.04 21.5596)"/>
</clipPath>
<clipPath id="clip5_433_4436">
<rect width="35.6067" height="58.8" fill="white" transform="translate(243.512 208.268) rotate(7.63725)"/>
</clipPath>
</defs>
</svg>
