<svg width="40" height="40" viewBox="0 0 40 40" fill="none" xmlns="http://www.w3.org/2000/svg">
<path d="M26.1294 14.6244H13.8733C12.9597 14.6244 12.2188 13.8838 12.2188 12.9702V12.9589C12.2188 12.0453 12.9597 11.3047 13.8733 11.3047H26.1294C27.0461 11.3047 27.7892 12.0478 27.7892 12.9645C27.7892 13.8811 27.0461 14.6244 26.1294 14.6244Z" fill="#FFB69F"/>
<path d="M31.4249 24.2652V39.209H8.57495V24.2652C8.57495 23.9715 8.60933 23.6855 8.67651 23.4105C9.01089 22.0246 10.1437 20.9293 11.6031 20.6809L14.8671 20.1262L19.9999 19.2559L25.1328 20.1262L28.3968 20.6809C29.8562 20.9293 30.989 22.0246 31.3234 23.4105C31.3906 23.6855 31.4249 23.9715 31.4249 24.2652Z" fill="#878787"/>
<path d="M31.4249 24.2658V39.2096H8.57495V24.2658C8.57495 23.9721 8.60933 23.6861 8.67651 23.4111H31.3234C31.3906 23.6861 31.4249 23.9721 31.4249 24.2658Z" fill="#4C4944"/>
<path d="M22.7814 16.4043V20.4112C22.7814 21.9473 21.5361 23.1926 20 23.1926C18.4639 23.1926 17.2186 21.9473 17.2186 20.4112V16.4043H22.7814Z" fill="#FFB69F"/>
<path d="M22.7814 16.4043V19.8824C21.0543 20.6079 19.0221 20.6468 17.2186 19.8841V16.4045L22.7814 16.4043Z" fill="#EA8F7C"/>
<path d="M25.5719 9.5918L25.5703 13.6879C25.5703 16.8496 22.9861 19.2557 20.0025 19.2557C16.8857 19.2601 14.4363 16.7141 14.4363 13.6879V9.5918H25.5719Z" fill="#FFB69F"/>
<path d="M25.5697 9.5918H14.4341V10.6971H25.5697V9.5918Z" fill="#EA8F7C"/>
<path d="M25.8854 7.48195H25.6014C25.6014 4.80461 23.7056 2.57164 21.1807 2.05352V1.96867C21.1807 1.31836 20.6534 0.791016 20.0017 0.791016C19.3514 0.791016 18.824 1.31836 18.824 1.96867V2.05352C16.3006 2.57227 14.4034 4.80445 14.4034 7.48195H14.1192C13.5451 7.48195 13.0632 7.94508 13.0632 8.53648C13.0632 9.11898 13.5354 9.59102 14.1192 9.59102H25.8851C26.4712 9.59102 26.9412 9.11523 26.9412 8.53648C26.9414 7.95414 26.4678 7.48195 25.8854 7.48195Z" fill="#EFBF27"/>
<path d="M35.186 25.2861V38.4283C35.186 38.8596 34.836 39.2096 34.4047 39.2096H5.59534C5.16409 39.2096 4.81409 38.8596 4.81409 38.4283V25.2861C4.81409 24.8549 5.16409 24.5049 5.59534 24.5049H34.4047C34.836 24.5049 35.186 24.8549 35.186 25.2861Z" fill="#72C2E9"/>
<path d="M35.1859 27.4502V34.508H34.3812C33.2609 34.508 32.35 33.5971 32.35 32.4768V29.4814C32.35 28.3611 33.2609 27.4502 34.3812 27.4502H35.1859Z" fill="#4BA5C8"/>
<path d="M7.65002 29.4814V32.4768C7.65002 33.5971 6.73909 34.508 5.61877 34.508H4.81409V27.4502H5.61877C6.73909 27.4502 7.65002 28.3611 7.65002 29.4814Z" fill="#4BA5C8"/>
<path d="M36.9267 30.1064V31.8518C36.9267 32.7143 36.2267 33.4143 35.3642 33.4143H34.3813C33.8626 33.4143 33.4438 32.9939 33.4438 32.4768V29.4814C33.4438 28.9643 33.8626 28.5439 34.3813 28.5439H35.3642C36.2267 28.5439 36.9267 29.2439 36.9267 30.1064Z" fill="#FFB69F"/>
<path d="M3.07324 31.8518V30.1064C3.07324 29.2439 3.77324 28.5439 4.63574 28.5439H5.61855C6.1373 28.5439 6.55605 28.9643 6.55605 29.4814V32.4768C6.55605 32.9939 6.1373 33.4143 5.61855 33.4143H4.63574C3.77324 33.4143 3.07324 32.7143 3.07324 31.8518Z" fill="#FFB69F"/>
<path d="M20 32.7766C19.4172 32.7766 18.9437 32.3641 18.9437 31.8578C18.9437 31.35 19.4172 30.9375 20 30.9375C20.5828 30.9375 21.0562 31.35 21.0562 31.8578C21.0562 32.3641 20.5828 32.7766 20 32.7766Z" fill="#4BA5C8"/>
<path d="M24.708 32.8818L24.1775 32.5757C24.2716 32.0989 24.2736 31.6257 24.1775 31.1386L24.708 30.8325C25.0632 30.6274 25.185 30.1727 24.98 29.8175L24.2563 28.5647C24.0511 28.2096 23.598 28.0877 23.2413 28.2927L22.5621 28.685C22.2307 28.4502 21.8621 28.26 21.4668 28.1233V27.2674C21.4668 26.8572 21.1339 26.5244 20.7238 26.5244H19.2763C18.8661 26.5244 18.5333 26.8572 18.5333 27.2674V28.1233C18.138 28.26 17.7694 28.4502 17.438 28.685L16.7588 28.2927C16.4021 28.0875 15.9489 28.2094 15.7438 28.5647L15.02 29.8175C14.8149 30.1727 14.9368 30.6274 15.2921 30.8325L15.8225 31.1386C15.7264 31.6255 15.7285 32.0988 15.8225 32.5757L15.2921 32.8818C14.9369 33.0869 14.815 33.5416 15.02 33.8968L15.7438 35.1496C15.9489 35.5047 16.4021 35.6266 16.7588 35.4216L17.438 35.0293C17.7694 35.2641 18.138 35.4543 18.5333 35.591V36.4469C18.5333 36.8571 18.8661 37.1899 19.2763 37.1899H20.7238C21.1339 37.1899 21.4668 36.8571 21.4668 36.4469V35.591C21.8621 35.4543 22.2307 35.2641 22.5621 35.0293L23.2413 35.4216C23.598 35.6268 24.0511 35.5049 24.2563 35.1496L24.98 33.8968C25.185 33.5416 25.0632 33.0868 24.708 32.8818ZM20 33.8704C18.8121 33.8704 17.8496 32.9689 17.8496 31.8577C17.8496 30.7452 18.8122 29.8438 20 29.8438C21.188 29.8438 22.1505 30.7452 22.1505 31.8577C22.1505 32.9689 21.188 33.8704 20 33.8704Z" fill="#EFEFEF"/>
<path d="M28.8172 19.0943C28.6336 18.3024 28.5122 17.7793 27.4389 17.4246C27.082 17.3068 27.0828 16.8004 27.4389 16.6827C28.0618 16.4769 28.512 16.3282 28.8172 15.013C28.9104 14.6121 29.4847 14.611 29.5782 15.013C29.8907 16.3594 30.3595 16.4857 30.9565 16.6829C31.3134 16.8007 31.3126 17.3069 30.9565 17.4246C30.3334 17.6305 29.8832 17.7794 29.5782 19.0943C29.4848 19.4971 28.9106 19.4971 28.8172 19.0943Z" fill="black"/>
<path d="M29.882 17.0572C29.6273 17.2291 29.3992 17.465 29.207 17.8213C29.0523 17.5463 28.8304 17.2869 28.4929 17.0635C28.7617 16.8869 28.9992 16.6432 29.1992 16.2666C29.4023 16.6494 29.6382 16.8916 29.882 17.0572Z" fill="#F0C020"/>
<path d="M28.8172 19.0943C28.6336 18.3024 28.5122 17.7793 27.4389 17.4246C27.082 17.3068 27.0828 16.8004 27.4389 16.6827C28.0618 16.4769 28.512 16.3282 28.8172 15.013C28.9104 14.6121 29.4847 14.611 29.5782 15.013C29.8907 16.3594 30.3595 16.4857 30.9565 16.6829C31.3134 16.8007 31.3126 17.3069 30.9565 17.4246C30.3334 17.6305 29.8832 17.7794 29.5782 19.0943C29.4848 19.4971 28.9106 19.4971 28.8172 19.0943Z" fill="black"/>
<path d="M29.882 17.0572C29.6273 17.2291 29.3992 17.465 29.207 17.8213C29.0523 17.5463 28.8304 17.2869 28.4929 17.0635C28.7617 16.8869 28.9992 16.6432 29.1992 16.2666C29.4023 16.6494 29.6382 16.8916 29.882 17.0572Z" fill="#F0C020"/>
<path d="M10.4218 19.0943C10.2382 18.3024 10.1168 17.7793 9.04349 17.4246C8.68661 17.3068 8.68739 16.8004 9.04349 16.6827C9.66646 16.4769 10.1166 16.3282 10.4218 15.013C10.515 14.6121 11.0893 14.611 11.1829 15.013C11.4954 16.3594 11.9641 16.4857 12.5611 16.6829C12.918 16.8007 12.9172 17.3069 12.5611 17.4246C11.938 17.6305 11.4879 17.7794 11.1829 19.0943C11.0896 19.4971 10.5152 19.4971 10.4218 19.0943Z" fill="black"/>
<path d="M11.4867 17.0572C11.232 17.2291 11.0039 17.465 10.8117 17.8213C10.657 17.5463 10.4352 17.2869 10.0977 17.0635C10.3664 16.8869 10.6039 16.6432 10.8039 16.2666C11.007 16.6494 11.243 16.8916 11.4867 17.0572Z" fill="#F0C020"/>
<path d="M10.4218 19.0943C10.2382 18.3024 10.1168 17.7793 9.04349 17.4246C8.68661 17.3068 8.68739 16.8004 9.04349 16.6827C9.66646 16.4769 10.1166 16.3282 10.4218 15.013C10.515 14.6121 11.0893 14.611 11.1829 15.013C11.4954 16.3594 11.9641 16.4857 12.5611 16.6829C12.918 16.8007 12.9172 17.3069 12.5611 17.4246C11.938 17.6305 11.4879 17.7794 11.1829 19.0943C11.0896 19.4971 10.5152 19.4971 10.4218 19.0943Z" fill="black"/>
<path d="M11.4867 17.0572C11.232 17.2291 11.0039 17.465 10.8117 17.8213C10.657 17.5463 10.4352 17.2869 10.0977 17.0635C10.3664 16.8869 10.6039 16.6432 10.8039 16.2666C11.007 16.6494 11.243 16.8916 11.4867 17.0572Z" fill="#F0C020"/>
<path d="M15.3626 26.6406H8.5874C8.37162 26.6406 8.19678 26.4658 8.19678 26.25C8.19678 26.0342 8.37162 25.8594 8.5874 25.8594H15.3626C15.5783 25.8594 15.7532 26.0342 15.7532 26.25C15.7532 26.4658 15.5783 26.6406 15.3626 26.6406ZM7.0249 26.6406H6.55615C6.34037 26.6406 6.16553 26.4658 6.16553 26.25C6.16553 26.0342 6.34037 25.8594 6.55615 25.8594H7.0249C7.24068 25.8594 7.41553 26.0342 7.41553 26.25C7.41553 26.4658 7.24068 26.6406 7.0249 26.6406Z" fill="#C5E5FE"/>
<path d="M33.4439 37.8545H32.9751C32.7594 37.8545 32.5845 37.6796 32.5845 37.4639C32.5845 37.2481 32.7594 37.0732 32.9751 37.0732H33.4439C33.6597 37.0732 33.8345 37.2481 33.8345 37.4639C33.8345 37.6796 33.6597 37.8545 33.4439 37.8545ZM31.4126 37.8545H25.2651C25.0494 37.8545 24.8745 37.6796 24.8745 37.4639C24.8745 37.2481 25.0494 37.0732 25.2651 37.0732H31.4126C31.6284 37.0732 31.8033 37.2481 31.8033 37.4639C31.8033 37.6796 31.6284 37.8545 31.4126 37.8545Z" fill="#C5E5FE"/>
<path d="M27.4389 17.4246C28.5122 17.7794 28.6336 18.3024 28.8172 19.0943C28.9106 19.4971 29.4848 19.4971 29.5782 19.0943C29.8832 17.7793 30.3334 17.6305 30.9565 17.4246C31.3126 17.3069 31.3134 16.8007 30.9565 16.6829C30.3595 16.4857 29.8906 16.3596 29.5782 15.013C29.4847 14.611 28.9104 14.6121 28.8172 15.013C28.512 16.3282 28.0618 16.4769 27.4389 16.6827C27.0828 16.8004 27.082 17.3066 27.4389 17.4246Z" fill="black"/>
<path d="M9.04336 17.4246C10.1166 17.7794 10.2381 18.3024 10.4216 19.0943C10.5151 19.4971 11.0893 19.4971 11.1827 19.0943C11.4877 17.7793 11.9379 17.6305 12.561 17.4246C12.9171 17.3069 12.9179 16.8007 12.561 16.6829C11.964 16.4857 11.4951 16.3596 11.1827 15.013C11.0891 14.611 10.5149 14.6121 10.4216 15.013C10.1165 16.3282 9.66633 16.4769 9.04336 16.6827C8.68727 16.8004 8.68649 17.3066 9.04336 17.4246Z" fill="black"/>
<path d="M26.1294 14.6244H13.8733C12.9597 14.6244 12.2188 13.8838 12.2188 12.9702V12.9589C12.2188 12.0453 12.9597 11.3047 13.8733 11.3047H26.1294C27.0461 11.3047 27.7892 12.0478 27.7892 12.9645C27.7892 13.8813 27.0461 14.6244 26.1294 14.6244Z" fill="#FFB69F"/>
<path d="M31.4249 24.2662V39.21H8.57495V24.2662C8.57495 23.9725 8.60933 23.6865 8.67651 23.4115C9.01089 22.0256 10.1437 20.9303 11.6031 20.6818C15.7215 19.982 13.8467 20.3001 19.9999 19.2568C26.1529 20.3001 24.2778 19.9818 28.3968 20.6818C29.8562 20.9303 30.989 22.0256 31.3234 23.4115C31.3906 23.6865 31.4249 23.9725 31.4249 24.2662Z" fill="#878787"/>
<path d="M31.4249 24.2658V39.2096H8.57495V24.2658C8.57495 23.9721 8.60933 23.6861 8.67651 23.4111H31.3234C31.3906 23.6861 31.4249 23.9721 31.4249 24.2658Z" fill="#4C4944"/>
<path d="M22.7813 16.4053V20.4121C22.7813 21.9482 21.536 23.1936 19.9999 23.1936C18.4638 23.1936 17.2185 21.9482 17.2185 20.4121V16.4053H22.7813Z" fill="#FFB69F"/>
<path d="M22.7813 16.4053V19.8834C21.0541 20.6089 19.0219 20.6478 17.2185 19.8851V16.4054L22.7813 16.4053Z" fill="#EA8F7C"/>
<path d="M25.5718 9.5918L25.5702 13.6879C25.5702 16.8496 22.986 19.2557 20.0024 19.2557C16.8855 19.2601 14.4362 16.7141 14.4362 13.6879V9.5918H25.5718Z" fill="#FFB69F"/>
<path d="M25.5697 9.5918H14.4341V10.6971H25.5697V9.5918Z" fill="#EA8F7C"/>
<path d="M25.8854 7.48195H25.6014C25.6014 4.80461 23.7056 2.57164 21.1807 2.05352V1.96867C21.1807 1.31836 20.6534 0.791016 20.0017 0.791016C19.3514 0.791016 18.824 1.31836 18.824 1.96867V2.05352C16.3006 2.57227 14.4034 4.80445 14.4034 7.48195H14.1192C13.5451 7.48195 13.0632 7.94508 13.0632 8.53648C13.0632 9.11898 13.5354 9.59102 14.1192 9.59102H25.8851C26.4712 9.59102 26.9412 9.11523 26.9412 8.53648C26.9414 7.95414 26.4678 7.48195 25.8854 7.48195Z" fill="#34C21C"/>
<path d="M35.1858 25.2861V38.4283C35.1858 38.8596 34.8358 39.2096 34.4046 39.2096H5.59522C5.16397 39.2096 4.81396 38.8596 4.81396 38.4283V25.2861C4.81396 24.8549 5.16397 24.5049 5.59522 24.5049H34.4046C34.8358 24.5049 35.1858 24.8549 35.1858 25.2861Z" fill="#00ABFF"/>
<path d="M24.7077 33.9754L24.178 33.6691C24.2718 33.1926 24.2733 32.7191 24.178 32.2332L24.7077 31.927C25.0624 31.7207 25.1843 31.266 24.9796 30.9113L24.2562 29.6582C24.0515 29.3035 23.5983 29.1816 23.2405 29.3863L22.5624 29.7785C22.2312 29.5441 21.8624 29.3535 21.4671 29.2176V28.3613C21.4671 27.952 21.1343 27.6191 20.7233 27.6191H19.2765C18.8655 27.6191 18.5327 27.952 18.5327 28.3613V29.2176C18.1374 29.3535 17.7687 29.5441 17.4374 29.7785L16.7593 29.3863C16.4015 29.1816 15.9483 29.3035 15.7437 29.6582L15.0202 30.9113C14.8155 31.266 14.9374 31.7207 15.2921 31.927L15.8218 32.2332C15.7265 32.7191 15.728 33.1926 15.8218 33.6691L15.2921 33.9754C14.9374 34.1816 14.8155 34.6363 15.0202 34.991L15.7437 36.2441C15.9483 36.5988 16.4015 36.7207 16.7593 36.516L17.4374 36.1238C17.7687 36.3582 18.1374 36.5488 18.5327 36.6848V37.541C18.5327 37.9504 18.8655 38.2832 19.2765 38.2832H20.7233C21.1343 38.2832 21.4671 37.9504 21.4671 37.541V36.6848C21.8624 36.5488 22.2312 36.3582 22.5624 36.1238L23.2405 36.516C23.5983 36.7207 24.0515 36.5988 24.2562 36.2441L24.9796 34.991C25.1843 34.6363 25.0624 34.1816 24.7077 33.9754ZM19.9999 34.5285C19.1296 34.5285 18.4233 33.8223 18.4233 32.9504C18.4233 32.0801 19.1296 31.3738 19.9999 31.3738C20.8702 31.3738 21.5765 32.0801 21.5765 32.9504C21.5765 33.8223 20.8702 34.5285 19.9999 34.5285Z" fill="#4BA5C8"/>
<path d="M35.1859 27.4502V34.508H34.3812C33.2609 34.508 32.35 33.5971 32.35 32.4768V29.4814C32.35 28.3611 33.2609 27.4502 34.3812 27.4502H35.1859Z" fill="#4BA5C8"/>
<path d="M7.6499 29.4814V32.4768C7.6499 33.5971 6.73896 34.508 5.61865 34.508H4.81396V27.4502H5.61865C6.73896 27.4502 7.6499 28.3611 7.6499 29.4814Z" fill="#4BA5C8"/>
<path d="M36.9267 30.1064V31.8518C36.9267 32.7143 36.2267 33.4143 35.3642 33.4143H34.3813C33.8626 33.4143 33.4438 32.9939 33.4438 32.4768V29.4814C33.4438 28.9643 33.8626 28.5439 34.3813 28.5439H35.3642C36.2267 28.5439 36.9267 29.2439 36.9267 30.1064Z" fill="#FFB69F"/>
<path d="M3.07324 31.8518V30.1064C3.07324 29.2439 3.77324 28.5439 4.63574 28.5439H5.61855C6.1373 28.5439 6.55605 28.9643 6.55605 29.4814V32.4768C6.55605 32.9939 6.1373 33.4143 5.61855 33.4143H4.63574C3.77324 33.4143 3.07324 32.7143 3.07324 31.8518Z" fill="#FFB69F"/>
<path d="M24.7077 32.8816L24.178 32.5754C24.2718 32.0988 24.2733 31.6254 24.178 31.1395L24.7077 30.8332C25.0624 30.627 25.1843 30.1723 24.9796 29.8176L24.2562 28.5645C24.0515 28.2098 23.5983 28.0879 23.2405 28.2926L22.5624 28.6848C22.2312 28.4504 21.8624 28.2598 21.4671 28.1238V27.2676C21.4671 26.8582 21.1343 26.5254 20.7233 26.5254H19.2765C18.8655 26.5254 18.5327 26.8582 18.5327 27.2676V28.1238C18.1374 28.2598 17.7687 28.4504 17.4374 28.6848L16.7593 28.2926C16.4015 28.0879 15.9483 28.2098 15.7437 28.5645L15.0202 29.8176C14.8155 30.1723 14.9374 30.627 15.2921 30.8332L15.8218 31.1395C15.7265 31.6254 15.728 32.0988 15.8218 32.5754L15.2921 32.8816C14.9374 33.0879 14.8155 33.5426 15.0202 33.8973L15.7437 35.1504C15.9483 35.5051 16.4015 35.627 16.7593 35.4223L17.4374 35.0301C17.7687 35.2645 18.1374 35.4551 18.5327 35.591V36.4473C18.5327 36.8566 18.8655 37.1895 19.2765 37.1895H20.7233C21.1343 37.1895 21.4671 36.8566 21.4671 36.4473V35.591C21.8624 35.4551 22.2312 35.2645 22.5624 35.0301L23.2405 35.4223C23.5983 35.627 24.0515 35.5051 24.2562 35.1504L24.9796 33.8973C25.1843 33.5426 25.0624 33.0879 24.7077 32.8816ZM19.9999 33.4348C19.1296 33.4348 18.4233 32.7285 18.4233 31.8566C18.4233 30.9863 19.1296 30.2801 19.9999 30.2801C20.8702 30.2801 21.5765 30.9863 21.5765 31.8566C21.5765 32.7285 20.8702 33.4348 19.9999 33.4348Z" fill="#EFEFEF"/>
<path d="M29.882 17.0572C29.6273 17.2291 29.3992 17.465 29.207 17.8213C29.0523 17.5463 28.8304 17.2869 28.4929 17.0635C28.7617 16.8869 28.9992 16.6432 29.1992 16.2666C29.4023 16.6494 29.6382 16.8916 29.882 17.0572Z" fill="#F0C020"/>
<path d="M29.882 17.0572C29.6273 17.2291 29.3992 17.465 29.207 17.8213C29.0523 17.5463 28.8304 17.2869 28.4929 17.0635C28.7617 16.8869 28.9992 16.6432 29.1992 16.2666C29.4023 16.6494 29.6382 16.8916 29.882 17.0572Z" fill="#34C21C"/>
<path d="M11.4867 17.0572C11.232 17.2291 11.0039 17.465 10.8117 17.8213C10.657 17.5463 10.4352 17.2869 10.0977 17.0635C10.3664 16.8869 10.6039 16.6432 10.8039 16.2666C11.007 16.6494 11.243 16.8916 11.4867 17.0572Z" fill="#F0C020"/>
<path d="M11.4867 17.0572C11.232 17.2291 11.0039 17.465 10.8117 17.8213C10.657 17.5463 10.4352 17.2869 10.0977 17.0635C10.3664 16.8869 10.6039 16.6432 10.8039 16.2666C11.007 16.6494 11.243 16.8916 11.4867 17.0572Z" fill="#34C21C"/>
<path d="M15.3624 26.6406H8.58728C8.3715 26.6406 8.19666 26.4658 8.19666 26.25C8.19666 26.0342 8.3715 25.8594 8.58728 25.8594H15.3624C15.5782 25.8594 15.7531 26.0342 15.7531 26.25C15.7531 26.4658 15.5782 26.6406 15.3624 26.6406ZM7.02478 26.6406H6.55603C6.34025 26.6406 6.16541 26.4658 6.16541 26.25C6.16541 26.0342 6.34025 25.8594 6.55603 25.8594H7.02478C7.24056 25.8594 7.41541 26.0342 7.41541 26.25C7.41541 26.4658 7.24056 26.6406 7.02478 26.6406Z" fill="#C5E5FE"/>
<path d="M33.4439 37.8545H32.9751C32.7594 37.8545 32.5845 37.6796 32.5845 37.4639C32.5845 37.2481 32.7594 37.0732 32.9751 37.0732H33.4439C33.6597 37.0732 33.8345 37.2481 33.8345 37.4639C33.8345 37.6796 33.6597 37.8545 33.4439 37.8545ZM31.4126 37.8545H25.2651C25.0494 37.8545 24.8745 37.6796 24.8745 37.4639C24.8745 37.2481 25.0494 37.0732 25.2651 37.0732H31.4126C31.6284 37.0732 31.8033 37.2481 31.8033 37.4639C31.8033 37.6796 31.6284 37.8545 31.4126 37.8545Z" fill="#C5E5FE"/>
<path d="M19.9999 33.8253C21.0849 33.8253 21.9677 32.9426 21.9677 31.8575C21.9677 30.7723 21.0849 29.8896 19.9999 29.8896C18.9149 29.8896 18.0321 30.7723 18.0321 31.8575C18.0321 32.9426 18.9149 33.8253 19.9999 33.8253ZM19.9999 30.6709C20.6543 30.6709 21.1865 31.2032 21.1865 31.8575C21.1865 32.5117 20.6543 33.044 19.9999 33.044C19.3455 33.044 18.8134 32.5117 18.8134 31.8575C18.8134 31.2032 19.3457 30.6709 19.9999 30.6709Z" fill="black"/>
<path d="M17.4095 11.498C17.1938 11.498 17.0189 11.6729 17.0189 11.8887V12.2165C17.0189 12.4323 17.1938 12.6071 17.4095 12.6071C17.6253 12.6071 17.8002 12.4323 17.8002 12.2165V11.8887C17.8002 11.673 17.6253 11.498 17.4095 11.498Z" fill="black"/>
<path d="M22.5917 12.6081C22.8075 12.6081 22.9823 12.4332 22.9823 12.2175V11.8896C22.9823 11.6739 22.8075 11.499 22.5917 11.499C22.3759 11.499 22.201 11.6739 22.201 11.8896V12.2175C22.201 12.4331 22.3759 12.6081 22.5917 12.6081Z" fill="black"/>
<path d="M21.2234 16.6038C21.575 16.357 21.8389 16.0132 21.9889 15.6132C22.0639 15.4116 21.9623 15.1866 21.7607 15.1101C21.5623 15.0366 21.3295 15.1445 21.2576 15.3398C21.0623 15.8601 20.5576 16.2085 19.9998 16.2085C19.4434 16.2085 18.9389 15.8601 18.7451 15.3398C18.6717 15.1445 18.4404 15.0366 18.2436 15.1101C18.1451 15.1476 18.0686 15.2195 18.0248 15.3132C17.9812 15.4085 17.9764 15.5132 18.0125 15.6101C18.0125 15.6116 18.0125 15.6116 18.0125 15.6132C18.1607 16.0132 18.4264 16.3554 18.7779 16.6038C19.1357 16.857 19.5592 16.9898 20.0014 16.9898C20.4421 16.9898 20.864 16.8554 21.2234 16.6038Z" fill="black"/>
<path d="M20.0006 14.1034C20.2164 14.1034 20.3912 13.9285 20.3912 13.7127V12.2168C20.3912 12.001 20.2164 11.8262 20.0006 11.8262C19.7848 11.8262 19.61 12.001 19.61 12.2168V13.7127C19.61 13.9285 19.7848 14.1034 20.0006 14.1034Z" fill="black"/>
<path d="M24.15 4.35058C24.2866 4.52683 24.5319 4.55121 24.6984 4.42246C24.8711 4.2923 24.9014 4.04543 24.7705 3.87558C24.6438 3.70996 24.3892 3.67558 24.2236 3.80214C24.0558 3.93183 24.0161 4.17589 24.15 4.34902C24.15 4.35058 24.15 4.35058 24.15 4.35058Z" fill="black"/>
<path d="M35.5765 28.1655V25.2862C35.5765 24.6399 35.0509 24.1143 34.4046 24.1143H31.8111C31.7392 22.176 30.3168 20.6121 28.4623 20.2963L23.172 19.3984V18.7284C24.4845 17.8995 25.4517 16.5732 25.8078 15.0157H26.1298C27.2601 15.0157 28.1796 14.0954 28.1796 12.9641C28.1796 11.8338 27.2601 10.9141 26.1298 10.9141H25.9598L25.9601 9.97773C26.7225 9.93883 27.3312 9.30805 27.3312 8.53617C27.3312 7.77523 26.7375 7.14398 25.9796 7.09398C25.9406 6.48617 25.8093 5.89242 25.589 5.32836C25.5126 5.13148 25.2812 5.02836 25.0829 5.10492C24.8829 5.18305 24.7828 5.41117 24.8609 5.61117C25.0453 6.08586 25.1568 6.58258 25.1951 7.09148H21.5715V2.55695C22.1265 2.72602 22.6453 2.98648 23.1175 3.33633C23.2862 3.45977 23.5409 3.4207 23.6643 3.25352C23.7923 3.08008 23.755 2.83477 23.5829 2.70664C22.9704 2.25508 22.2892 1.93008 21.555 1.73945C21.4406 0.969609 20.779 0.400391 20.0018 0.400391C19.217 0.400391 18.5636 0.978516 18.4503 1.73945C15.9812 2.3807 14.1903 4.53789 14.0253 7.09414C13.2675 7.1457 12.6737 7.77695 12.6737 8.53633C12.6737 9.30789 13.282 9.93836 14.0439 9.97789V10.9143H13.8734C12.7456 10.9143 11.8281 11.8318 11.8281 12.9705C11.8281 14.0984 12.7456 15.0159 13.8734 15.0159H14.1932C14.5523 16.5966 15.5311 17.9126 16.8278 18.7332V19.3985L11.5375 20.2965C9.94652 20.5673 8.67465 21.754 8.29715 23.3184C8.23418 23.5763 8.19887 23.8435 8.18887 24.1143H5.59527C4.94902 24.1143 4.4234 24.6399 4.4234 25.2862V28.1655C3.44605 28.2718 2.68262 29.1015 2.68262 30.1066V31.852C2.68262 32.8571 3.44605 33.6868 4.4234 33.793V38.4287C4.4234 39.074 4.94996 39.6005 5.59527 39.6005H9.39684C9.6109 39.6005 9.78746 39.4255 9.78746 39.2099C9.78746 38.9959 9.61246 38.8209 9.3984 38.8193H9.39684H5.59527C5.37965 38.8193 5.20465 38.6427 5.20465 38.4287V33.8052H5.61855C6.3509 33.8052 6.94668 33.2094 6.94668 32.4771V29.4818C6.94668 28.7495 6.3509 28.1537 5.61855 28.1537H5.20465V25.2863C5.20465 25.071 5.3798 24.8957 5.59527 24.8957H34.4046C34.6201 24.8957 34.7953 25.071 34.7953 25.2863V28.1537H34.3814C33.649 28.1537 33.0532 28.7495 33.0532 29.4818V32.4771C33.0532 33.2094 33.649 33.8052 34.3814 33.8052H34.7951V38.4287C34.7951 38.6427 34.6201 38.8193 34.4045 38.8193H12.5218C12.3062 38.8193 12.1312 38.9943 12.1312 39.2099C12.1312 39.4255 12.3062 39.6005 12.5218 39.6005H34.4046C35.05 39.6005 35.5765 39.074 35.5765 38.4287V33.793C36.5539 33.6868 37.3175 32.8571 37.3175 31.852V30.1066C37.3173 29.1015 36.5539 28.2718 35.5765 28.1655ZM6.16543 29.4816V29.9051H5.31387C5.09809 29.9051 4.92324 30.0799 4.92324 30.2957C4.92324 30.5115 5.09809 30.6863 5.31387 30.6863H6.16543V31.2723H5.31387C5.09809 31.2723 4.92324 31.4471 4.92324 31.6629C4.92324 31.8787 5.09809 32.0535 5.31387 32.0535H6.16543V32.477C6.16543 32.7785 5.92012 33.0238 5.61855 33.0238H4.63574C3.98949 33.0238 3.46387 32.4982 3.46387 31.852V30.1066C3.46387 29.4604 3.98949 28.9348 4.63574 28.9348H5.61855C5.92012 28.9348 6.16543 29.1801 6.16543 29.4816ZM26.1296 11.6955C26.8292 11.6955 27.3982 12.2648 27.3982 12.9643C27.3982 13.6648 26.829 14.2346 26.1296 14.2346H25.9325C25.9489 14.0545 25.9586 13.8724 25.9586 13.6882L25.9593 11.6955H26.1296ZM20.0015 1.18164C20.4359 1.1832 20.789 1.53633 20.7906 1.96914C20.7906 2.4768 20.7901 0.140234 20.7901 7.09148H19.2148C19.2148 0.166796 19.214 2.46445 19.214 1.96914C19.2154 1.53633 19.5687 1.1832 20.0015 1.18164ZM18.4336 2.55711V7.09148H14.8095C14.9704 4.9857 16.4215 3.17555 18.4336 2.55711ZM13.4531 8.53633C13.4546 8.1707 13.7531 7.87383 14.1187 7.87226C14.1496 7.87226 25.6857 7.87226 25.8861 7.87226C26.2517 7.87383 26.5501 8.1707 26.5501 8.53633C26.5501 8.90195 26.2517 9.20039 25.8861 9.20039H14.1186C13.7531 9.20039 13.4545 8.90195 13.4531 8.53633ZM13.8734 14.2346C13.1764 14.2346 12.6093 13.6676 12.6093 12.9596C12.6093 12.2626 13.1764 11.6955 13.8734 11.6955H14.0434V13.688C14.0434 13.8716 14.0526 14.0538 14.069 14.2346H13.8734ZM14.8246 13.688V11.3079C14.8246 11.3068 14.825 11.3059 14.825 11.3049C14.825 11.304 14.8246 11.3029 14.8246 11.302V9.98273H25.1789L25.1775 13.6882C25.1775 16.543 22.855 18.8654 19.9995 18.8654C19.9971 18.8654 19.9948 18.8654 19.9923 18.8654C17.0903 18.8652 14.8246 16.4949 14.8246 13.688ZM19.9917 19.6465C19.9945 19.6465 19.9973 19.6465 20.0001 19.6465C20.8501 19.6465 21.6584 19.4663 22.3907 19.1443V20.4112C22.3907 21.7295 21.3182 22.802 19.9998 22.802C18.6815 22.802 17.609 21.7295 17.609 20.4112V19.7432C17.609 19.7423 17.609 19.7412 17.609 19.7402V19.149C18.3506 19.474 19.1576 19.6465 19.9917 19.6465ZM9.05637 23.5027C9.36059 22.2412 10.3861 21.2849 11.6686 21.0666L16.8279 20.191V20.4112C16.8279 22.1602 18.2507 23.5832 20 23.5832C21.7492 23.5832 23.1721 22.1602 23.1721 20.4112V20.191L28.3315 21.0666C29.6142 21.2849 30.6395 22.2413 30.9442 23.5041C30.9926 23.7016 31.0207 23.9063 31.0303 24.1145H8.96996C8.97949 23.9062 9.00777 23.7012 9.05637 23.5027ZM36.5361 31.852C36.5361 32.4982 36.0104 33.0238 35.3642 33.0238H34.3814C34.0798 33.0238 33.8345 32.7785 33.8345 32.477V32.0535H34.6861C34.9018 32.0535 35.0767 31.8787 35.0767 31.6629C35.0767 31.4471 34.9018 31.2723 34.6861 31.2723H33.8345V30.6863H34.6861C34.9018 30.6863 35.0767 30.5115 35.0767 30.2957C35.0767 30.0799 34.9018 29.9051 34.6861 29.9051H33.8345V29.4816C33.8345 29.1801 34.0798 28.9348 34.3814 28.9348H35.3642C36.0104 28.9348 36.5361 29.4604 36.5361 30.1066V31.852Z" fill="black"/>
<path d="M10.9594 39.6006C11.1751 39.6006 11.35 39.4257 11.35 39.21C11.35 38.9942 11.1751 38.8193 10.9594 38.8193C10.7436 38.8193 10.5687 38.9942 10.5687 39.21C10.5687 39.4257 10.7436 39.6006 10.9594 39.6006Z" fill="black"/>
<path d="M14.6818 34.0922L15.4056 35.3449C15.7174 35.885 16.412 36.0716 16.9541 35.7599L17.4231 35.4891C17.651 35.6327 17.8916 35.7571 18.1424 35.8605V36.4469C18.1424 37.0719 18.651 37.5805 19.2762 37.5805H20.7237C21.3488 37.5805 21.8574 37.0719 21.8574 36.4469V35.8605C22.1082 35.7569 22.349 35.6327 22.5768 35.4891L23.0463 35.7604C23.5879 36.0716 24.2824 35.8855 24.5943 35.345L25.3181 34.0922C25.6313 33.5499 25.4457 32.8569 24.9032 32.5436L24.6063 32.3724C24.6509 32.0277 24.6509 31.6871 24.6063 31.3424L24.9032 31.171C25.4457 30.8577 25.6313 30.1647 25.3181 29.6222L24.5943 28.3694C24.2824 27.8293 23.5881 27.6429 23.0457 27.9546L22.5768 28.2254C22.3487 28.0816 22.1081 27.9574 21.8574 27.8538V27.2674C21.8574 26.6424 21.3488 26.1338 20.7237 26.1338H19.2762C18.651 26.1338 18.1424 26.6424 18.1424 27.2674V27.8538C17.8918 27.9574 17.651 28.0816 17.4231 28.2254L16.9535 27.9541C16.4121 27.643 15.7176 27.8291 15.4056 28.3693L14.6818 29.6222C14.3693 30.1633 14.5529 30.8569 15.0968 31.171L15.3935 31.3422C15.349 31.6869 15.349 32.0275 15.3935 32.3722L15.0966 32.5436C14.5541 32.8568 14.3685 33.5497 14.6818 34.0922ZM15.4871 33.2202L16.0177 32.9141C16.1626 32.8305 16.2382 32.6641 16.2059 32.5C16.1204 32.0674 16.1204 31.6469 16.2059 31.2143C16.2382 31.0502 16.1626 30.8838 16.0177 30.8002L15.4873 30.4943C15.3193 30.3974 15.2609 30.1819 15.3584 30.0129L16.0821 28.7599C16.1793 28.5918 16.3957 28.5343 16.5635 28.631L17.2427 29.0233C17.3748 29.0996 17.5393 29.0919 17.6638 29.0038C17.9682 28.7882 18.3038 28.6161 18.6609 28.4925C18.8182 28.438 18.9238 28.2899 18.9238 28.1233V27.2674C18.9238 27.073 19.082 26.915 19.2763 26.915H20.7238C20.9182 26.915 21.0763 27.0732 21.0763 27.2674V28.1233C21.0763 28.2899 21.182 28.438 21.3393 28.4925C21.6963 28.6161 22.032 28.7882 22.3363 29.0038C22.4609 29.0922 22.6254 29.0997 22.7574 29.0233L23.436 28.6314C23.6049 28.5341 23.8213 28.5922 23.9181 28.76L24.6418 30.0129C24.7404 30.1838 24.6788 30.3985 24.5131 30.4943L23.9824 30.8004C23.8376 30.8839 23.762 31.0504 23.7943 31.2144C23.8798 31.6471 23.8798 32.0677 23.7945 32.5002C23.762 32.6643 23.8376 32.8307 23.9824 32.9143L24.5131 33.2204C24.6815 33.3177 24.7391 33.5332 24.6418 33.7016L23.9181 34.9544C23.821 35.1224 23.6046 35.18 23.4366 35.0835L22.7574 34.6911C22.6252 34.6147 22.4609 34.6225 22.3363 34.7107C22.0321 34.9263 21.6965 35.0982 21.3393 35.2218C21.182 35.2763 21.0763 35.4244 21.0763 35.591V36.4471C21.0763 36.6414 20.9182 36.7994 20.7238 36.7994H19.2763C19.082 36.7994 18.9238 36.6413 18.9238 36.4471V35.591C18.9238 35.4246 18.8182 35.2763 18.6609 35.2218C18.3037 35.0982 17.9681 34.9261 17.6638 34.7107C17.5406 34.6233 17.3757 34.6141 17.2427 34.6911L16.5641 35.083C16.3954 35.1804 16.1791 35.1224 16.0821 34.9543L15.3584 33.7016C15.2598 33.5307 15.3212 33.3158 15.4871 33.2202Z" fill="black"/>
<path d="M27.7517 29.6904H30.6423C30.8581 29.6904 31.033 29.5156 31.033 29.2998C31.033 29.084 30.8581 28.9092 30.6423 28.9092H27.7517C27.5359 28.9092 27.3611 29.084 27.3611 29.2998C27.3611 29.5156 27.5359 29.6904 27.7517 29.6904Z" fill="black"/>
<path d="M27.7517 31.3955H30.6423C30.8581 31.3955 31.033 31.2207 31.033 31.0049C31.033 30.7891 30.8581 30.6143 30.6423 30.6143H27.7517C27.5359 30.6143 27.3611 30.7891 27.3611 31.0049C27.3611 31.2207 27.5359 31.3955 27.7517 31.3955Z" fill="black"/>
<path d="M27.7517 33.1006H30.6423C30.8581 33.1006 31.033 32.9257 31.033 32.71C31.033 32.4942 30.8581 32.3193 30.6423 32.3193H27.7517C27.5359 32.3193 27.3611 32.4942 27.3611 32.71C27.3611 32.9257 27.5359 33.1006 27.7517 33.1006Z" fill="black"/>
<path d="M27.7517 34.8047H30.6423C30.8581 34.8047 31.033 34.6298 31.033 34.4141C31.033 34.1983 30.8581 34.0234 30.6423 34.0234H27.7517C27.5359 34.0234 27.3611 34.1983 27.3611 34.4141C27.3611 34.6298 27.5359 34.8047 27.7517 34.8047Z" fill="black"/>
<path d="M9.35767 29.6904H12.2483C12.4641 29.6904 12.6389 29.5156 12.6389 29.2998C12.6389 29.084 12.4641 28.9092 12.2483 28.9092H9.35767C9.14188 28.9092 8.96704 29.084 8.96704 29.2998C8.96704 29.5156 9.14188 29.6904 9.35767 29.6904Z" fill="black"/>
<path d="M9.35767 31.3955H12.2483C12.4641 31.3955 12.6389 31.2207 12.6389 31.0049C12.6389 30.7891 12.4641 30.6143 12.2483 30.6143H9.35767C9.14188 30.6143 8.96704 30.7891 8.96704 31.0049C8.96704 31.2207 9.14188 31.3955 9.35767 31.3955Z" fill="black"/>
<path d="M9.35767 33.1006H12.2483C12.4641 33.1006 12.6389 32.9257 12.6389 32.71C12.6389 32.4942 12.4641 32.3193 12.2483 32.3193H9.35767C9.14188 32.3193 8.96704 32.4942 8.96704 32.71C8.96704 32.9257 9.14188 33.1006 9.35767 33.1006Z" fill="black"/>
<path d="M9.35767 34.8047H12.2483C12.4641 34.8047 12.6389 34.6298 12.6389 34.4141C12.6389 34.1983 12.4641 34.0234 12.2483 34.0234H9.35767C9.14188 34.0234 8.96704 34.1983 8.96704 34.4141C8.96704 34.6298 9.14188 34.8047 9.35767 34.8047Z" fill="black"/>
</svg>
