<svg width="40" height="40" viewBox="0 0 40 40" fill="none" xmlns="http://www.w3.org/2000/svg">
<path d="M33.8462 7.30807C34.9083 7.30807 35.7692 6.44708 35.7692 5.38499C35.7692 4.32291 34.9083 3.46191 33.8462 3.46191C32.7841 3.46191 31.9231 4.32291 31.9231 5.38499C31.9231 6.44708 32.7841 7.30807 33.8462 7.30807Z" fill="#303268"/>
<path d="M4.23072 13.4617C5.08039 13.4617 5.76918 12.7729 5.76918 11.9232C5.76918 11.0736 5.08039 10.3848 4.23072 10.3848C3.38105 10.3848 2.69226 11.0736 2.69226 11.9232C2.69226 12.7729 3.38105 13.4617 4.23072 13.4617Z" fill="#303268"/>
<path d="M9.51842 12.4487C13.2484 14.628 16.5892 10.6718 17.9915 7.57105L15.95 6.70259C15.6661 6.58182 15.5076 6.27797 15.57 5.97566C15.5907 5.87566 15.6346 5.78412 15.6961 5.70643C15.7576 5.62874 15.8369 5.56489 15.9292 5.52182L21.7984 2.77489C22.0084 2.67643 22.2492 2.66566 22.4676 2.74489C22.5761 2.78489 22.6745 2.84489 22.7584 2.92182C22.8423 2.99874 22.9106 3.09105 22.96 3.19643L25.7083 9.06797C25.7945 9.25105 25.7883 9.46336 25.6945 9.64105C25.5806 9.85489 25.3606 9.98182 25.1283 9.98182C25.0645 9.98182 24.9999 9.97182 24.936 9.95182L22.793 9.27951C20.2499 14.768 13.7553 17.2834 9.36603 12.6857C9.13457 12.4426 9.21995 12.2741 9.51842 12.4487Z" fill="#34C21C"/>
<path d="M33.4615 12.4941V34.2311H27.8523V16.3058C31.3154 14.2072 33.4615 12.4941 33.4615 12.4941Z" fill="#C47E4E"/>
<path d="M27.8523 16.3057V34.231H22.2423V19.3517C24.3423 18.3417 26.24 17.2825 27.8523 16.3057Z" fill="#07475D"/>
<path d="M16.6331 21.6893C18.6107 20.9962 20.4969 20.1916 22.2423 19.3516V34.2308H16.6331V21.6893Z" fill="#34C21C"/>
<path d="M16.633 21.6895V34.231H11.0238V23.251C12.9461 22.8633 14.8276 22.3225 16.633 21.6895Z" fill="#FF9F22"/>
<path d="M11.0238 23.251V34.231H5.41382V23.8964C7.2992 23.8548 9.17997 23.6233 11.0238 23.251Z" fill="#FF3939"/>
<path d="M36.5385 12.6928C36.9634 12.6928 37.3077 12.3484 37.3077 11.9235C37.3077 11.4987 36.9634 11.1543 36.5385 11.1543C36.1137 11.1543 35.7693 11.4987 35.7693 11.9235C35.7693 12.3484 36.1137 12.6928 36.5385 12.6928Z" fill="#34C21C"/>
<path d="M28.8461 5.76893C29.271 5.76893 29.6154 5.42453 29.6154 4.9997C29.6154 4.57487 29.271 4.23047 28.8461 4.23047C28.4213 4.23047 28.0769 4.57487 28.0769 4.9997C28.0769 5.42453 28.4213 5.76893 28.8461 5.76893Z" fill="#34C21C"/>
<path d="M11.923 8.84608C12.3479 8.84608 12.6923 8.50168 12.6923 8.07685C12.6923 7.65201 12.3479 7.30762 11.923 7.30762C11.4982 7.30762 11.1538 7.65201 11.1538 8.07685C11.1538 8.50168 11.4982 8.84608 11.923 8.84608Z" fill="#34C21C"/>
<path d="M7.30768 5.00038C7.73252 5.00038 8.07691 4.65598 8.07691 4.23114C8.07691 3.80631 7.73252 3.46191 7.30768 3.46191C6.88285 3.46191 6.53845 3.80631 6.53845 4.23114C6.53845 4.65598 6.88285 5.00038 7.30768 5.00038Z" fill="#34C21C"/>
<path d="M7.30768 18.0765C7.73252 18.0765 8.07691 17.7322 8.07691 17.3073C8.07691 16.8825 7.73252 16.5381 7.30768 16.5381C6.88285 16.5381 6.53845 16.8825 6.53845 17.3073C6.53845 17.7322 6.88285 18.0765 7.30768 18.0765Z" fill="#34C21C"/>
<path d="M5.76889 21.7871C5.35196 21.7871 5.0095 21.4539 5.00019 21.035C4.99073 20.6103 5.32743 20.2583 5.75212 20.2489C7.26419 20.2153 8.85127 20.0324 10.4691 19.7054C11.9969 19.3973 13.5953 18.9523 15.2201 18.3827C16.7824 17.8348 18.3884 17.1653 19.9933 16.3932C21.5881 15.6258 23.1988 14.751 24.7807 13.793C27.7006 12.0238 29.5343 10.5672 29.5525 10.5527C29.8847 10.2877 30.3685 10.3423 30.6336 10.6743C30.8985 11.0063 30.844 11.4903 30.512 11.7553C30.4346 11.8171 28.5818 13.2887 25.5777 15.1089C23.9538 16.0924 22.2993 16.991 20.6603 17.7796C19.0042 18.5764 17.3451 19.2678 15.7291 19.8346C14.0374 20.4276 12.3702 20.8915 10.7735 21.2135C9.06712 21.5584 7.38904 21.7514 5.78627 21.787C5.78043 21.787 5.77466 21.7871 5.76889 21.7871Z" fill="#34C21C"/>
<path d="M35.7692 35.0004H3.46149C3.03665 35.0004 2.69226 34.6559 2.69226 34.2311C2.69226 33.8063 3.03665 33.4619 3.46149 33.4619H35.7692C36.194 33.4619 36.5384 33.8063 36.5384 34.2311C36.5384 34.6559 36.194 35.0004 35.7692 35.0004Z" fill="#469618"/>
<path d="M35.7692 37.308H3.46149C3.03665 37.308 2.69226 36.9635 2.69226 36.5388C2.69226 36.1139 3.03665 35.7695 3.46149 35.7695H35.7692C36.194 35.7695 36.5384 36.1139 36.5384 36.5388C36.5384 36.9635 36.194 37.308 35.7692 37.308Z" fill="#469618"/>
</svg>
