<svg width="50" height="50" viewBox="0 0 50 50" fill="none" xmlns="http://www.w3.org/2000/svg">
<g clip-path="url(#clip0_455_2701)">
<path d="M24.7251 31.8617C24.5949 31.8617 24.4895 31.7564 24.4895 31.6262V5.79175C24.4895 5.66154 24.5949 5.55615 24.7251 5.55615C24.8553 5.55615 24.9607 5.66154 24.9607 5.79175V31.6263C24.9607 31.7565 24.8553 31.8617 24.7251 31.8617Z" fill="#34C21C"/>
<path d="M44.7104 39.0412C44.6779 39.0412 44.6447 39.0345 44.6132 39.0202L24.7302 29.9988L5.38897 39.0192C5.27133 39.0745 5.13092 39.0233 5.07595 38.9052C5.02097 38.7874 5.07202 38.6471 5.18997 38.5922L24.6294 29.526C24.6916 29.4969 24.7637 29.4965 24.8262 29.5251L44.8079 38.5912C44.9264 38.6449 44.979 38.7846 44.9251 38.903C44.8857 38.99 44.8001 39.0412 44.7104 39.0412Z" fill="#34C21C"/>
<path d="M24.6394 44.1823L9.40442 36.8323V18.7041L24.6394 26.0642V44.1823Z" fill="#303268"/>
<path d="M24.7039 44.4439C24.669 44.4439 24.634 44.4362 24.6015 44.4205L9.36634 37.0706C9.28483 37.0313 9.23315 36.9489 9.23315 36.8584V18.7303C9.23315 18.6492 9.27493 18.5739 9.34357 18.5307C9.41236 18.4876 9.49828 18.4828 9.57131 18.5181L24.8065 25.8781C24.888 25.9174 24.9396 25.9998 24.9396 26.0903V44.2083C24.9396 44.2894 24.898 44.3648 24.8292 44.4079C24.7911 44.4318 24.7476 44.4439 24.704 44.4439H24.7039ZM9.70434 36.7104L24.4683 43.8331V26.2382L9.70434 19.1058V36.7104Z" fill="#001332"/>
<path d="M24.7039 44.2082L40.3642 36.8582V18.73L24.7039 25.969V44.2082Z" fill="#34C21C"/>
<path d="M24.7039 44.4438C24.6597 44.4438 24.6159 44.4314 24.5776 44.407C24.5094 44.3638 24.4683 44.2888 24.4683 44.2082V25.9691C24.4683 25.8772 24.5217 25.7938 24.6051 25.7553L40.2652 18.5164C40.3379 18.4826 40.4231 18.4884 40.4911 18.5318C40.5588 18.575 40.5998 18.6499 40.5998 18.7303V36.8584C40.5998 36.9498 40.547 37.0329 40.4642 37.0717L24.8041 44.4216C24.7722 44.4366 24.7381 44.4439 24.704 44.4439L24.7039 44.4438ZM24.9395 26.1197V43.8374L40.1284 36.7084V19.0985L24.9395 26.1197Z" fill="#001332"/>
<path d="M24.6394 26.0642L9.40442 18.704L24.6394 11.5986L40.2997 18.704L24.6394 26.0642Z" fill="#303268"/>
<path d="M24.7039 26.3257C24.6689 26.3257 24.6338 26.3178 24.6015 26.3023L9.36635 18.9423C9.28452 18.9027 9.23253 18.8195 9.23316 18.7285C9.23379 18.6376 9.28672 18.5551 9.36918 18.5167L24.6043 11.4113C24.6665 11.3822 24.7386 11.3817 24.8011 11.4102L40.4613 18.5156C40.545 18.5536 40.5989 18.6367 40.5995 18.7285C40.6001 18.8204 40.5472 18.9043 40.4641 18.9434L24.8039 26.3034C24.7722 26.3183 24.738 26.3258 24.7037 26.3258L24.7039 26.3257ZM10.0182 18.7339L24.7053 25.8292L39.8022 18.7339L24.7053 11.884L10.0182 18.7339Z" fill="#001332"/>
</g>
<defs>
<clipPath id="clip0_455_2701">
<rect width="50" height="50" fill="white"/>
</clipPath>
</defs>
</svg>
