<svg width="50" height="40" viewBox="0 0 50 40" fill="none" xmlns="http://www.w3.org/2000/svg">
<g clip-path="url(#clip0_455_2715)">
<path d="M49.3799 38.9797H0.620069C0.277614 38.9797 0 38.7633 0 38.4965V0.497387C0 0.230508 0.277614 0.0141602 0.620069 0.0141602H49.3799C49.7224 0.0141602 50 0.230508 50 0.497387V38.4965C50 38.7633 49.7224 38.9797 49.3799 38.9797Z" fill="#303268"/>
<path d="M46.9305 37.2367H2.74995C2.4075 37.2367 2.12988 37.0203 2.12988 36.7534V2.32307C2.12988 2.05619 2.4075 1.83984 2.74995 1.83984H46.9305C47.273 1.83984 47.5506 2.05619 47.5506 2.32307V36.7534C47.5506 37.0203 47.273 37.2367 46.9305 37.2367Z" fill="white"/>
<path d="M46.9305 2.25404C46.9793 2.25404 47.0191 2.28503 47.0191 2.32307V36.7534C47.0191 36.7915 46.9793 36.8225 46.9305 36.8225H2.74995C2.70114 36.8225 2.66137 36.7915 2.66137 36.7534V2.32307C2.66137 2.28503 2.70114 2.25404 2.74995 2.25404H46.9305ZM46.9305 1.83984H2.74995C2.4075 1.83984 2.12988 2.05619 2.12988 2.32307V36.7534C2.12988 37.0203 2.4075 37.2367 2.74995 37.2367H46.9305C47.273 37.2367 47.5506 37.0203 47.5506 36.7534V2.32307C47.5506 2.05619 47.273 1.83984 46.9305 1.83984Z" fill="#232323"/>
<path d="M38.3555 31.5811H24.2931C24.1463 31.5811 24.0273 31.4884 24.0273 31.374C24.0273 31.2596 24.1463 31.1669 24.2931 31.1669H38.3555C39.9461 31.1669 40.5129 30.2984 40.5129 29.4857V20.1163C40.5129 20.0019 40.6318 19.9092 40.7786 19.9092C40.9254 19.9092 41.0443 20.0019 41.0443 20.1163V29.4857C41.0443 30.7586 39.9889 31.5811 38.3555 31.5811Z" fill="#232323"/>
<path d="M40.0982 33.0735C40.0747 33.0735 40.0513 33.0732 40.0278 33.0728L24.293 33.0723C24.1462 33.0723 24.0272 32.9795 24.0272 32.8652C24.0272 32.7508 24.1462 32.6581 24.293 32.6581L40.034 32.6587C40.7187 32.6712 41.3792 32.4704 41.854 32.1088C42.2787 31.7854 42.5126 31.3589 42.5126 30.9079V20.3814C42.5126 20.267 42.6316 20.1743 42.7784 20.1743C42.9252 20.1743 43.0441 20.267 43.0441 20.3814V30.9078C43.0441 31.4713 42.7535 32.0029 42.2256 32.405C41.6655 32.8315 40.8936 33.0735 40.0982 33.0735Z" fill="#232323"/>
<path d="M47.5506 20.6795H29.9066C29.5641 20.6795 29.2865 20.4631 29.2865 20.1962V1.83984H46.9306C47.273 1.83984 47.5506 2.05619 47.5506 2.32307V20.6795Z" fill="white"/>
<path d="M46.9306 2.25404C46.9794 2.25404 47.0192 2.28496 47.0192 2.32307V20.2652H29.9066C29.8578 20.2652 29.818 20.2343 29.818 20.1962V2.25404H46.9306ZM46.9306 1.83984H29.2865V20.1962C29.2865 20.463 29.5641 20.6794 29.9066 20.6794H47.5506V2.32307C47.5506 2.05619 47.273 1.83984 46.9306 1.83984Z" fill="#232323"/>
<path d="M24.8402 37.1674H2.12988V28.1626H24.2201C24.5626 28.1626 24.8402 28.3789 24.8402 28.6458V37.1674Z" fill="white"/>
<path d="M24.2201 28.5768C24.2689 28.5768 24.3087 28.6077 24.3087 28.6458V36.7532H2.66137V28.5768H24.2201ZM24.2201 28.1626H2.12988V37.1674H24.8402V28.6458C24.8402 28.3789 24.5626 28.1626 24.2201 28.1626Z" fill="#232323"/>
<path d="M13.98 20.6795H12.8571C12.5791 20.6795 12.3536 20.5038 12.3536 20.2871V5.38603C12.3536 5.16934 12.5791 4.99365 12.8571 4.99365H13.98C14.258 4.99365 14.4835 5.16934 14.4835 5.38603V20.287C14.4835 20.5038 14.258 20.6795 13.98 20.6795Z" fill="#303268"/>
<path d="M17.885 20.6795H16.7472C16.4732 20.6795 16.2511 20.5064 16.2511 20.2929V5.38023C16.2511 5.16672 16.4732 4.99365 16.7472 4.99365H17.885C18.159 4.99365 18.381 5.16672 18.381 5.38023V20.2929C18.381 20.5063 18.159 20.6795 17.885 20.6795Z" fill="#303268"/>
<path d="M21.6941 20.7483H20.5562C20.2823 20.7483 20.0602 20.5752 20.0602 20.3617V5.44908C20.0602 5.23556 20.2823 5.0625 20.5562 5.0625H21.6941C21.968 5.0625 22.1901 5.23556 22.1901 5.44908V20.3617C22.1901 20.5752 21.968 20.7483 21.6941 20.7483Z" fill="#303268"/>
<path d="M36.3924 26.2087H6.21882C5.90649 26.2087 5.65332 26.0114 5.65332 25.768V24.6092C5.65332 24.3658 5.90649 24.1685 6.21882 24.1685H36.3925C36.7048 24.1685 36.958 24.3658 36.958 24.6092V25.768C36.9579 26.0114 36.7047 26.2087 36.3924 26.2087Z" fill="#303268"/>
<path d="M10.1041 39.986H4.64414C4.58258 39.986 4.52545 39.9611 4.4932 39.9202L3.75195 38.9795H10.9964L10.2552 39.9202C10.2229 39.9611 10.1658 39.986 10.1041 39.986Z" fill="#303268"/>
<path d="M44.828 39.986H39.368C39.3065 39.986 39.2493 39.9611 39.2171 39.9202L38.4758 38.9795H45.7203L44.979 39.9202C44.9468 39.9611 44.8897 39.986 44.828 39.986Z" fill="#303268"/>
<path d="M30.9758 20.6673C30.9754 20.6673 30.9749 20.6673 30.9745 20.6673C30.8277 20.6667 30.7093 20.5736 30.71 20.4591L30.8226 2.09571C30.8233 1.98174 30.9421 1.88965 31.0883 1.88965H31.0896C31.2364 1.8902 31.3548 1.98333 31.3541 2.09778L31.2415 20.4612C31.2407 20.5752 31.1219 20.6673 30.9758 20.6673Z" fill="#232323"/>
<path d="M47.3046 6.46498H31.1206C30.9738 6.46498 30.8549 6.37226 30.8549 6.25788C30.8549 6.14349 30.9738 6.05078 31.1206 6.05078H47.3046C47.4514 6.05078 47.5703 6.14349 47.5703 6.25788C47.5703 6.37226 47.4514 6.46498 47.3046 6.46498Z" fill="#232323"/>
<path d="M47.3047 11.4811H31.0321C30.8853 11.4811 30.7664 11.3884 30.7664 11.274C30.7664 11.1596 30.8853 11.0669 31.0321 11.0669H47.3047C47.4515 11.0669 47.5704 11.1596 47.5704 11.274C47.5704 11.3884 47.4515 11.4811 47.3047 11.4811Z" fill="#232323"/>
<path d="M47.3047 16.4972H31.0321C30.8853 16.4972 30.7664 16.4045 30.7664 16.2901C30.7664 16.1757 30.8853 16.083 31.0321 16.083H47.3047C47.4515 16.083 47.5704 16.1757 47.5704 16.2901C47.5704 16.4045 47.4515 16.4972 47.3047 16.4972Z" fill="#232323"/>
</g>
<defs>
<clipPath id="clip0_455_2715">
<rect width="50" height="40" fill="white"/>
</clipPath>
</defs>
</svg>
