<svg width="186" height="60" viewBox="0 0 186 60" fill="none" xmlns="http://www.w3.org/2000/svg">
<g clip-path="url(#clip0_701_828)">
<path d="M0 0V60H60V0H0Z" fill="#0D1A9A"/>
<g clip-path="url(#clip1_701_828)">
<path fill-rule="evenodd" clip-rule="evenodd" d="M42.849 36.5562H50.1979V42.2587H42.849V36.5562ZM40.6022 26.9267H52.4447V32.6765H40.6022V26.9267ZM34.658 17.2978H46.5V23.0471H34.658V17.2978ZM9.52252 14.4463H19.7268V20.1492H9.52252V14.4463ZM13.1735 24.0757H23.3773V29.7782H13.1735V24.0757ZM9.52252 33.6579H19.7268V39.4072H9.52252V33.6579Z" fill="white" fill-opacity="0.1"/>
<path fill-rule="evenodd" clip-rule="evenodd" d="M30.8545 37.2571H31.1122C34.2981 37.2571 36.9048 39.8602 36.9048 43.0414V47.5406H25.0624V43.0414C25.0624 39.8602 27.6691 37.2571 30.8545 37.2571Z" fill="white" fill-opacity="0.1"/>
<path d="M30.9601 37.2103C33.3642 37.2103 35.313 35.2641 35.313 32.8633C35.313 30.4626 33.3642 28.5164 30.9601 28.5164C28.5561 28.5164 26.6072 30.4626 26.6072 32.8633C26.6072 35.2641 28.5561 37.2103 30.9601 37.2103Z" fill="white" fill-opacity="0.1"/>
<path d="M23.0266 26.356L34.3376 19.5993L35.0163 20.7329L23.7057 27.4896L23.0266 26.356ZM40.9609 22.4815L46.8824 26.3716L46.1568 27.474L40.2354 23.5835L40.9609 22.4815ZM48.0351 32.7981L47.1623 36.6882L45.8722 36.4035L46.7446 32.5134L48.0351 32.7981ZM14.1366 33.2266L17.7928 29.3361L18.7566 30.2423L15.1003 34.1323L14.1366 33.2266ZM17.7928 24.509L14.1366 20.619L15.1003 19.7132L18.7566 23.6033L17.7928 24.509ZM42.844 35.8832H50.1905C50.5571 35.8832 50.854 36.1803 50.854 36.5459V42.2791C50.854 42.6447 50.5571 42.9412 50.1905 42.9412H42.844C42.4774 42.9412 42.1805 42.6447 42.1805 42.2791V36.5459C42.1805 36.1803 42.4774 35.8832 42.844 35.8832ZM49.5275 37.2085H43.507V41.6165H49.5275V37.2085ZM40.5982 26.2604H52.4406C52.8072 26.2604 53.1041 26.557 53.1041 26.9226V32.6558C53.1041 33.0214 52.8072 33.3184 52.4406 33.3184H40.5982C40.2316 33.3184 39.9346 33.0214 39.9346 32.6558V26.9226C39.9346 26.557 40.2316 26.2604 40.5982 26.2604ZM51.7771 27.5852H41.2617V31.9932H51.7771V27.5852ZM34.6767 16.6371H46.5196C46.8857 16.6371 47.1827 16.9337 47.1827 17.2993V23.0325C47.1827 23.3985 46.8857 23.6951 46.5196 23.6951H34.6767C34.3106 23.6951 34.0137 23.3985 34.0137 23.0325V17.2993C34.0137 16.9337 34.3106 16.6371 34.6767 16.6371ZM45.8561 17.9619H35.3402V22.3699H45.8561V17.9619ZM9.52698 13.7705H19.7099C20.0765 13.7705 20.3734 14.0671 20.3734 14.4331V20.1659C20.3734 20.5319 20.0765 20.8285 19.7099 20.8285H9.52698C9.16041 20.8285 8.86346 20.5319 8.86346 20.1659V14.4331C8.86346 14.0671 9.16041 13.7705 9.52698 13.7705ZM19.0464 15.0957H10.1905V19.5032H19.0464V15.0957ZM13.1832 23.3938H23.3661C23.7327 23.3938 24.0296 23.6904 24.0296 24.0564V29.7892C24.0296 30.1552 23.7327 30.4518 23.3661 30.4518H13.1832C12.8166 30.4518 12.5197 30.1552 12.5197 29.7892V24.0564C12.5197 23.6904 12.8166 23.3938 13.1832 23.3938ZM22.7026 24.7186H13.8467V29.1265H22.7026V24.7186ZM9.52698 33.0171H19.7099C20.0765 33.0171 20.3734 33.3137 20.3734 33.6793V39.4125C20.3734 39.7781 20.0765 40.0751 19.7099 40.0751H9.52698C9.16041 40.0751 8.86346 39.7781 8.86346 39.4125V33.6793C8.86346 33.3137 9.16041 33.0171 9.52698 33.0171ZM19.0464 34.3419H10.1905V38.7499H19.0464V34.3419ZM31.0953 37.891H30.8623C29.4491 37.891 28.1637 38.4689 27.2317 39.3997C26.2996 40.3305 25.7209 41.6141 25.7209 43.0254V46.8715H36.2368V43.0254C36.2368 41.6141 35.658 40.3305 34.726 39.3997C33.7939 38.4689 32.5086 37.891 31.0953 37.891ZM33.6784 37.1063C34.4233 37.4327 35.0958 37.8957 35.6642 38.4628C36.8363 39.6333 37.5638 41.2485 37.5638 43.0254V47.5341C37.5638 47.8997 37.2664 48.1967 36.9003 48.1967H25.0578C24.6913 48.1967 24.3943 47.8997 24.3943 47.5341V43.0254C24.3943 41.2485 25.1218 39.6333 26.2939 38.4628C26.8618 37.8957 27.5343 37.4327 28.2793 37.1063C27.9695 36.9091 27.683 36.6788 27.4244 36.4205C26.5146 35.512 25.952 34.2567 25.952 32.8705C25.952 31.4847 26.5146 30.2295 27.4244 29.3209C28.3342 28.4124 29.5907 27.8505 30.9788 27.8505C32.3669 27.8505 33.6239 28.4124 34.5337 29.3209C35.4435 30.2295 36.0061 31.4847 36.0061 32.8705C36.0061 34.2567 35.4435 35.512 34.5337 36.4205C34.2751 36.6788 33.9881 36.9091 33.6784 37.1063ZM30.9788 36.5657C32.0009 36.5657 32.9258 36.1524 33.5955 35.4836C34.2651 34.8148 34.6791 33.8911 34.6791 32.8705C34.6791 31.8503 34.2651 30.9262 33.5955 30.2574C32.9258 29.5891 32.0009 29.1753 30.9788 29.1753C29.9573 29.1753 29.0318 29.5891 28.3622 30.2574C27.693 30.9262 27.2786 31.8503 27.2786 32.8705C27.2786 33.8911 27.693 34.8148 28.3622 35.4836C29.0318 36.1524 29.9573 36.5657 30.9788 36.5657Z" fill="white"/>
</g>
</g>
<path d="M69.9453 31.7969C69.5391 31.5 69.25 31.1328 69.0781 30.6953C68.9062 30.2422 68.8984 29.7656 69.0547 29.2656C69.2109 28.8125 69.4531 28.4062 69.7812 28.0469C70.1094 27.6875 70.4844 27.3984 70.9062 27.1797C71.375 26.9297 71.875 26.7344 72.4062 26.5938C72.9375 26.4531 73.4766 26.375 74.0234 26.3594C74.5703 26.3438 75.1094 26.3984 75.6406 26.5234C76.1875 26.6328 76.7031 26.8125 77.1875 27.0625C77.4531 27.2031 77.6016 27.3906 77.6328 27.625C77.6641 27.8594 77.6172 28.0781 77.4922 28.2812C77.3828 28.4844 77.2109 28.6328 76.9766 28.7266C76.7422 28.8203 76.4922 28.7969 76.2266 28.6562C75.8516 28.4531 75.4297 28.3203 74.9609 28.2578C74.4922 28.1953 74.0156 28.1953 73.5312 28.2578C73.0625 28.3047 72.6172 28.4219 72.1953 28.6094C71.7734 28.7969 71.4219 29.0391 71.1406 29.3359C71.0625 29.4141 71.0078 29.4688 70.9766 29.5C70.9609 29.5312 70.9297 29.6016 70.8828 29.7109L70.8359 29.9688C70.8828 30.1094 70.9219 30.1953 70.9531 30.2266C71.2656 30.4297 71.5859 30.5625 71.9141 30.625C72.2578 30.6719 72.6016 30.7031 72.9453 30.7188C73.4297 30.75 73.9219 30.7812 74.4219 30.8125C74.9375 30.8281 75.4297 30.8906 75.8984 31C76.3828 31.1094 76.8281 31.2891 77.2344 31.5391C77.6406 31.7891 77.9844 32.1562 78.2656 32.6406C78.5781 33.1875 78.7188 33.7578 78.6875 34.3516C78.6719 34.9297 78.4453 35.4531 78.0078 35.9219C77.5703 36.3906 77.0625 36.7188 76.4844 36.9062C75.9062 37.0781 75.3203 37.2031 74.7266 37.2812C74.1953 37.3438 73.6406 37.3594 73.0625 37.3281C72.5 37.2969 71.9531 37.2031 71.4219 37.0469C70.9062 36.9062 70.4219 36.6875 69.9688 36.3906C69.5156 36.0781 69.1406 35.6719 68.8438 35.1719C68.7031 34.9219 68.6797 34.6875 68.7734 34.4688C68.8672 34.2344 69.0078 34.0625 69.1953 33.9531C69.3984 33.8281 69.6172 33.7812 69.8516 33.8125C70.1016 33.8438 70.3047 33.9844 70.4609 34.2344C70.6797 34.5938 70.9844 34.8672 71.375 35.0547C71.7656 35.2422 72.1875 35.375 72.6406 35.4531C73.1094 35.5156 73.5781 35.5312 74.0469 35.5C74.5156 35.4531 74.9375 35.3906 75.3125 35.3125C75.5156 35.2656 75.7188 35.2031 75.9219 35.125C76.1406 35.0312 76.3203 34.9219 76.4609 34.7969C76.6172 34.6719 76.7266 34.5312 76.7891 34.375C76.8516 34.2031 76.8438 34.0156 76.7656 33.8125C76.6094 33.4219 76.3438 33.1406 75.9688 32.9688C75.6094 32.7969 75.2266 32.6953 74.8203 32.6641C74.4141 32.6328 74 32.6172 73.5781 32.6172C73.1562 32.6172 72.7344 32.6016 72.3125 32.5703C71.8906 32.5234 71.4766 32.4453 71.0703 32.3359C70.6641 32.2266 70.2891 32.0469 69.9453 31.7969ZM88.8828 26.4531C89.1016 26.5781 89.25 26.7656 89.3281 27.0156C89.4062 27.2656 89.3672 27.5 89.2109 27.7188C88.8203 28.2812 88.5234 28.8984 88.3203 29.5703C88.1328 30.2422 87.9141 30.8984 87.6641 31.5391C87.3984 32.2266 87.1016 32.8906 86.7734 33.5312C86.4609 34.1719 86.125 34.8203 85.7656 35.4766C85.7344 35.5547 85.6953 35.625 85.6484 35.6875C85.6172 35.7344 85.5859 35.7969 85.5547 35.875C85.6172 36.125 85.5781 36.3516 85.4375 36.5547C85.3125 36.7422 85.1406 36.875 84.9219 36.9531C84.2812 38.0469 83.6328 39.125 82.9766 40.1875C82.3359 41.2656 81.6953 42.3516 81.0547 43.4453C80.8984 43.7109 80.6953 43.8594 80.4453 43.8906C80.2109 43.9219 79.9922 43.875 79.7891 43.75C79.5859 43.6406 79.4375 43.4688 79.3438 43.2344C79.25 43.0156 79.2812 42.7734 79.4375 42.5078C80.0938 41.3828 80.7578 40.2656 81.4297 39.1562C82.1016 38.0625 82.7656 36.9531 83.4219 35.8281C82.7188 34.5625 82.0469 33.2891 81.4062 32.0078C80.7656 30.7109 80.1094 29.4219 79.4375 28.1406C79.2969 27.875 79.2734 27.6328 79.3672 27.4141C79.4766 27.1797 79.625 27.0078 79.8125 26.8984C80.0156 26.7734 80.2344 26.7266 80.4688 26.7578C80.7188 26.7891 80.9141 26.9375 81.0547 27.2031C81.6328 28.3281 82.2031 29.4531 82.7656 30.5781C83.3281 31.6875 83.9062 32.7969 84.5 33.9062C85.0781 32.8438 85.5938 31.7266 86.0469 30.5547C86.2812 29.9141 86.5 29.2656 86.7031 28.6094C86.9219 27.9375 87.2266 27.3281 87.6172 26.7812C87.7578 26.5625 87.9453 26.4219 88.1797 26.3594C88.4141 26.2812 88.6484 26.3125 88.8828 26.4531ZM91.4141 31.7969C91.0078 31.5 90.7188 31.1328 90.5469 30.6953C90.375 30.2422 90.3672 29.7656 90.5234 29.2656C90.6797 28.8125 90.9219 28.4062 91.25 28.0469C91.5781 27.6875 91.9531 27.3984 92.375 27.1797C92.8438 26.9297 93.3438 26.7344 93.875 26.5938C94.4062 26.4531 94.9453 26.375 95.4922 26.3594C96.0391 26.3438 96.5781 26.3984 97.1094 26.5234C97.6562 26.6328 98.1719 26.8125 98.6562 27.0625C98.9219 27.2031 99.0703 27.3906 99.1016 27.625C99.1328 27.8594 99.0859 28.0781 98.9609 28.2812C98.8516 28.4844 98.6797 28.6328 98.4453 28.7266C98.2109 28.8203 97.9609 28.7969 97.6953 28.6562C97.3203 28.4531 96.8984 28.3203 96.4297 28.2578C95.9609 28.1953 95.4844 28.1953 95 28.2578C94.5312 28.3047 94.0859 28.4219 93.6641 28.6094C93.2422 28.7969 92.8906 29.0391 92.6094 29.3359C92.5312 29.4141 92.4766 29.4688 92.4453 29.5C92.4297 29.5312 92.3984 29.6016 92.3516 29.7109L92.3047 29.9688C92.3516 30.1094 92.3906 30.1953 92.4219 30.2266C92.7344 30.4297 93.0547 30.5625 93.3828 30.625C93.7266 30.6719 94.0703 30.7031 94.4141 30.7188C94.8984 30.75 95.3906 30.7812 95.8906 30.8125C96.4062 30.8281 96.8984 30.8906 97.3672 31C97.8516 31.1094 98.2969 31.2891 98.7031 31.5391C99.1094 31.7891 99.4531 32.1562 99.7344 32.6406C100.047 33.1875 100.188 33.7578 100.156 34.3516C100.141 34.9297 99.9141 35.4531 99.4766 35.9219C99.0391 36.3906 98.5312 36.7188 97.9531 36.9062C97.375 37.0781 96.7891 37.2031 96.1953 37.2812C95.6641 37.3438 95.1094 37.3594 94.5312 37.3281C93.9688 37.2969 93.4219 37.2031 92.8906 37.0469C92.375 36.9062 91.8906 36.6875 91.4375 36.3906C90.9844 36.0781 90.6094 35.6719 90.3125 35.1719C90.1719 34.9219 90.1484 34.6875 90.2422 34.4688C90.3359 34.2344 90.4766 34.0625 90.6641 33.9531C90.8672 33.8281 91.0859 33.7812 91.3203 33.8125C91.5703 33.8438 91.7734 33.9844 91.9297 34.2344C92.1484 34.5938 92.4531 34.8672 92.8438 35.0547C93.2344 35.2422 93.6562 35.375 94.1094 35.4531C94.5781 35.5156 95.0469 35.5312 95.5156 35.5C95.9844 35.4531 96.4062 35.3906 96.7812 35.3125C96.9844 35.2656 97.1875 35.2031 97.3906 35.125C97.6094 35.0312 97.7891 34.9219 97.9297 34.7969C98.0859 34.6719 98.1953 34.5312 98.2578 34.375C98.3203 34.2031 98.3125 34.0156 98.2344 33.8125C98.0781 33.4219 97.8125 33.1406 97.4375 32.9688C97.0781 32.7969 96.6953 32.6953 96.2891 32.6641C95.8828 32.6328 95.4688 32.6172 95.0469 32.6172C94.625 32.6172 94.2031 32.6016 93.7812 32.5703C93.3594 32.5234 92.9453 32.4453 92.5391 32.3359C92.1328 32.2266 91.7578 32.0469 91.4141 31.7969ZM109.062 28.8203C109.359 28.8203 109.578 28.9141 109.719 29.1016C109.875 29.2891 109.953 29.5 109.953 29.7344C109.953 29.9688 109.875 30.1875 109.719 30.3906C109.578 30.5781 109.359 30.6719 109.062 30.6719C108.688 30.6875 108.312 30.6875 107.938 30.6719C107.578 30.6406 107.219 30.6094 106.859 30.5781C106.875 31.8125 106.852 33.0469 106.789 34.2812C106.742 35.5156 106.617 36.7422 106.414 37.9609C106.383 38.2266 106.242 38.4219 105.992 38.5469C105.742 38.6719 105.5 38.6953 105.266 38.6172C105 38.5391 104.812 38.3906 104.703 38.1719C104.609 37.9688 104.586 37.7344 104.633 37.4688C104.82 36.2812 104.922 35.0938 104.938 33.9062C104.969 32.7188 104.969 31.5234 104.938 30.3203C104.344 30.2266 103.742 30.1328 103.133 30.0391C102.523 29.9297 101.922 29.8359 101.328 29.7578C101.062 29.7266 100.875 29.5859 100.766 29.3359C100.641 29.0703 100.609 28.8281 100.672 28.6094C100.75 28.3438 100.898 28.1641 101.117 28.0703C101.336 27.9609 101.57 27.9219 101.82 27.9531C102.336 28.0312 102.852 28.1172 103.367 28.2109C103.883 28.2891 104.406 28.3672 104.938 28.4453C104.922 28.3672 104.914 28.25 104.914 28.0938C104.914 26.6875 104.906 25.2969 104.891 23.9219C104.891 22.5469 104.961 21.1562 105.102 19.75C105.133 19.5 105.227 19.2812 105.383 19.0938C105.555 18.9062 105.773 18.8125 106.039 18.8125C106.273 18.8125 106.492 18.9062 106.695 19.0938C106.914 19.2812 107.008 19.5 106.977 19.75C106.82 21.25 106.742 22.7422 106.742 24.2266C106.758 25.6953 106.781 27.1875 106.812 28.7031C107.188 28.7344 107.562 28.7656 107.938 28.7969C108.312 28.8125 108.688 28.8203 109.062 28.8203ZM111.969 27.9062C112.266 27.5 112.617 27.1406 113.023 26.8281C113.445 26.5156 113.891 26.2734 114.359 26.1016C114.828 25.9141 115.312 25.8203 115.812 25.8203C116.312 25.8047 116.812 25.8984 117.312 26.1016C117.797 26.2891 118.234 26.5469 118.625 26.875C119.016 27.1875 119.32 27.5938 119.539 28.0938C119.711 28.4688 119.812 28.875 119.844 29.3125C119.875 29.75 119.758 30.1484 119.492 30.5078C119.258 30.8359 118.969 31.0859 118.625 31.2578C118.297 31.4297 117.938 31.5547 117.547 31.6328C117.172 31.7109 116.781 31.75 116.375 31.75C115.984 31.75 115.609 31.7422 115.25 31.7266C114.844 31.7109 114.438 31.6797 114.031 31.6328C113.641 31.5859 113.242 31.5391 112.836 31.4922C112.961 32.1953 113.211 32.8203 113.586 33.3672C113.961 33.9141 114.469 34.3281 115.109 34.6094C115.281 34.6719 115.414 34.7188 115.508 34.75C115.555 34.7656 115.594 34.7812 115.625 34.7969C115.672 34.7969 115.719 34.7969 115.766 34.7969C115.891 34.8125 115.992 34.8281 116.07 34.8438C116.164 34.8438 116.25 34.8359 116.328 34.8203C116.438 34.8047 116.508 34.7969 116.539 34.7969C116.586 34.7812 116.633 34.7656 116.68 34.75C116.852 34.7031 117 34.6484 117.125 34.5859C117.266 34.5234 117.43 34.4219 117.617 34.2812C117.711 34.2031 117.836 34.0859 117.992 33.9297C118.148 33.7734 118.281 33.6328 118.391 33.5078C118.547 33.2891 118.734 33.1406 118.953 33.0625C119.188 32.9844 119.422 33.0156 119.656 33.1562C119.859 33.2812 120 33.4766 120.078 33.7422C120.172 33.9922 120.141 34.2266 119.984 34.4453C119.531 35.0547 118.992 35.5781 118.367 36.0156C117.758 36.4375 117.055 36.6641 116.258 36.6953C115.617 36.7266 115 36.6172 114.406 36.3672C113.812 36.1016 113.289 35.75 112.836 35.3125C112.273 34.7656 111.828 34.1328 111.5 33.4141C111.172 32.6953 110.992 31.9609 110.961 31.2109C110.82 31.1016 110.711 30.9688 110.633 30.8125C110.57 30.6406 110.547 30.4688 110.562 30.2969C110.594 30.125 110.656 29.9688 110.75 29.8281C110.844 29.6719 110.984 29.5703 111.172 29.5234C111.344 28.9453 111.609 28.4062 111.969 27.9062ZM117.594 28.4688C117.422 28.25 117.156 28.0547 116.797 27.8828C116.5 27.7578 116.148 27.6953 115.742 27.6953C115.352 27.6953 115.016 27.7656 114.734 27.9062C114.375 28.0781 114.055 28.3203 113.773 28.6328C113.492 28.9297 113.266 29.2656 113.094 29.6406C113.469 29.6875 113.844 29.7344 114.219 29.7812C114.594 29.8281 114.969 29.8594 115.344 29.875C115.547 29.875 115.75 29.875 115.953 29.875C116.156 29.875 116.359 29.8672 116.562 29.8516C116.625 29.8516 116.68 29.8516 116.727 29.8516C116.789 29.8359 116.852 29.8281 116.914 29.8281C117.055 29.7969 117.156 29.7812 117.219 29.7812C117.297 29.7656 117.375 29.7422 117.453 29.7109C117.516 29.6953 117.594 29.6719 117.688 29.6406C117.766 29.6094 117.812 29.5859 117.828 29.5703C117.844 29.5547 117.867 29.5391 117.898 29.5234L117.969 29.2422C117.938 29.1797 117.914 29.125 117.898 29.0781C117.898 29.0156 117.883 28.9609 117.852 28.9141C117.836 28.8672 117.797 28.7969 117.734 28.7031C117.688 28.6094 117.641 28.5312 117.594 28.4688ZM123.805 37.3047C123.586 37.3828 123.344 37.3594 123.078 37.2344C122.828 37.1094 122.688 36.9219 122.656 36.6719C122.438 35.2969 122.297 33.9375 122.234 32.5938C122.188 31.2344 122.164 29.8672 122.164 28.4922C122.164 28.2578 122.227 28.0703 122.352 27.9297C122.477 27.7891 122.625 27.6953 122.797 27.6484C122.969 27.6016 123.148 27.5938 123.336 27.625C123.523 27.6562 123.68 27.7344 123.805 27.8594C124.164 27.5625 124.547 27.3047 124.953 27.0859C125.359 26.8672 125.766 26.7266 126.172 26.6641C126.594 26.5859 127.008 26.6094 127.414 26.7344C127.82 26.8438 128.203 27.0859 128.562 27.4609C128.859 27.7734 129.117 28.1094 129.336 28.4688C129.555 28.8125 129.75 29.1797 129.922 29.5703C130.156 28.9766 130.484 28.4297 130.906 27.9297C131.328 27.4297 131.867 27.0938 132.523 26.9219C133.008 26.7969 133.391 26.8281 133.672 27.0156C133.953 27.1875 134.219 27.4609 134.469 27.8359C134.734 28.2266 134.977 28.625 135.195 29.0312C135.43 29.4375 135.648 29.8516 135.852 30.2734C136.055 30.6953 136.25 31.1172 136.438 31.5391C136.625 31.9609 136.812 32.375 137 32.7812C137.219 33.2344 137.406 33.6875 137.562 34.1406C137.734 34.5781 137.844 35.0469 137.891 35.5469C137.922 35.8125 137.828 36.0391 137.609 36.2266C137.406 36.3984 137.188 36.4844 136.953 36.4844C136.688 36.4844 136.469 36.3984 136.297 36.2266C136.141 36.0391 136.047 35.8125 136.016 35.5469C135.984 35.1719 135.883 34.8125 135.711 34.4688C135.555 34.1094 135.398 33.7578 135.242 33.4141C135.07 33.0547 134.898 32.6875 134.727 32.3125C134.57 31.9375 134.406 31.5703 134.234 31.2109C134.062 30.8516 133.875 30.4922 133.672 30.1328C133.484 29.7734 133.281 29.4219 133.062 29.0781C133.031 29.0312 133 28.9844 132.969 28.9375C132.938 28.8906 132.906 28.8438 132.875 28.7969C132.562 28.9688 132.336 29.1328 132.195 29.2891C132.055 29.4453 131.922 29.6562 131.797 29.9219C131.688 30.1562 131.594 30.4062 131.516 30.6719C131.453 30.9219 131.398 31.1797 131.352 31.4453C131.258 31.9453 131.188 32.4688 131.141 33.0156C131.109 33.4219 131.109 33.8125 131.141 34.1875C131.188 34.5625 131.172 34.9531 131.094 35.3594C131.047 35.6094 130.898 35.7969 130.648 35.9219C130.414 36.0469 130.18 36.0781 129.945 36.0156C129.727 35.9531 129.562 35.8438 129.453 35.6875C129.359 35.5156 129.297 35.3203 129.266 35.1016C129.203 34.6016 129.133 34.0859 129.055 33.5547C128.977 33.0234 128.875 32.5 128.75 31.9844C128.625 31.4531 128.461 30.9453 128.258 30.4609C128.07 29.9609 127.82 29.5 127.508 29.0781C127.289 28.7969 127.062 28.6094 126.828 28.5156C126.609 28.4219 126.336 28.4609 126.008 28.6328C125.648 28.8203 125.297 29.0469 124.953 29.3125C124.609 29.5781 124.305 29.875 124.039 30.2031C124.055 31.2031 124.086 32.2031 124.133 33.2031C124.195 34.1875 124.305 35.1719 124.461 36.1562C124.492 36.4219 124.453 36.6641 124.344 36.8828C124.25 37.0859 124.07 37.2266 123.805 37.3047ZM147.266 28.2109C147.641 28.3984 148.031 28.625 148.438 28.8906C148.859 29.1406 149.242 29.4297 149.586 29.7578C149.945 30.0859 150.242 30.4453 150.477 30.8359C150.727 31.2266 150.867 31.6562 150.898 32.125C150.93 32.6094 150.812 33.0547 150.547 33.4609C150.297 33.8516 149.984 34.1797 149.609 34.4453C149.484 34.5391 149.352 34.625 149.211 34.7031C149.086 34.7656 148.953 34.8359 148.812 34.9141C148.734 34.9453 148.648 34.9844 148.555 35.0312C148.477 35.0625 148.391 35.0938 148.297 35.125C148.047 35.2344 147.82 35.3359 147.617 35.4297C147.414 35.5234 147.211 35.6094 147.008 35.6875C146.57 35.8594 146.102 36.0312 145.602 36.2031C145.102 36.375 144.594 36.5 144.078 36.5781C143.578 36.6562 143.078 36.6641 142.578 36.6016C142.094 36.5234 141.641 36.3203 141.219 35.9922C141.016 35.8359 140.922 35.625 140.938 35.3594C140.953 35.0781 141.047 34.8516 141.219 34.6797C141.422 34.4766 141.641 34.3828 141.875 34.3984C142.125 34.4141 142.352 34.5078 142.555 34.6797L142.906 34.7734C142.891 34.7578 142.93 34.7578 143.023 34.7734C143.117 34.7734 143.172 34.7734 143.188 34.7734C143.344 34.7734 143.453 34.7656 143.516 34.75C143.734 34.7344 143.977 34.6953 144.242 34.6328C144.523 34.5703 144.781 34.5 145.016 34.4219C145.547 34.25 146.039 34.0781 146.492 33.9062C146.961 33.7188 147.422 33.5156 147.875 33.2969C148 33.2344 148.133 33.1641 148.273 33.0859C148.43 32.9922 148.555 32.9062 148.648 32.8281C148.711 32.7812 148.797 32.7031 148.906 32.5938L149.023 32.3828C149.039 32.2422 149.039 32.1641 149.023 32.1484L148.93 31.8906C148.883 31.7969 148.836 31.7188 148.789 31.6562C148.742 31.5938 148.719 31.5703 148.719 31.5859C148.641 31.5078 148.562 31.4297 148.484 31.3516C148.422 31.2734 148.352 31.1953 148.273 31.1172C147.93 30.8047 147.547 30.5234 147.125 30.2734C146.312 29.7891 145.516 29.3984 144.734 29.1016C144.297 28.9453 143.852 28.8359 143.398 28.7734C142.945 28.7109 142.492 28.6328 142.039 28.5391C141.555 28.4609 141.07 28.3359 140.586 28.1641C140.117 27.9922 139.719 27.7188 139.391 27.3438C139.234 27.1719 139.102 26.9766 138.992 26.7578C138.883 26.5234 138.844 26.2812 138.875 26.0312C138.906 25.8281 138.93 25.6328 138.945 25.4453C138.977 25.2422 139.008 25.0312 139.039 24.8125C139.117 24.4375 139.188 24.0469 139.25 23.6406C139.312 23.2344 139.453 22.8672 139.672 22.5391C139.938 22.1172 140.266 21.7734 140.656 21.5078C141.062 21.2266 141.492 21 141.945 20.8281C142.836 20.5312 143.75 20.375 144.688 20.3594C145.641 20.3438 146.578 20.3594 147.5 20.4062C147.797 20.4219 148.023 20.5312 148.18 20.7344C148.336 20.9375 148.414 21.1562 148.414 21.3906C148.414 21.625 148.336 21.8359 148.18 22.0234C148.023 22.2109 147.797 22.2969 147.5 22.2812C146.953 22.25 146.398 22.2266 145.836 22.2109C145.289 22.1953 144.742 22.2188 144.195 22.2812C143.742 22.3125 143.258 22.3984 142.742 22.5391C142.242 22.6641 141.852 22.8672 141.57 23.1484C141.414 23.2891 141.305 23.4219 141.242 23.5469C141.18 23.6562 141.125 23.8281 141.078 24.0625C141.016 24.2969 140.961 24.5391 140.914 24.7891C140.883 25.0234 140.852 25.2656 140.82 25.5156C140.805 25.5938 140.789 25.6641 140.773 25.7266C140.773 25.7734 140.766 25.8359 140.75 25.9141C140.781 26.0234 140.82 26.1094 140.867 26.1719C140.914 26.2188 140.922 26.2344 140.891 26.2188C140.953 26.25 141.008 26.2812 141.055 26.3125C141.102 26.3438 141.156 26.375 141.219 26.4062C141.297 26.4375 141.391 26.4688 141.5 26.5C141.609 26.5312 141.719 26.5625 141.828 26.5938C142.297 26.7188 142.773 26.8125 143.258 26.875C143.742 26.9219 144.219 27.0078 144.688 27.1328C145.141 27.2578 145.578 27.4141 146 27.6016C146.438 27.7891 146.859 27.9922 147.266 28.2109ZM153.477 35.3594C153.68 35.4844 153.836 35.6719 153.945 35.9219C154.055 36.1719 154.07 36.4062 153.992 36.625C153.898 36.8906 153.742 37.0859 153.523 37.2109C153.352 37.3984 153.133 37.4844 152.867 37.4688C152.602 37.4688 152.383 37.3828 152.211 37.2109C151.977 37.0234 151.828 36.8672 151.766 36.7422C151.641 36.5234 151.602 36.3047 151.648 36.0859C151.711 35.8672 151.836 35.6797 152.023 35.5234C152.055 35.4922 152.094 35.4609 152.141 35.4297C152.188 35.3828 152.234 35.3438 152.281 35.3125C152.422 35.25 152.5 35.2188 152.516 35.2188C152.547 35.2188 152.641 35.2031 152.797 35.1719C152.922 35.1719 153.016 35.1875 153.078 35.2188C153.234 35.25 153.367 35.2969 153.477 35.3594ZM158.07 28.4453C158.633 28.1016 159.234 27.8047 159.875 27.5547C160.531 27.3047 161.195 27.1875 161.867 27.2031C161.805 25.875 161.75 24.5547 161.703 23.2422C161.672 21.9297 161.648 20.6094 161.633 19.2812C161.633 18.9844 161.727 18.7656 161.914 18.625C162.102 18.4688 162.312 18.3906 162.547 18.3906C162.781 18.3906 162.992 18.4688 163.18 18.625C163.383 18.7656 163.484 18.9844 163.484 19.2812C163.5 20.8281 163.539 22.3828 163.602 23.9453C163.664 25.4922 163.727 27.0391 163.789 28.5859C163.852 30.1328 163.898 31.6875 163.93 33.25C163.961 34.7969 163.953 36.3438 163.906 37.8906C163.891 38.1875 163.781 38.4141 163.578 38.5703C163.375 38.7266 163.156 38.8047 162.922 38.8047C162.688 38.8047 162.477 38.7266 162.289 38.5703C162.102 38.4297 162.016 38.2031 162.031 37.8906C162.031 37.7812 162.031 37.6719 162.031 37.5625C162.031 37.4531 162.039 37.3438 162.055 37.2344C161.898 37.2188 161.742 37.2031 161.586 37.1875C161.445 37.1875 161.305 37.1875 161.164 37.1875C160.977 37.1875 160.789 37.1875 160.602 37.1875C160.414 37.1875 160.234 37.1797 160.062 37.1641C159.656 37.1328 159.25 37.0938 158.844 37.0469C158.438 37 158.039 36.9062 157.648 36.7656C157.258 36.6094 156.891 36.4219 156.547 36.2031C156.203 35.9688 155.922 35.6641 155.703 35.2891C155.453 34.8984 155.242 34.4766 155.07 34.0234C154.914 33.5703 154.852 33.1016 154.883 32.6172C154.914 32.1328 155.023 31.6875 155.211 31.2812C155.398 30.875 155.633 30.5 155.914 30.1562C156.211 29.8125 156.539 29.5 156.898 29.2188C157.273 28.9375 157.664 28.6797 158.07 28.4453ZM162.078 35.3828C162.078 33.2891 162.031 31.1875 161.938 29.0781C161.422 29.0469 160.906 29.1406 160.391 29.3594C159.891 29.5625 159.43 29.7969 159.008 30.0625C158.773 30.2031 158.516 30.3672 158.234 30.5547C157.969 30.7266 157.719 30.9297 157.484 31.1641C157.266 31.3828 157.086 31.625 156.945 31.8906C156.805 32.1562 156.734 32.4453 156.734 32.7578C156.75 33.0391 156.812 33.3438 156.922 33.6719C157.031 33.9844 157.18 34.2422 157.367 34.4453C157.555 34.6484 157.766 34.8047 158 34.9141C158.234 35.0078 158.484 35.0859 158.75 35.1484C159.062 35.2109 159.359 35.25 159.641 35.2656C159.938 35.2812 160.242 35.2969 160.555 35.3125C160.805 35.3125 161.055 35.3281 161.305 35.3594C161.555 35.375 161.812 35.3828 162.078 35.3828ZM167.023 27.9062C167.32 27.5 167.672 27.1406 168.078 26.8281C168.5 26.5156 168.945 26.2734 169.414 26.1016C169.883 25.9141 170.367 25.8203 170.867 25.8203C171.367 25.8047 171.867 25.8984 172.367 26.1016C172.852 26.2891 173.289 26.5469 173.68 26.875C174.07 27.1875 174.375 27.5938 174.594 28.0938C174.766 28.4688 174.867 28.875 174.898 29.3125C174.93 29.75 174.812 30.1484 174.547 30.5078C174.312 30.8359 174.023 31.0859 173.68 31.2578C173.352 31.4297 172.992 31.5547 172.602 31.6328C172.227 31.7109 171.836 31.75 171.43 31.75C171.039 31.75 170.664 31.7422 170.305 31.7266C169.898 31.7109 169.492 31.6797 169.086 31.6328C168.695 31.5859 168.297 31.5391 167.891 31.4922C168.016 32.1953 168.266 32.8203 168.641 33.3672C169.016 33.9141 169.523 34.3281 170.164 34.6094C170.336 34.6719 170.469 34.7188 170.562 34.75C170.609 34.7656 170.648 34.7812 170.68 34.7969C170.727 34.7969 170.773 34.7969 170.82 34.7969C170.945 34.8125 171.047 34.8281 171.125 34.8438C171.219 34.8438 171.305 34.8359 171.383 34.8203C171.492 34.8047 171.562 34.7969 171.594 34.7969C171.641 34.7812 171.688 34.7656 171.734 34.75C171.906 34.7031 172.055 34.6484 172.18 34.5859C172.32 34.5234 172.484 34.4219 172.672 34.2812C172.766 34.2031 172.891 34.0859 173.047 33.9297C173.203 33.7734 173.336 33.6328 173.445 33.5078C173.602 33.2891 173.789 33.1406 174.008 33.0625C174.242 32.9844 174.477 33.0156 174.711 33.1562C174.914 33.2812 175.055 33.4766 175.133 33.7422C175.227 33.9922 175.195 34.2266 175.039 34.4453C174.586 35.0547 174.047 35.5781 173.422 36.0156C172.812 36.4375 172.109 36.6641 171.312 36.6953C170.672 36.7266 170.055 36.6172 169.461 36.3672C168.867 36.1016 168.344 35.75 167.891 35.3125C167.328 34.7656 166.883 34.1328 166.555 33.4141C166.227 32.6953 166.047 31.9609 166.016 31.2109C165.875 31.1016 165.766 30.9688 165.688 30.8125C165.625 30.6406 165.602 30.4688 165.617 30.2969C165.648 30.125 165.711 29.9688 165.805 29.8281C165.898 29.6719 166.039 29.5703 166.227 29.5234C166.398 28.9453 166.664 28.4062 167.023 27.9062ZM172.648 28.4688C172.477 28.25 172.211 28.0547 171.852 27.8828C171.555 27.7578 171.203 27.6953 170.797 27.6953C170.406 27.6953 170.07 27.7656 169.789 27.9062C169.43 28.0781 169.109 28.3203 168.828 28.6328C168.547 28.9297 168.32 29.2656 168.148 29.6406C168.523 29.6875 168.898 29.7344 169.273 29.7812C169.648 29.8281 170.023 29.8594 170.398 29.875C170.602 29.875 170.805 29.875 171.008 29.875C171.211 29.875 171.414 29.8672 171.617 29.8516C171.68 29.8516 171.734 29.8516 171.781 29.8516C171.844 29.8359 171.906 29.8281 171.969 29.8281C172.109 29.7969 172.211 29.7812 172.273 29.7812C172.352 29.7656 172.43 29.7422 172.508 29.7109C172.57 29.6953 172.648 29.6719 172.742 29.6406C172.82 29.6094 172.867 29.5859 172.883 29.5703C172.898 29.5547 172.922 29.5391 172.953 29.5234L173.023 29.2422C172.992 29.1797 172.969 29.125 172.953 29.0781C172.953 29.0156 172.938 28.9609 172.906 28.9141C172.891 28.8672 172.852 28.7969 172.789 28.7031C172.742 28.6094 172.695 28.5312 172.648 28.4688ZM178.391 33.6016C178.266 33.1953 178.148 32.7812 178.039 32.3594C177.945 31.9375 177.836 31.5234 177.711 31.1172C177.539 30.4453 177.281 29.7734 176.938 29.1016C176.766 28.7578 176.594 28.4141 176.422 28.0703C176.25 27.7109 176.125 27.3438 176.047 26.9688C175.984 26.6719 176.031 26.4297 176.188 26.2422C176.359 26.0391 176.555 25.9062 176.773 25.8438C176.992 25.7812 177.211 25.7969 177.43 25.8906C177.648 25.9844 177.789 26.1797 177.852 26.4766C177.93 26.8516 178.055 27.2031 178.227 27.5312C178.414 27.8594 178.594 28.1953 178.766 28.5391C178.938 28.8984 179.086 29.2656 179.211 29.6406C179.336 30.0156 179.453 30.3906 179.562 30.7656C179.688 31.1719 179.797 31.5938 179.891 32.0312C180 32.4531 180.125 32.8672 180.266 33.2734C180.312 33.4297 180.359 33.5859 180.406 33.7422C180.469 33.8828 180.531 34.0312 180.594 34.1875C180.75 33.7344 180.875 33.3438 180.969 33.0156C181.062 32.6719 181.172 32.3438 181.297 32.0312C181.469 31.5625 181.633 31.1016 181.789 30.6484C181.945 30.1797 182.086 29.7031 182.211 29.2188C182.336 28.7656 182.43 28.3125 182.492 27.8594C182.555 27.3906 182.648 26.9297 182.773 26.4766C182.852 26.1953 183.008 26.0078 183.242 25.9141C183.477 25.8203 183.703 25.8047 183.922 25.8672C184.141 25.9297 184.32 26.0625 184.461 26.2656C184.617 26.4531 184.656 26.6875 184.578 26.9688C184.422 27.4844 184.312 28.0078 184.25 28.5391C184.188 29.0547 184.078 29.5625 183.922 30.0625C183.781 30.5625 183.617 31.0625 183.43 31.5625C183.258 32.0469 183.086 32.5391 182.914 33.0391C182.805 33.3828 182.695 33.7422 182.586 34.1172C182.477 34.4766 182.344 34.8281 182.188 35.1719C182.047 35.5156 181.867 35.8359 181.648 36.1328C181.43 36.4297 181.156 36.6797 180.828 36.8828C180.531 37.0547 180.258 37.0703 180.008 36.9297C179.758 36.7891 179.57 36.5859 179.445 36.3203C179.258 35.8672 179.07 35.4141 178.883 34.9609C178.711 34.5078 178.547 34.0547 178.391 33.6016Z" fill="white"/>
<defs>
<clipPath id="clip0_701_828">
<rect width="60" height="60" rx="30" fill="white"/>
</clipPath>
<clipPath id="clip1_701_828">
<rect width="44.2623" height="34.4262" fill="white" transform="translate(8.85248 13.7705)"/>
</clipPath>
</defs>
</svg>
